M48
;DRILL file {PCBnew (20090216-final)} date Wed 29 Sep 2010 06:15:53 AM COT
;FORMAT={2:3/ absolute / metric / suppress leading zeros}
R,T
VER,1
FMAT,2
METRIC,TZ
;TCST,OFF
ICI,OFF
ATC,ON
T1C0.394
T2C0.396
T3C0.399
T4C0.864
T5C0.899
T6C1.001
T7C2.299
T8C2.997
%
M47
G05
M71
T1
X135801Y77701
X136924Y55938
X137574Y68214
X138481Y70244
X138829Y60703
X139200Y79601
X139601Y57000
X139799Y65301
X139901Y77300
X140099Y61501
X140200Y68301
X141100Y58199
X141300Y79400
X142420Y69743
X142504Y77699
X142550Y60279
X142700Y70701
X142923Y59779
X148001Y68301
X148900Y54699
X150221Y71737
X153048Y69825
X156065Y67589
X163700Y77800
X174181Y77201
X179370Y91399
X180236Y60846
X180614Y85811
X181351Y84823
X184099Y61300
X193045Y75872
X194981Y57579
X199667Y65659
X200696Y67843
X200980Y61250
X201760Y44963
X201765Y68791
X201783Y46187
X202311Y44503
X202773Y44036
X203416Y74653
X211003Y78400
X211767Y71468
T2
X138801Y80800
X142453Y73274
X142601Y75250
X142613Y74188
X143200Y71199
X160800Y71300
X167300Y78900
X168501Y71501
X181501Y61001
T3
X142601Y72200
X183200Y59299
X186101Y60800
X188199Y59400
X196299Y57000
X196799Y57501
X198001Y46299
X198501Y51900
X203299Y49799
X203500Y42499
X211600Y51999
X212601Y53800
X213599Y71600
X213700Y69400
X221399Y55900
T4
X217500Y51498
X217500Y53505
X217500Y55486
X217500Y57493
X217500Y59500
X217500Y61506
X217500Y63487
X217500Y65494
X217500Y67501
X217500Y69507
X217500Y71488
X217500Y73495
X217500Y75502
X217500Y77508
X217500Y79489
X217500Y81496
X217500Y83503
X217500Y85509
X217500Y87490
X217500Y89497
X219507Y51498
X219507Y53505
X219507Y55486
X219507Y57493
X219507Y59500
X219507Y61506
X219507Y63487
X219507Y65494
X219507Y67501
X219507Y69507
X219507Y71488
X219507Y73495
X219507Y75502
X219507Y77508
X219507Y79489
X219507Y81496
X219507Y83503
X219507Y85509
X219507Y87490
X219507Y89497
T5
X196601Y36749
X196601Y39197
X198702Y36749
X201298Y36749
X203398Y36749
X203398Y39248
T6
X154800Y33731
X159200Y33731
T7
X193251Y33749
X200000Y32951
X206799Y33749
T8
X136975Y31999
X136975Y104000
X218973Y31999
X218973Y104000
T0
M30
