G04 (created by PCBnew (20090216-final)) date Wed 20 Oct 2010 02:22:37 PM COT*
G01*
G70*
G90*
%MOIN*%
G04 Gerber Fmt 3.4, Leading zero omitted, Abs format*
%FSLAX34Y34*%
G04 APERTURE LIST*
%ADD10C,0.015000*%
%ADD11C,0.052000*%
%ADD12C,0.056000*%
%ADD13C,0.137700*%
%ADD14C,0.314000*%
%ADD15C,0.045400*%
%ADD16C,0.019700*%
%ADD17C,0.027600*%
%ADD18C,0.009800*%
%ADD19C,0.011800*%
%ADD20C,0.010000*%
G04 APERTURE END LIST*
G54D10*
X05019Y-04921D02*
X36417Y-04921D01*
X05019Y-05118D02*
X05019Y-04921D01*
X05019Y-36811D02*
X05019Y-05118D01*
X36417Y-36811D02*
X05019Y-36811D01*
X36417Y-04921D02*
X36417Y-36811D01*
G54D11*
X33956Y-14610D03*
X34746Y-14610D03*
X33956Y-15400D03*
X34746Y-15400D03*
X33956Y-16180D03*
X34746Y-16180D03*
X33956Y-16970D03*
X34746Y-16970D03*
X33956Y-17760D03*
X34746Y-17760D03*
X33956Y-18550D03*
X34746Y-18550D03*
X33956Y-19330D03*
X34746Y-19330D03*
X33956Y-20120D03*
X34746Y-20120D03*
X33956Y-20910D03*
X34746Y-20910D03*
X33956Y-21700D03*
X34746Y-21700D03*
X33956Y-22480D03*
X34746Y-22480D03*
X33956Y-23270D03*
X34746Y-23270D03*
X33956Y-24060D03*
X34746Y-24060D03*
X33956Y-24850D03*
X34746Y-24850D03*
X33956Y-25630D03*
X34746Y-25630D03*
X33956Y-26420D03*
X34746Y-26420D03*
X33956Y-27210D03*
X34746Y-27210D03*
X33956Y-28000D03*
X34746Y-28000D03*
X33956Y-28780D03*
X34746Y-28780D03*
X33956Y-29570D03*
X34746Y-29570D03*
G54D12*
X29802Y-33405D03*
X28780Y-33405D03*
X30629Y-33405D03*
X27953Y-33405D03*
X30629Y-32441D03*
X27953Y-32421D03*
G54D13*
X26614Y-34586D03*
X29291Y-34900D03*
X31948Y-34586D03*
G54D14*
X34635Y-06692D03*
X34635Y-35039D03*
G54D15*
X24252Y-34436D03*
X22520Y-34436D03*
G54D16*
X13780Y-31535D03*
X19488Y-34350D03*
X31693Y-15314D03*
X30905Y-14055D03*
X19685Y-27992D03*
X12697Y-29232D03*
X32283Y-27460D03*
X26890Y-30000D03*
X25394Y-31378D03*
X22756Y-32087D03*
X30748Y-29724D03*
X21969Y-32047D03*
X16063Y-32047D03*
X14528Y-31811D03*
X16732Y-30118D03*
X13287Y-36417D03*
X07874Y-28248D03*
X09055Y-28248D03*
G54D17*
X14173Y-31929D02*
X14173Y-31928D01*
X14173Y-31929D02*
X14173Y-33661D01*
X14173Y-33661D02*
X14862Y-34350D01*
X19488Y-34350D02*
X14862Y-34350D01*
X14173Y-31928D02*
X13780Y-31535D01*
X30629Y-33405D02*
X30629Y-35316D01*
X21437Y-36299D02*
X19488Y-34350D01*
X29646Y-36299D02*
X21437Y-36299D01*
X30629Y-35316D02*
X29646Y-36299D01*
G54D18*
X31693Y-14843D02*
X31693Y-15314D01*
X30905Y-14055D02*
X31693Y-14843D01*
X19685Y-27992D02*
X19685Y-29232D01*
G54D17*
X19073Y-29232D02*
X19685Y-29232D01*
X19073Y-29232D02*
X12697Y-29232D01*
X19685Y-29232D02*
X30511Y-29232D01*
X30511Y-29232D02*
X32283Y-27460D01*
G54D19*
X29802Y-31495D02*
X29802Y-33405D01*
X28661Y-30354D02*
X29802Y-31495D01*
X27244Y-30354D02*
X28661Y-30354D01*
X26890Y-30000D02*
X27244Y-30354D01*
G54D17*
X25394Y-31378D02*
X25394Y-31791D01*
X25394Y-31791D02*
X25394Y-31732D01*
X25394Y-31732D02*
X25394Y-31791D01*
X27953Y-33405D02*
X27953Y-33386D01*
X25866Y-31791D02*
X28937Y-31791D01*
X25394Y-31791D02*
X25866Y-31791D01*
X27953Y-33386D02*
X28937Y-32402D01*
X28937Y-32402D02*
X28937Y-31791D01*
X22756Y-32087D02*
X23720Y-31791D01*
X23720Y-31791D02*
X25394Y-31791D01*
G54D19*
X30629Y-32441D02*
X31024Y-32441D01*
X31614Y-30590D02*
X30748Y-29724D01*
X31614Y-31851D02*
X31614Y-30590D01*
X31024Y-32441D02*
X31614Y-31851D01*
G54D18*
X16063Y-32047D02*
X21969Y-32047D01*
X14764Y-32047D02*
X16063Y-32047D01*
X14528Y-31811D02*
X14764Y-32047D01*
X13287Y-31004D02*
X13287Y-36417D01*
X14173Y-30118D02*
X13287Y-31004D01*
X16732Y-30118D02*
X14173Y-30118D01*
X09055Y-28248D02*
X07874Y-28248D01*
G54D20*
X13812Y-36270D02*
X33018Y-36270D01*
X05488Y-36270D02*
X12763Y-36270D01*
X13780Y-36190D02*
X32938Y-36190D01*
X05488Y-36190D02*
X12793Y-36190D01*
X13780Y-36110D02*
X32898Y-36110D01*
X05488Y-36110D02*
X12793Y-36110D01*
X29519Y-36030D02*
X32865Y-36030D01*
X13780Y-36030D02*
X29060Y-36030D01*
X05488Y-36030D02*
X12793Y-36030D01*
X29713Y-35950D02*
X32832Y-35950D01*
X13780Y-35950D02*
X28867Y-35950D01*
X05488Y-35950D02*
X12793Y-35950D01*
X29906Y-35870D02*
X32799Y-35870D01*
X13780Y-35870D02*
X28675Y-35870D01*
X05488Y-35870D02*
X12793Y-35870D01*
X30001Y-35790D02*
X32766Y-35790D01*
X13780Y-35790D02*
X28580Y-35790D01*
X05488Y-35790D02*
X12793Y-35790D01*
X32191Y-35710D02*
X32732Y-35710D01*
X30081Y-35710D02*
X31702Y-35710D01*
X26857Y-35710D02*
X28500Y-35710D01*
X13780Y-35710D02*
X26368Y-35710D01*
X05488Y-35710D02*
X12793Y-35710D01*
X32384Y-35630D02*
X32699Y-35630D01*
X30161Y-35630D02*
X31510Y-35630D01*
X27050Y-35630D02*
X28420Y-35630D01*
X13780Y-35630D02*
X26176Y-35630D01*
X05488Y-35630D02*
X12793Y-35630D01*
X32578Y-35550D02*
X32666Y-35550D01*
X30241Y-35550D02*
X31318Y-35550D01*
X27244Y-35550D02*
X28340Y-35550D01*
X13780Y-35550D02*
X25984Y-35550D01*
X05488Y-35550D02*
X12793Y-35550D01*
X30279Y-35470D02*
X31231Y-35470D01*
X27330Y-35470D02*
X28302Y-35470D01*
X13780Y-35470D02*
X25897Y-35470D01*
X05488Y-35470D02*
X12793Y-35470D01*
X30313Y-35390D02*
X31151Y-35390D01*
X27410Y-35390D02*
X28268Y-35390D01*
X13780Y-35390D02*
X25817Y-35390D01*
X05488Y-35390D02*
X12793Y-35390D01*
X30346Y-35310D02*
X31071Y-35310D01*
X27490Y-35310D02*
X28235Y-35310D01*
X13780Y-35310D02*
X25737Y-35310D01*
X05488Y-35310D02*
X12793Y-35310D01*
X30379Y-35230D02*
X30991Y-35230D01*
X27570Y-35230D02*
X28202Y-35230D01*
X13780Y-35230D02*
X25657Y-35230D01*
X05488Y-35230D02*
X12793Y-35230D01*
X30413Y-35150D02*
X30956Y-35150D01*
X27605Y-35150D02*
X28169Y-35150D01*
X13780Y-35150D02*
X25622Y-35150D01*
X05488Y-35150D02*
X12793Y-35150D01*
X30423Y-35070D02*
X30923Y-35070D01*
X27638Y-35070D02*
X28159Y-35070D01*
X24474Y-35070D02*
X25589Y-35070D01*
X22742Y-35070D02*
X24028Y-35070D01*
X13780Y-35070D02*
X22296Y-35070D01*
X05488Y-35070D02*
X12793Y-35070D01*
X30423Y-34990D02*
X30890Y-34990D01*
X27671Y-34990D02*
X28159Y-34990D01*
X24647Y-34990D02*
X25556Y-34990D01*
X22915Y-34990D02*
X23857Y-34990D01*
X13780Y-34990D02*
X22125Y-34990D01*
X05488Y-34990D02*
X12793Y-34990D01*
X30423Y-34910D02*
X30857Y-34910D01*
X27705Y-34910D02*
X28159Y-34910D01*
X24727Y-34910D02*
X25523Y-34910D01*
X22995Y-34910D02*
X23777Y-34910D01*
X13780Y-34910D02*
X22045Y-34910D01*
X05488Y-34910D02*
X12793Y-34910D01*
X30423Y-34830D02*
X30824Y-34830D01*
X27738Y-34830D02*
X28159Y-34830D01*
X24807Y-34830D02*
X25490Y-34830D01*
X23075Y-34830D02*
X23697Y-34830D01*
X13780Y-34830D02*
X21965Y-34830D01*
X05488Y-34830D02*
X12793Y-34830D01*
X30423Y-34750D02*
X30816Y-34750D01*
X27746Y-34750D02*
X28159Y-34750D01*
X24848Y-34750D02*
X25482Y-34750D01*
X23116Y-34750D02*
X23655Y-34750D01*
X13780Y-34750D02*
X21923Y-34750D01*
X05488Y-34750D02*
X12793Y-34750D01*
X30421Y-34670D02*
X30816Y-34670D01*
X27746Y-34670D02*
X28161Y-34670D01*
X24881Y-34670D02*
X25482Y-34670D01*
X23149Y-34670D02*
X23622Y-34670D01*
X13780Y-34670D02*
X21890Y-34670D01*
X05488Y-34670D02*
X12793Y-34670D01*
X30388Y-34590D02*
X30816Y-34590D01*
X27746Y-34590D02*
X28194Y-34590D01*
X24914Y-34590D02*
X25482Y-34590D01*
X23182Y-34590D02*
X23589Y-34590D01*
X13780Y-34590D02*
X21857Y-34590D01*
X05488Y-34590D02*
X12793Y-34590D01*
X30355Y-34510D02*
X30816Y-34510D01*
X27746Y-34510D02*
X28228Y-34510D01*
X24923Y-34510D02*
X25482Y-34510D01*
X23191Y-34510D02*
X23581Y-34510D01*
X13780Y-34510D02*
X21849Y-34510D01*
X05488Y-34510D02*
X12793Y-34510D01*
X30322Y-34430D02*
X30816Y-34430D01*
X27746Y-34430D02*
X28261Y-34430D01*
X24923Y-34430D02*
X25482Y-34430D01*
X23191Y-34430D02*
X23581Y-34430D01*
X13780Y-34430D02*
X21849Y-34430D01*
X05488Y-34430D02*
X12793Y-34430D01*
X30289Y-34350D02*
X30821Y-34350D01*
X27742Y-34350D02*
X28294Y-34350D01*
X24923Y-34350D02*
X25487Y-34350D01*
X23191Y-34350D02*
X23581Y-34350D01*
X13780Y-34350D02*
X21849Y-34350D01*
X05488Y-34350D02*
X12793Y-34350D01*
X30256Y-34270D02*
X30854Y-34270D01*
X27708Y-34270D02*
X28328Y-34270D01*
X24910Y-34270D02*
X25520Y-34270D01*
X23178Y-34270D02*
X23595Y-34270D01*
X13780Y-34270D02*
X21863Y-34270D01*
X05488Y-34270D02*
X12793Y-34270D01*
X30182Y-34190D02*
X30887Y-34190D01*
X27675Y-34190D02*
X28400Y-34190D01*
X24877Y-34190D02*
X25553Y-34190D01*
X23145Y-34190D02*
X23628Y-34190D01*
X13780Y-34190D02*
X21896Y-34190D01*
X05488Y-34190D02*
X12793Y-34190D01*
X30102Y-34110D02*
X30920Y-34110D01*
X28141Y-34110D02*
X28480Y-34110D01*
X27642Y-34110D02*
X27762Y-34110D01*
X24844Y-34110D02*
X25586Y-34110D01*
X23112Y-34110D02*
X23661Y-34110D01*
X13780Y-34110D02*
X21929Y-34110D01*
X05488Y-34110D02*
X12793Y-34110D01*
X30184Y-34030D02*
X30954Y-34030D01*
X28335Y-34030D02*
X28398Y-34030D01*
X24795Y-34030D02*
X25620Y-34030D01*
X23063Y-34030D02*
X23709Y-34030D01*
X13780Y-34030D02*
X21977Y-34030D01*
X05488Y-34030D02*
X12793Y-34030D01*
X30280Y-33950D02*
X30987Y-33950D01*
X24715Y-33950D02*
X25653Y-33950D01*
X22983Y-33950D02*
X23789Y-33950D01*
X13780Y-33950D02*
X22057Y-33950D01*
X05488Y-33950D02*
X12793Y-33950D01*
X32833Y-33870D02*
X32957Y-33870D01*
X30876Y-33870D02*
X31064Y-33870D01*
X30360Y-33870D02*
X30386Y-33870D01*
X24635Y-33870D02*
X25730Y-33870D01*
X22903Y-33870D02*
X23869Y-33870D01*
X13780Y-33870D02*
X22137Y-33870D01*
X05488Y-33870D02*
X12793Y-33870D01*
X32753Y-33790D02*
X33037Y-33790D01*
X30916Y-33790D02*
X31144Y-33790D01*
X24447Y-33790D02*
X25810Y-33790D01*
X22715Y-33790D02*
X24059Y-33790D01*
X13780Y-33790D02*
X22327Y-33790D01*
X05488Y-33790D02*
X12793Y-33790D01*
X32673Y-33710D02*
X33117Y-33710D01*
X30863Y-33710D02*
X31224Y-33710D01*
X13780Y-33710D02*
X25890Y-33710D01*
X05488Y-33710D02*
X12793Y-33710D01*
X32593Y-33630D02*
X33197Y-33630D01*
X31100Y-33630D02*
X31304Y-33630D01*
X30783Y-33630D02*
X30925Y-33630D01*
X27259Y-33630D02*
X27262Y-33630D01*
X13780Y-33630D02*
X25970Y-33630D01*
X05488Y-33630D02*
X12793Y-33630D01*
X32405Y-33550D02*
X33277Y-33550D01*
X31128Y-33550D02*
X31492Y-33550D01*
X30703Y-33550D02*
X30845Y-33550D01*
X27071Y-33550D02*
X27229Y-33550D01*
X13780Y-33550D02*
X26158Y-33550D01*
X05488Y-33550D02*
X12793Y-33550D01*
X35914Y-33470D02*
X35948Y-33470D01*
X32213Y-33470D02*
X33357Y-33470D01*
X31153Y-33470D02*
X31686Y-33470D01*
X30623Y-33470D02*
X30765Y-33470D01*
X26879Y-33470D02*
X27229Y-33470D01*
X13780Y-33470D02*
X26352Y-33470D01*
X05488Y-33470D02*
X12793Y-33470D01*
X35834Y-33390D02*
X35948Y-33390D01*
X31149Y-33390D02*
X33437Y-33390D01*
X30573Y-33390D02*
X30685Y-33390D01*
X13780Y-33390D02*
X27229Y-33390D01*
X05488Y-33390D02*
X12793Y-33390D01*
X35722Y-33310D02*
X35948Y-33310D01*
X31144Y-33310D02*
X33547Y-33310D01*
X30652Y-33310D02*
X30653Y-33310D01*
X13780Y-33310D02*
X27229Y-33310D01*
X05488Y-33310D02*
X12793Y-33310D01*
X35529Y-33230D02*
X35948Y-33230D01*
X31125Y-33230D02*
X33741Y-33230D01*
X30732Y-33230D02*
X30733Y-33230D01*
X13780Y-33230D02*
X27242Y-33230D01*
X05488Y-33230D02*
X12793Y-33230D01*
X35336Y-33150D02*
X35948Y-33150D01*
X31091Y-33150D02*
X33934Y-33150D01*
X30812Y-33150D02*
X30813Y-33150D01*
X13780Y-33150D02*
X27275Y-33150D01*
X05488Y-33150D02*
X12793Y-33150D01*
X35144Y-33070D02*
X35948Y-33070D01*
X30999Y-33070D02*
X34128Y-33070D01*
X13780Y-33070D02*
X27309Y-33070D01*
X05488Y-33070D02*
X12793Y-33070D01*
X31103Y-32990D02*
X35948Y-32990D01*
X13780Y-32990D02*
X27344Y-32990D01*
X05488Y-32990D02*
X12793Y-32990D01*
X31195Y-32910D02*
X35948Y-32910D01*
X13780Y-32910D02*
X27419Y-32910D01*
X05488Y-32910D02*
X12793Y-32910D01*
X31330Y-32830D02*
X35948Y-32830D01*
X13780Y-32830D02*
X27339Y-32830D01*
X05488Y-32830D02*
X12793Y-32830D01*
X31426Y-32750D02*
X35948Y-32750D01*
X13780Y-32750D02*
X27305Y-32750D01*
X05488Y-32750D02*
X12793Y-32750D01*
X31506Y-32670D02*
X35948Y-32670D01*
X13780Y-32670D02*
X27272Y-32670D01*
X05488Y-32670D02*
X12793Y-32670D01*
X31586Y-32590D02*
X35948Y-32590D01*
X23099Y-32590D02*
X27239Y-32590D01*
X13780Y-32590D02*
X22468Y-32590D01*
X05488Y-32590D02*
X12793Y-32590D01*
X31666Y-32510D02*
X35948Y-32510D01*
X23359Y-32510D02*
X27229Y-32510D01*
X22265Y-32510D02*
X22370Y-32510D01*
X13780Y-32510D02*
X14614Y-32510D01*
X05488Y-32510D02*
X12793Y-32510D01*
X31745Y-32430D02*
X35948Y-32430D01*
X23620Y-32430D02*
X27229Y-32430D01*
X13780Y-32430D02*
X14466Y-32430D01*
X05488Y-32430D02*
X12793Y-32430D01*
X31825Y-32350D02*
X35948Y-32350D01*
X13780Y-32350D02*
X14369Y-32350D01*
X05488Y-32350D02*
X12793Y-32350D01*
X31905Y-32270D02*
X35948Y-32270D01*
X13780Y-32270D02*
X14223Y-32270D01*
X05488Y-32270D02*
X12793Y-32270D01*
X31981Y-32190D02*
X35948Y-32190D01*
X13780Y-32190D02*
X14142Y-32190D01*
X05488Y-32190D02*
X12793Y-32190D01*
X32034Y-32110D02*
X35948Y-32110D01*
X13780Y-32110D02*
X14066Y-32110D01*
X05488Y-32110D02*
X12793Y-32110D01*
X32081Y-32030D02*
X35948Y-32030D01*
X13780Y-32030D02*
X14033Y-32030D01*
X05488Y-32030D02*
X12793Y-32030D01*
X32096Y-31950D02*
X35948Y-31950D01*
X13780Y-31950D02*
X14000Y-31950D01*
X05488Y-31950D02*
X12793Y-31950D01*
X32112Y-31870D02*
X35948Y-31870D01*
X13780Y-31870D02*
X13987Y-31870D01*
X05488Y-31870D02*
X12793Y-31870D01*
X32116Y-31790D02*
X35948Y-31790D01*
X13780Y-31790D02*
X13987Y-31790D01*
X05488Y-31790D02*
X12793Y-31790D01*
X32116Y-31710D02*
X35948Y-31710D01*
X13780Y-31710D02*
X13987Y-31710D01*
X05488Y-31710D02*
X12793Y-31710D01*
X32116Y-31630D02*
X35948Y-31630D01*
X22317Y-31630D02*
X22400Y-31630D01*
X13780Y-31630D02*
X14018Y-31630D01*
X05488Y-31630D02*
X12793Y-31630D01*
X32116Y-31550D02*
X35948Y-31550D01*
X22183Y-31550D02*
X22550Y-31550D01*
X16277Y-31550D02*
X21755Y-31550D01*
X15006Y-31550D02*
X15849Y-31550D01*
X13780Y-31550D02*
X14051Y-31550D01*
X05488Y-31550D02*
X12793Y-31550D01*
X32116Y-31470D02*
X35948Y-31470D01*
X14952Y-31470D02*
X22783Y-31470D01*
X13780Y-31470D02*
X14104Y-31470D01*
X05488Y-31470D02*
X12793Y-31470D01*
X32116Y-31390D02*
X35948Y-31390D01*
X14872Y-31390D02*
X23043Y-31390D01*
X13780Y-31390D02*
X14184Y-31390D01*
X05488Y-31390D02*
X12793Y-31390D01*
X32116Y-31310D02*
X35948Y-31310D01*
X14732Y-31310D02*
X23302Y-31310D01*
X13780Y-31310D02*
X14324Y-31310D01*
X05488Y-31310D02*
X12793Y-31310D01*
X32116Y-31230D02*
X35948Y-31230D01*
X13780Y-31230D02*
X23586Y-31230D01*
X05488Y-31230D02*
X12793Y-31230D01*
X32116Y-31150D02*
X35948Y-31150D01*
X25929Y-31150D02*
X28745Y-31150D01*
X13838Y-31150D02*
X24860Y-31150D01*
X05488Y-31150D02*
X12793Y-31150D01*
X32116Y-31070D02*
X35948Y-31070D01*
X25876Y-31070D02*
X28665Y-31070D01*
X13918Y-31070D02*
X24913Y-31070D01*
X05488Y-31070D02*
X12793Y-31070D01*
X32116Y-30990D02*
X35948Y-30990D01*
X25822Y-30990D02*
X28585Y-30990D01*
X13998Y-30990D02*
X24966Y-30990D01*
X05488Y-30990D02*
X12796Y-30990D01*
X32116Y-30910D02*
X35948Y-30910D01*
X25722Y-30910D02*
X28505Y-30910D01*
X14078Y-30910D02*
X25066Y-30910D01*
X05488Y-30910D02*
X12813Y-30910D01*
X32116Y-30830D02*
X35948Y-30830D01*
X25567Y-30830D02*
X27107Y-30830D01*
X14158Y-30830D02*
X25222Y-30830D01*
X05488Y-30830D02*
X12829Y-30830D01*
X32116Y-30750D02*
X35948Y-30750D01*
X14238Y-30750D02*
X26948Y-30750D01*
X05488Y-30750D02*
X12876Y-30750D01*
X32116Y-30670D02*
X35948Y-30670D01*
X14318Y-30670D02*
X26848Y-30670D01*
X05488Y-30670D02*
X12929Y-30670D01*
X32117Y-30590D02*
X35948Y-30590D01*
X17006Y-30590D02*
X26768Y-30590D01*
X05488Y-30590D02*
X13003Y-30590D01*
X32102Y-30510D02*
X35948Y-30510D01*
X17105Y-30510D02*
X26688Y-30510D01*
X05488Y-30510D02*
X13083Y-30510D01*
X32086Y-30430D02*
X35948Y-30430D01*
X17185Y-30430D02*
X26555Y-30430D01*
X05488Y-30430D02*
X13163Y-30430D01*
X32048Y-30350D02*
X35948Y-30350D01*
X17221Y-30350D02*
X26475Y-30350D01*
X05488Y-30350D02*
X13243Y-30350D01*
X34892Y-30270D02*
X35948Y-30270D01*
X34102Y-30270D02*
X34597Y-30270D01*
X31994Y-30270D02*
X33807Y-30270D01*
X17254Y-30270D02*
X26416Y-30270D01*
X05488Y-30270D02*
X13323Y-30270D01*
X35085Y-30190D02*
X35948Y-30190D01*
X34293Y-30190D02*
X34407Y-30190D01*
X31926Y-30190D02*
X33616Y-30190D01*
X17273Y-30190D02*
X26383Y-30190D01*
X05488Y-30190D02*
X13403Y-30190D01*
X35199Y-30110D02*
X35948Y-30110D01*
X31846Y-30110D02*
X33502Y-30110D01*
X17273Y-30110D02*
X26350Y-30110D01*
X05488Y-30110D02*
X13483Y-30110D01*
X35279Y-30030D02*
X35948Y-30030D01*
X31766Y-30030D02*
X33422Y-30030D01*
X17273Y-30030D02*
X26349Y-30030D01*
X05488Y-30030D02*
X13563Y-30030D01*
X35348Y-29950D02*
X35948Y-29950D01*
X31686Y-29950D02*
X33352Y-29950D01*
X17248Y-29950D02*
X26349Y-29950D01*
X05488Y-29950D02*
X13643Y-29950D01*
X35382Y-29870D02*
X35948Y-29870D01*
X31606Y-29870D02*
X33319Y-29870D01*
X17215Y-29870D02*
X26359Y-29870D01*
X05488Y-29870D02*
X13723Y-29870D01*
X35415Y-29790D02*
X35948Y-29790D01*
X31526Y-29790D02*
X33286Y-29790D01*
X05488Y-29790D02*
X12575Y-29790D01*
X35449Y-29710D02*
X35948Y-29710D01*
X31446Y-29710D02*
X33253Y-29710D01*
X05488Y-29710D02*
X12384Y-29710D01*
X35449Y-29630D02*
X35948Y-29630D01*
X31366Y-29630D02*
X33253Y-29630D01*
X05488Y-29630D02*
X12275Y-29630D01*
X35449Y-29550D02*
X35948Y-29550D01*
X31286Y-29550D02*
X33253Y-29550D01*
X05488Y-29550D02*
X12222Y-29550D01*
X35449Y-29470D02*
X35948Y-29470D01*
X31229Y-29470D02*
X33253Y-29470D01*
X05488Y-29470D02*
X12169Y-29470D01*
X35432Y-29390D02*
X35948Y-29390D01*
X31179Y-29390D02*
X33270Y-29390D01*
X05488Y-29390D02*
X12146Y-29390D01*
X35399Y-29310D02*
X35948Y-29310D01*
X31255Y-29310D02*
X33303Y-29310D01*
X05488Y-29310D02*
X12130Y-29310D01*
X35366Y-29230D02*
X35948Y-29230D01*
X31335Y-29230D02*
X33337Y-29230D01*
X05488Y-29230D02*
X12116Y-29230D01*
X35352Y-29150D02*
X35948Y-29150D01*
X31415Y-29150D02*
X33348Y-29150D01*
X05488Y-29150D02*
X12132Y-29150D01*
X35385Y-29070D02*
X35948Y-29070D01*
X31495Y-29070D02*
X33315Y-29070D01*
X05488Y-29070D02*
X12147Y-29070D01*
X35419Y-28990D02*
X35948Y-28990D01*
X31575Y-28990D02*
X33282Y-28990D01*
X05488Y-28990D02*
X12172Y-28990D01*
X35449Y-28910D02*
X35948Y-28910D01*
X31655Y-28910D02*
X33253Y-28910D01*
X05488Y-28910D02*
X12225Y-28910D01*
X35449Y-28830D02*
X35948Y-28830D01*
X31735Y-28830D02*
X33253Y-28830D01*
X05488Y-28830D02*
X12279Y-28830D01*
X35449Y-28750D02*
X35948Y-28750D01*
X31815Y-28750D02*
X33253Y-28750D01*
X09256Y-28750D02*
X12390Y-28750D01*
X08075Y-28750D02*
X08852Y-28750D01*
X05488Y-28750D02*
X07672Y-28750D01*
X35449Y-28670D02*
X35948Y-28670D01*
X31895Y-28670D02*
X33253Y-28670D01*
X09398Y-28670D02*
X12596Y-28670D01*
X05488Y-28670D02*
X07531Y-28670D01*
X35428Y-28590D02*
X35948Y-28590D01*
X31975Y-28590D02*
X33274Y-28590D01*
X20178Y-28590D02*
X30329Y-28590D01*
X09478Y-28590D02*
X19192Y-28590D01*
X05488Y-28590D02*
X07451Y-28590D01*
X35395Y-28510D02*
X35948Y-28510D01*
X32055Y-28510D02*
X33307Y-28510D01*
X20178Y-28510D02*
X30409Y-28510D01*
X09531Y-28510D02*
X19192Y-28510D01*
X05488Y-28510D02*
X07396Y-28510D01*
X35362Y-28430D02*
X35948Y-28430D01*
X32135Y-28430D02*
X33341Y-28430D01*
X20178Y-28430D02*
X30489Y-28430D01*
X09565Y-28430D02*
X19192Y-28430D01*
X05488Y-28430D02*
X07363Y-28430D01*
X35360Y-28350D02*
X35948Y-28350D01*
X32215Y-28350D02*
X33340Y-28350D01*
X20178Y-28350D02*
X30569Y-28350D01*
X09596Y-28350D02*
X19192Y-28350D01*
X05488Y-28350D02*
X07333Y-28350D01*
X35394Y-28270D02*
X35948Y-28270D01*
X32295Y-28270D02*
X33307Y-28270D01*
X20178Y-28270D02*
X30649Y-28270D01*
X09596Y-28270D02*
X19192Y-28270D01*
X05488Y-28270D02*
X07333Y-28270D01*
X35428Y-28190D02*
X35948Y-28190D01*
X32375Y-28190D02*
X33274Y-28190D01*
X20188Y-28190D02*
X30729Y-28190D01*
X09596Y-28190D02*
X19181Y-28190D01*
X05488Y-28190D02*
X07333Y-28190D01*
X35449Y-28110D02*
X35948Y-28110D01*
X32455Y-28110D02*
X33253Y-28110D01*
X20221Y-28110D02*
X30809Y-28110D01*
X09584Y-28110D02*
X19148Y-28110D01*
X05488Y-28110D02*
X07346Y-28110D01*
X35449Y-28030D02*
X35948Y-28030D01*
X32535Y-28030D02*
X33253Y-28030D01*
X20226Y-28030D02*
X30889Y-28030D01*
X09551Y-28030D02*
X19144Y-28030D01*
X05488Y-28030D02*
X07379Y-28030D01*
X35449Y-27950D02*
X35948Y-27950D01*
X32615Y-27950D02*
X33253Y-27950D01*
X20226Y-27950D02*
X30969Y-27950D01*
X09518Y-27950D02*
X19144Y-27950D01*
X05488Y-27950D02*
X07413Y-27950D01*
X35449Y-27870D02*
X35948Y-27870D01*
X32695Y-27870D02*
X33253Y-27870D01*
X20220Y-27870D02*
X31049Y-27870D01*
X09442Y-27870D02*
X19150Y-27870D01*
X05488Y-27870D02*
X07487Y-27870D01*
X35420Y-27790D02*
X35948Y-27790D01*
X32748Y-27790D02*
X33282Y-27790D01*
X20187Y-27790D02*
X31129Y-27790D01*
X09362Y-27790D02*
X19184Y-27790D01*
X05488Y-27790D02*
X07567Y-27790D01*
X35387Y-27710D02*
X35948Y-27710D01*
X32802Y-27710D02*
X33316Y-27710D01*
X20154Y-27710D02*
X31209Y-27710D01*
X09171Y-27710D02*
X19217Y-27710D01*
X07990Y-27710D02*
X08941Y-27710D01*
X05488Y-27710D02*
X07760Y-27710D01*
X35353Y-27630D02*
X35948Y-27630D01*
X32830Y-27630D02*
X33349Y-27630D01*
X20088Y-27630D02*
X31289Y-27630D01*
X05488Y-27630D02*
X19282Y-27630D01*
X35364Y-27550D02*
X35948Y-27550D01*
X32846Y-27550D02*
X33336Y-27550D01*
X20008Y-27550D02*
X31369Y-27550D01*
X05488Y-27550D02*
X19362Y-27550D01*
X35398Y-27470D02*
X35948Y-27470D01*
X32863Y-27470D02*
X33303Y-27470D01*
X19839Y-27470D02*
X31449Y-27470D01*
X05488Y-27470D02*
X19532Y-27470D01*
X35432Y-27390D02*
X35948Y-27390D01*
X32851Y-27390D02*
X33269Y-27390D01*
X05488Y-27390D02*
X31529Y-27390D01*
X35449Y-27310D02*
X35948Y-27310D01*
X32835Y-27310D02*
X33253Y-27310D01*
X05488Y-27310D02*
X31610Y-27310D01*
X35449Y-27230D02*
X35948Y-27230D01*
X32815Y-27230D02*
X33253Y-27230D01*
X05488Y-27230D02*
X31690Y-27230D01*
X35449Y-27150D02*
X35948Y-27150D01*
X32762Y-27150D02*
X33253Y-27150D01*
X05488Y-27150D02*
X31770Y-27150D01*
X35449Y-27070D02*
X35948Y-27070D01*
X32708Y-27070D02*
X33253Y-27070D01*
X05488Y-27070D02*
X31850Y-27070D01*
X35416Y-26990D02*
X35948Y-26990D01*
X32606Y-26990D02*
X33286Y-26990D01*
X05488Y-26990D02*
X31960Y-26990D01*
X35382Y-26910D02*
X35948Y-26910D01*
X32441Y-26910D02*
X33320Y-26910D01*
X05488Y-26910D02*
X32125Y-26910D01*
X35349Y-26830D02*
X35948Y-26830D01*
X05488Y-26830D02*
X33353Y-26830D01*
X35369Y-26750D02*
X35948Y-26750D01*
X05488Y-26750D02*
X33332Y-26750D01*
X35402Y-26670D02*
X35948Y-26670D01*
X05488Y-26670D02*
X33298Y-26670D01*
X35436Y-26590D02*
X35948Y-26590D01*
X05488Y-26590D02*
X33265Y-26590D01*
X35449Y-26510D02*
X35948Y-26510D01*
X05488Y-26510D02*
X33253Y-26510D01*
X35449Y-26430D02*
X35948Y-26430D01*
X05488Y-26430D02*
X33253Y-26430D01*
X35449Y-26350D02*
X35948Y-26350D01*
X05488Y-26350D02*
X33253Y-26350D01*
X35445Y-26270D02*
X35948Y-26270D01*
X05488Y-26270D02*
X33257Y-26270D01*
X35412Y-26190D02*
X35948Y-26190D01*
X05488Y-26190D02*
X33291Y-26190D01*
X35378Y-26110D02*
X35948Y-26110D01*
X05488Y-26110D02*
X33324Y-26110D01*
X35345Y-26030D02*
X35948Y-26030D01*
X05488Y-26030D02*
X33357Y-26030D01*
X35373Y-25950D02*
X35948Y-25950D01*
X05488Y-25950D02*
X33327Y-25950D01*
X35407Y-25870D02*
X35948Y-25870D01*
X05488Y-25870D02*
X33294Y-25870D01*
X35440Y-25790D02*
X35948Y-25790D01*
X05488Y-25790D02*
X33261Y-25790D01*
X35449Y-25710D02*
X35948Y-25710D01*
X05488Y-25710D02*
X33253Y-25710D01*
X35449Y-25630D02*
X35948Y-25630D01*
X05488Y-25630D02*
X33253Y-25630D01*
X35449Y-25550D02*
X35948Y-25550D01*
X05488Y-25550D02*
X33253Y-25550D01*
X35441Y-25470D02*
X35948Y-25470D01*
X05488Y-25470D02*
X33261Y-25470D01*
X35407Y-25390D02*
X35948Y-25390D01*
X05488Y-25390D02*
X33295Y-25390D01*
X35374Y-25310D02*
X35948Y-25310D01*
X05488Y-25310D02*
X33328Y-25310D01*
X35347Y-25230D02*
X35948Y-25230D01*
X05488Y-25230D02*
X33352Y-25230D01*
X35381Y-25150D02*
X35948Y-25150D01*
X05488Y-25150D02*
X33319Y-25150D01*
X35415Y-25070D02*
X35948Y-25070D01*
X05488Y-25070D02*
X33286Y-25070D01*
X35449Y-24990D02*
X35948Y-24990D01*
X05488Y-24990D02*
X33253Y-24990D01*
X35449Y-24910D02*
X35948Y-24910D01*
X05488Y-24910D02*
X33253Y-24910D01*
X35449Y-24830D02*
X35948Y-24830D01*
X05488Y-24830D02*
X33253Y-24830D01*
X35449Y-24750D02*
X35948Y-24750D01*
X05488Y-24750D02*
X33253Y-24750D01*
X35432Y-24670D02*
X35948Y-24670D01*
X05488Y-24670D02*
X33270Y-24670D01*
X35399Y-24590D02*
X35948Y-24590D01*
X05488Y-24590D02*
X33303Y-24590D01*
X35366Y-24510D02*
X35948Y-24510D01*
X05488Y-24510D02*
X33337Y-24510D01*
X35320Y-24430D02*
X35948Y-24430D01*
X05488Y-24430D02*
X33348Y-24430D01*
X35240Y-24350D02*
X35948Y-24350D01*
X05488Y-24350D02*
X33315Y-24350D01*
X35201Y-24270D02*
X35948Y-24270D01*
X05488Y-24270D02*
X33282Y-24270D01*
X35229Y-24190D02*
X35948Y-24190D01*
X05488Y-24190D02*
X33253Y-24190D01*
X35250Y-24110D02*
X35948Y-24110D01*
X34725Y-24110D02*
X34767Y-24110D01*
X05488Y-24110D02*
X33253Y-24110D01*
X35245Y-24030D02*
X35948Y-24030D01*
X34705Y-24030D02*
X34847Y-24030D01*
X05488Y-24030D02*
X33253Y-24030D01*
X35241Y-23950D02*
X35948Y-23950D01*
X34785Y-23950D02*
X34927Y-23950D01*
X05488Y-23950D02*
X33253Y-23950D01*
X35214Y-23870D02*
X35948Y-23870D01*
X34865Y-23870D02*
X35007Y-23870D01*
X05488Y-23870D02*
X33274Y-23870D01*
X35133Y-23790D02*
X35948Y-23790D01*
X34945Y-23790D02*
X35087Y-23790D01*
X05488Y-23790D02*
X33307Y-23790D01*
X35025Y-23710D02*
X35948Y-23710D01*
X05488Y-23710D02*
X33341Y-23710D01*
X35022Y-23630D02*
X35948Y-23630D01*
X05488Y-23630D02*
X33344Y-23630D01*
X34955Y-23550D02*
X35948Y-23550D01*
X05488Y-23550D02*
X33311Y-23550D01*
X35205Y-23470D02*
X35948Y-23470D01*
X34875Y-23470D02*
X35017Y-23470D01*
X05488Y-23470D02*
X33278Y-23470D01*
X35233Y-23390D02*
X35948Y-23390D01*
X34795Y-23390D02*
X34937Y-23390D01*
X05488Y-23390D02*
X33253Y-23390D01*
X35250Y-23310D02*
X35948Y-23310D01*
X34715Y-23310D02*
X34857Y-23310D01*
X05488Y-23310D02*
X33253Y-23310D01*
X35245Y-23230D02*
X35948Y-23230D01*
X34715Y-23230D02*
X34777Y-23230D01*
X05488Y-23230D02*
X33253Y-23230D01*
X35240Y-23150D02*
X35948Y-23150D01*
X05488Y-23150D02*
X33253Y-23150D01*
X35210Y-23070D02*
X35948Y-23070D01*
X05488Y-23070D02*
X33278Y-23070D01*
X35228Y-22990D02*
X35948Y-22990D01*
X05488Y-22990D02*
X33312Y-22990D01*
X35309Y-22910D02*
X35948Y-22910D01*
X05488Y-22910D02*
X33345Y-22910D01*
X35361Y-22830D02*
X35948Y-22830D01*
X05488Y-22830D02*
X33340Y-22830D01*
X35395Y-22750D02*
X35948Y-22750D01*
X05488Y-22750D02*
X33307Y-22750D01*
X35428Y-22670D02*
X35948Y-22670D01*
X05488Y-22670D02*
X33274Y-22670D01*
X35449Y-22590D02*
X35948Y-22590D01*
X05488Y-22590D02*
X33253Y-22590D01*
X35449Y-22510D02*
X35948Y-22510D01*
X05488Y-22510D02*
X33253Y-22510D01*
X35449Y-22430D02*
X35948Y-22430D01*
X05488Y-22430D02*
X33253Y-22430D01*
X35449Y-22350D02*
X35948Y-22350D01*
X05488Y-22350D02*
X33253Y-22350D01*
X35420Y-22270D02*
X35948Y-22270D01*
X05488Y-22270D02*
X33282Y-22270D01*
X35387Y-22190D02*
X35948Y-22190D01*
X05488Y-22190D02*
X33316Y-22190D01*
X35353Y-22110D02*
X35948Y-22110D01*
X05488Y-22110D02*
X33349Y-22110D01*
X35368Y-22030D02*
X35948Y-22030D01*
X05488Y-22030D02*
X33332Y-22030D01*
X35402Y-21950D02*
X35948Y-21950D01*
X05488Y-21950D02*
X33298Y-21950D01*
X35436Y-21870D02*
X35948Y-21870D01*
X05488Y-21870D02*
X33265Y-21870D01*
X35449Y-21790D02*
X35948Y-21790D01*
X05488Y-21790D02*
X33253Y-21790D01*
X35449Y-21710D02*
X35948Y-21710D01*
X05488Y-21710D02*
X33253Y-21710D01*
X35449Y-21630D02*
X35948Y-21630D01*
X05488Y-21630D02*
X33253Y-21630D01*
X35445Y-21550D02*
X35948Y-21550D01*
X05488Y-21550D02*
X33257Y-21550D01*
X35412Y-21470D02*
X35948Y-21470D01*
X05488Y-21470D02*
X33291Y-21470D01*
X35378Y-21390D02*
X35948Y-21390D01*
X05488Y-21390D02*
X33324Y-21390D01*
X35345Y-21310D02*
X35948Y-21310D01*
X05488Y-21310D02*
X33357Y-21310D01*
X35373Y-21230D02*
X35948Y-21230D01*
X05488Y-21230D02*
X33327Y-21230D01*
X35407Y-21150D02*
X35948Y-21150D01*
X05488Y-21150D02*
X33294Y-21150D01*
X35440Y-21070D02*
X35948Y-21070D01*
X05488Y-21070D02*
X33261Y-21070D01*
X35449Y-20990D02*
X35948Y-20990D01*
X05488Y-20990D02*
X33253Y-20990D01*
X35449Y-20910D02*
X35948Y-20910D01*
X05488Y-20910D02*
X33253Y-20910D01*
X35449Y-20830D02*
X35948Y-20830D01*
X05488Y-20830D02*
X33253Y-20830D01*
X35441Y-20750D02*
X35948Y-20750D01*
X05488Y-20750D02*
X33261Y-20750D01*
X35407Y-20670D02*
X35948Y-20670D01*
X05488Y-20670D02*
X33295Y-20670D01*
X35374Y-20590D02*
X35948Y-20590D01*
X05488Y-20590D02*
X33328Y-20590D01*
X35343Y-20510D02*
X35948Y-20510D01*
X05488Y-20510D02*
X33356Y-20510D01*
X35377Y-20430D02*
X35948Y-20430D01*
X05488Y-20430D02*
X33323Y-20430D01*
X35411Y-20350D02*
X35948Y-20350D01*
X05488Y-20350D02*
X33290Y-20350D01*
X35445Y-20270D02*
X35948Y-20270D01*
X05488Y-20270D02*
X33257Y-20270D01*
X35449Y-20190D02*
X35948Y-20190D01*
X05488Y-20190D02*
X33253Y-20190D01*
X35449Y-20110D02*
X35948Y-20110D01*
X05488Y-20110D02*
X33253Y-20110D01*
X35449Y-20030D02*
X35948Y-20030D01*
X05488Y-20030D02*
X33253Y-20030D01*
X35437Y-19950D02*
X35948Y-19950D01*
X05488Y-19950D02*
X33266Y-19950D01*
X35403Y-19870D02*
X35948Y-19870D01*
X05488Y-19870D02*
X33299Y-19870D01*
X35370Y-19790D02*
X35948Y-19790D01*
X05488Y-19790D02*
X33332Y-19790D01*
X35347Y-19710D02*
X35948Y-19710D01*
X05488Y-19710D02*
X33352Y-19710D01*
X35381Y-19630D02*
X35948Y-19630D01*
X05488Y-19630D02*
X33319Y-19630D01*
X35415Y-19550D02*
X35948Y-19550D01*
X05488Y-19550D02*
X33286Y-19550D01*
X35449Y-19470D02*
X35948Y-19470D01*
X05488Y-19470D02*
X33253Y-19470D01*
X35449Y-19390D02*
X35948Y-19390D01*
X05488Y-19390D02*
X33253Y-19390D01*
X35449Y-19310D02*
X35948Y-19310D01*
X05488Y-19310D02*
X33253Y-19310D01*
X35449Y-19230D02*
X35948Y-19230D01*
X05488Y-19230D02*
X33253Y-19230D01*
X35432Y-19150D02*
X35948Y-19150D01*
X05488Y-19150D02*
X33270Y-19150D01*
X35399Y-19070D02*
X35948Y-19070D01*
X05488Y-19070D02*
X33303Y-19070D01*
X35366Y-18990D02*
X35948Y-18990D01*
X05488Y-18990D02*
X33337Y-18990D01*
X35356Y-18910D02*
X35948Y-18910D01*
X05488Y-18910D02*
X33344Y-18910D01*
X35390Y-18830D02*
X35948Y-18830D01*
X05488Y-18830D02*
X33311Y-18830D01*
X35424Y-18750D02*
X35948Y-18750D01*
X05488Y-18750D02*
X33278Y-18750D01*
X35449Y-18670D02*
X35948Y-18670D01*
X05488Y-18670D02*
X33253Y-18670D01*
X35449Y-18590D02*
X35948Y-18590D01*
X05488Y-18590D02*
X33253Y-18590D01*
X35449Y-18510D02*
X35948Y-18510D01*
X05488Y-18510D02*
X33253Y-18510D01*
X35449Y-18430D02*
X35948Y-18430D01*
X05488Y-18430D02*
X33253Y-18430D01*
X35424Y-18350D02*
X35948Y-18350D01*
X05488Y-18350D02*
X33278Y-18350D01*
X35391Y-18270D02*
X35948Y-18270D01*
X05488Y-18270D02*
X33312Y-18270D01*
X35357Y-18190D02*
X35948Y-18190D01*
X05488Y-18190D02*
X33345Y-18190D01*
X35360Y-18110D02*
X35948Y-18110D01*
X05488Y-18110D02*
X33340Y-18110D01*
X35394Y-18030D02*
X35948Y-18030D01*
X05488Y-18030D02*
X33307Y-18030D01*
X35428Y-17950D02*
X35948Y-17950D01*
X05488Y-17950D02*
X33274Y-17950D01*
X35449Y-17870D02*
X35948Y-17870D01*
X05488Y-17870D02*
X33253Y-17870D01*
X35449Y-17790D02*
X35948Y-17790D01*
X05488Y-17790D02*
X33253Y-17790D01*
X35449Y-17710D02*
X35948Y-17710D01*
X05488Y-17710D02*
X33253Y-17710D01*
X35449Y-17630D02*
X35948Y-17630D01*
X05488Y-17630D02*
X33253Y-17630D01*
X35420Y-17550D02*
X35948Y-17550D01*
X05488Y-17550D02*
X33282Y-17550D01*
X35387Y-17470D02*
X35948Y-17470D01*
X05488Y-17470D02*
X33316Y-17470D01*
X35353Y-17390D02*
X35948Y-17390D01*
X05488Y-17390D02*
X33349Y-17390D01*
X35364Y-17310D02*
X35948Y-17310D01*
X05488Y-17310D02*
X33336Y-17310D01*
X35398Y-17230D02*
X35948Y-17230D01*
X05488Y-17230D02*
X33303Y-17230D01*
X35432Y-17150D02*
X35948Y-17150D01*
X05488Y-17150D02*
X33269Y-17150D01*
X35449Y-17070D02*
X35948Y-17070D01*
X05488Y-17070D02*
X33253Y-17070D01*
X35449Y-16990D02*
X35948Y-16990D01*
X05488Y-16990D02*
X33253Y-16990D01*
X35449Y-16910D02*
X35948Y-16910D01*
X05488Y-16910D02*
X33253Y-16910D01*
X35449Y-16830D02*
X35948Y-16830D01*
X05488Y-16830D02*
X33253Y-16830D01*
X35416Y-16750D02*
X35948Y-16750D01*
X05488Y-16750D02*
X33286Y-16750D01*
X35382Y-16670D02*
X35948Y-16670D01*
X05488Y-16670D02*
X33320Y-16670D01*
X35349Y-16590D02*
X35948Y-16590D01*
X05488Y-16590D02*
X33353Y-16590D01*
X35369Y-16510D02*
X35948Y-16510D01*
X05488Y-16510D02*
X33332Y-16510D01*
X35402Y-16430D02*
X35948Y-16430D01*
X05488Y-16430D02*
X33298Y-16430D01*
X35436Y-16350D02*
X35948Y-16350D01*
X05488Y-16350D02*
X33265Y-16350D01*
X35449Y-16270D02*
X35948Y-16270D01*
X05488Y-16270D02*
X33253Y-16270D01*
X35449Y-16190D02*
X35948Y-16190D01*
X05488Y-16190D02*
X33253Y-16190D01*
X35449Y-16110D02*
X35948Y-16110D01*
X05488Y-16110D02*
X33253Y-16110D01*
X35445Y-16030D02*
X35948Y-16030D01*
X05488Y-16030D02*
X33257Y-16030D01*
X35412Y-15950D02*
X35948Y-15950D01*
X05488Y-15950D02*
X33291Y-15950D01*
X35378Y-15870D02*
X35948Y-15870D01*
X05488Y-15870D02*
X33324Y-15870D01*
X35345Y-15790D02*
X35948Y-15790D01*
X31957Y-15790D02*
X33357Y-15790D01*
X05488Y-15790D02*
X31429Y-15790D01*
X35377Y-15710D02*
X35948Y-15710D01*
X32062Y-15710D02*
X33323Y-15710D01*
X05488Y-15710D02*
X31324Y-15710D01*
X35411Y-15630D02*
X35948Y-15630D01*
X32142Y-15630D02*
X33290Y-15630D01*
X05488Y-15630D02*
X31244Y-15630D01*
X35445Y-15550D02*
X35948Y-15550D01*
X32180Y-15550D02*
X33257Y-15550D01*
X05488Y-15550D02*
X31205Y-15550D01*
X35449Y-15470D02*
X35948Y-15470D01*
X32213Y-15470D02*
X33253Y-15470D01*
X05488Y-15470D02*
X31172Y-15470D01*
X35449Y-15390D02*
X35948Y-15390D01*
X32234Y-15390D02*
X33253Y-15390D01*
X05488Y-15390D02*
X31152Y-15390D01*
X35449Y-15310D02*
X35948Y-15310D01*
X32234Y-15310D02*
X33253Y-15310D01*
X05488Y-15310D02*
X31152Y-15310D01*
X35437Y-15230D02*
X35948Y-15230D01*
X32234Y-15230D02*
X33266Y-15230D01*
X05488Y-15230D02*
X31152Y-15230D01*
X35403Y-15150D02*
X35948Y-15150D01*
X32211Y-15150D02*
X33299Y-15150D01*
X05488Y-15150D02*
X31176Y-15150D01*
X35370Y-15070D02*
X35948Y-15070D01*
X32186Y-15070D02*
X33333Y-15070D01*
X05488Y-15070D02*
X31200Y-15070D01*
X35347Y-14990D02*
X35948Y-14990D01*
X32186Y-14990D02*
X33372Y-14990D01*
X05488Y-14990D02*
X31142Y-14990D01*
X35381Y-14910D02*
X35948Y-14910D01*
X32186Y-14910D02*
X33452Y-14910D01*
X05488Y-14910D02*
X31062Y-14910D01*
X35415Y-14830D02*
X35948Y-14830D01*
X32184Y-14830D02*
X33500Y-14830D01*
X05488Y-14830D02*
X30982Y-14830D01*
X35449Y-14750D02*
X35948Y-14750D01*
X32168Y-14750D02*
X33467Y-14750D01*
X05488Y-14750D02*
X30902Y-14750D01*
X35449Y-14670D02*
X35948Y-14670D01*
X33945Y-14670D02*
X33967Y-14670D01*
X32152Y-14670D02*
X33458Y-14670D01*
X05488Y-14670D02*
X30822Y-14670D01*
X35449Y-14590D02*
X35948Y-14590D01*
X33865Y-14590D02*
X34007Y-14590D01*
X32106Y-14590D02*
X33453Y-14590D01*
X05488Y-14590D02*
X30742Y-14590D01*
X35449Y-14510D02*
X35948Y-14510D01*
X33785Y-14510D02*
X33927Y-14510D01*
X32053Y-14510D02*
X33462Y-14510D01*
X05488Y-14510D02*
X30595Y-14510D01*
X35432Y-14430D02*
X35948Y-14430D01*
X33705Y-14430D02*
X33847Y-14430D01*
X31978Y-14430D02*
X33490Y-14430D01*
X05488Y-14430D02*
X30515Y-14430D01*
X35399Y-14350D02*
X35948Y-14350D01*
X33625Y-14350D02*
X33767Y-14350D01*
X31898Y-14350D02*
X33529Y-14350D01*
X05488Y-14350D02*
X30441Y-14350D01*
X35366Y-14270D02*
X35948Y-14270D01*
X31818Y-14270D02*
X33687Y-14270D01*
X05488Y-14270D02*
X30408Y-14270D01*
X35320Y-14190D02*
X35948Y-14190D01*
X31738Y-14190D02*
X33695Y-14190D01*
X05488Y-14190D02*
X30375Y-14190D01*
X35240Y-14110D02*
X35948Y-14110D01*
X34040Y-14110D02*
X34252Y-14110D01*
X31658Y-14110D02*
X33943Y-14110D01*
X05488Y-14110D02*
X30364Y-14110D01*
X35160Y-14030D02*
X35948Y-14030D01*
X31578Y-14030D02*
X34333Y-14030D01*
X05488Y-14030D02*
X30364Y-14030D01*
X34990Y-13950D02*
X35948Y-13950D01*
X31498Y-13950D02*
X34504Y-13950D01*
X05488Y-13950D02*
X30364Y-13950D01*
X31418Y-13870D02*
X35948Y-13870D01*
X05488Y-13870D02*
X30397Y-13870D01*
X31381Y-13790D02*
X35948Y-13790D01*
X05488Y-13790D02*
X30430Y-13790D01*
X31325Y-13710D02*
X35948Y-13710D01*
X05488Y-13710D02*
X30485Y-13710D01*
X31245Y-13630D02*
X35948Y-13630D01*
X05488Y-13630D02*
X30565Y-13630D01*
X31100Y-13550D02*
X35948Y-13550D01*
X05488Y-13550D02*
X30711Y-13550D01*
X05488Y-13470D02*
X35948Y-13470D01*
X05488Y-13390D02*
X35948Y-13390D01*
X05488Y-13310D02*
X35948Y-13310D01*
X05488Y-13230D02*
X35948Y-13230D01*
X05488Y-13150D02*
X35948Y-13150D01*
X05488Y-13070D02*
X35948Y-13070D01*
X05488Y-12990D02*
X35948Y-12990D01*
X05488Y-12910D02*
X35948Y-12910D01*
X05488Y-12830D02*
X35948Y-12830D01*
X05488Y-12750D02*
X35948Y-12750D01*
X05488Y-12670D02*
X35948Y-12670D01*
X05488Y-12590D02*
X35948Y-12590D01*
X05488Y-12510D02*
X35948Y-12510D01*
X05488Y-12430D02*
X35948Y-12430D01*
X05488Y-12350D02*
X35948Y-12350D01*
X05488Y-12270D02*
X35948Y-12270D01*
X05488Y-12190D02*
X35948Y-12190D01*
X05488Y-12110D02*
X35948Y-12110D01*
X05488Y-12030D02*
X35948Y-12030D01*
X05488Y-11950D02*
X35948Y-11950D01*
X05488Y-11870D02*
X35948Y-11870D01*
X05488Y-11790D02*
X35948Y-11790D01*
X05488Y-11710D02*
X35948Y-11710D01*
X05488Y-11630D02*
X35948Y-11630D01*
X05488Y-11550D02*
X35948Y-11550D01*
X05488Y-11470D02*
X35948Y-11470D01*
X05488Y-11390D02*
X35948Y-11390D01*
X05488Y-11310D02*
X35948Y-11310D01*
X05488Y-11230D02*
X35948Y-11230D01*
X05488Y-11150D02*
X35948Y-11150D01*
X05488Y-11070D02*
X35948Y-11070D01*
X05488Y-10990D02*
X35948Y-10990D01*
X05488Y-10910D02*
X35948Y-10910D01*
X05488Y-10830D02*
X35948Y-10830D01*
X05488Y-10750D02*
X35948Y-10750D01*
X05488Y-10670D02*
X35948Y-10670D01*
X05488Y-10590D02*
X35948Y-10590D01*
X05488Y-10510D02*
X35948Y-10510D01*
X05488Y-10430D02*
X35948Y-10430D01*
X05488Y-10350D02*
X35948Y-10350D01*
X05488Y-10270D02*
X35948Y-10270D01*
X05488Y-10190D02*
X35948Y-10190D01*
X05488Y-10110D02*
X35948Y-10110D01*
X05488Y-10030D02*
X35948Y-10030D01*
X05488Y-09950D02*
X35948Y-09950D01*
X05488Y-09870D02*
X35948Y-09870D01*
X05488Y-09790D02*
X35948Y-09790D01*
X05488Y-09710D02*
X35948Y-09710D01*
X05488Y-09630D02*
X35948Y-09630D01*
X05488Y-09550D02*
X35948Y-09550D01*
X05488Y-09470D02*
X35948Y-09470D01*
X05488Y-09390D02*
X35948Y-09390D01*
X05488Y-09310D02*
X35948Y-09310D01*
X05488Y-09230D02*
X35948Y-09230D01*
X05488Y-09150D02*
X35948Y-09150D01*
X05488Y-09070D02*
X35948Y-09070D01*
X05488Y-08990D02*
X35948Y-08990D01*
X05488Y-08910D02*
X35948Y-08910D01*
X05488Y-08830D02*
X35948Y-08830D01*
X05488Y-08750D02*
X35948Y-08750D01*
X35121Y-08670D02*
X35948Y-08670D01*
X05488Y-08670D02*
X34148Y-08670D01*
X35314Y-08590D02*
X35948Y-08590D01*
X05488Y-08590D02*
X33955Y-08590D01*
X35507Y-08510D02*
X35948Y-08510D01*
X05488Y-08510D02*
X33762Y-08510D01*
X35701Y-08430D02*
X35948Y-08430D01*
X05488Y-08430D02*
X33570Y-08430D01*
X35824Y-08350D02*
X35948Y-08350D01*
X05488Y-08350D02*
X33445Y-08350D01*
X35904Y-08270D02*
X35948Y-08270D01*
X05488Y-08270D02*
X33365Y-08270D01*
X05488Y-08190D02*
X33285Y-08190D01*
X05488Y-08110D02*
X33205Y-08110D01*
X05488Y-08030D02*
X33125Y-08030D01*
X05488Y-07950D02*
X33045Y-07950D01*
X05488Y-07870D02*
X32965Y-07870D01*
X05488Y-07790D02*
X32910Y-07790D01*
X05488Y-07710D02*
X32876Y-07710D01*
X05488Y-07630D02*
X32843Y-07630D01*
X05488Y-07550D02*
X32810Y-07550D01*
X05488Y-07470D02*
X32777Y-07470D01*
X05488Y-07390D02*
X32744Y-07390D01*
X05488Y-07310D02*
X32711Y-07310D01*
X05488Y-07230D02*
X32678Y-07230D01*
X05488Y-07150D02*
X32645Y-07150D01*
X05488Y-07070D02*
X32622Y-07070D01*
X05488Y-06990D02*
X32622Y-06990D01*
X05488Y-06910D02*
X32622Y-06910D01*
X05488Y-06830D02*
X32622Y-06830D01*
X05488Y-06750D02*
X32622Y-06750D01*
X05488Y-06670D02*
X32622Y-06670D01*
X05488Y-06590D02*
X32622Y-06590D01*
X05488Y-06510D02*
X32622Y-06510D01*
X05488Y-06430D02*
X32622Y-06430D01*
X05488Y-06350D02*
X32622Y-06350D01*
X05488Y-06270D02*
X32631Y-06270D01*
X05488Y-06190D02*
X32664Y-06190D01*
X05488Y-06110D02*
X32697Y-06110D01*
X05488Y-06030D02*
X32730Y-06030D01*
X05488Y-05950D02*
X32764Y-05950D01*
X05488Y-05870D02*
X32797Y-05870D01*
X05488Y-05790D02*
X32830Y-05790D01*
X05488Y-05710D02*
X32863Y-05710D01*
X05488Y-05630D02*
X32896Y-05630D01*
X05488Y-05550D02*
X32929Y-05550D01*
X05488Y-05470D02*
X33009Y-05470D01*
X05488Y-05390D02*
X33089Y-05390D01*
X33090Y-36342D02*
X32927Y-36178D01*
X32927Y-36178D02*
X32642Y-35491D01*
X32642Y-35491D02*
X32588Y-35546D01*
X32588Y-35546D02*
X32172Y-35718D01*
X32172Y-35718D02*
X31722Y-35718D01*
X31722Y-35718D02*
X31306Y-35545D01*
X31306Y-35545D02*
X30988Y-35226D01*
X30988Y-35226D02*
X30816Y-34810D01*
X30816Y-34810D02*
X30816Y-34360D01*
X30816Y-34360D02*
X30989Y-33944D01*
X30989Y-33944D02*
X30993Y-33940D01*
X30993Y-33940D02*
X31308Y-33626D01*
X31308Y-33626D02*
X31724Y-33454D01*
X31724Y-33454D02*
X32174Y-33454D01*
X32174Y-33454D02*
X32590Y-33627D01*
X32590Y-33627D02*
X32908Y-33946D01*
X32908Y-33946D02*
X32929Y-33897D01*
X32929Y-33897D02*
X33496Y-33331D01*
X33496Y-33331D02*
X34236Y-33025D01*
X34236Y-33025D02*
X34605Y-33025D01*
X34605Y-33025D02*
X34605Y-30273D01*
X34605Y-30273D02*
X34351Y-30166D01*
X34351Y-30166D02*
X34095Y-30273D01*
X34095Y-30273D02*
X33815Y-30273D01*
X33815Y-30273D02*
X33557Y-30165D01*
X33557Y-30165D02*
X33360Y-29967D01*
X33360Y-29967D02*
X33253Y-29709D01*
X33253Y-29709D02*
X33253Y-29429D01*
X33253Y-29429D02*
X33359Y-29175D01*
X33359Y-29175D02*
X33253Y-28919D01*
X33253Y-28919D02*
X33253Y-28639D01*
X33253Y-28639D02*
X33357Y-28390D01*
X33357Y-28390D02*
X33253Y-28139D01*
X33253Y-28139D02*
X33253Y-27859D01*
X33253Y-27859D02*
X33359Y-27605D01*
X33359Y-27605D02*
X33253Y-27349D01*
X33253Y-27349D02*
X33253Y-27069D01*
X33253Y-27069D02*
X33359Y-26815D01*
X33359Y-26815D02*
X33253Y-26559D01*
X33253Y-26559D02*
X33253Y-26279D01*
X33253Y-26279D02*
X33359Y-26025D01*
X33359Y-26025D02*
X33253Y-25769D01*
X33253Y-25769D02*
X33253Y-25489D01*
X33253Y-25489D02*
X33357Y-25240D01*
X33357Y-25240D02*
X33253Y-24989D01*
X33253Y-24989D02*
X33253Y-24709D01*
X33253Y-24709D02*
X33359Y-24455D01*
X33359Y-24455D02*
X33253Y-24199D01*
X33253Y-24199D02*
X33253Y-23919D01*
X33253Y-23919D02*
X33359Y-23665D01*
X33359Y-23665D02*
X33253Y-23409D01*
X33253Y-23409D02*
X33253Y-23129D01*
X33253Y-23129D02*
X33359Y-22875D01*
X33359Y-22875D02*
X33253Y-22619D01*
X33253Y-22619D02*
X33253Y-22339D01*
X33253Y-22339D02*
X33357Y-22090D01*
X33357Y-22090D02*
X33253Y-21839D01*
X33253Y-21839D02*
X33253Y-21559D01*
X33253Y-21559D02*
X33359Y-21305D01*
X33359Y-21305D02*
X33253Y-21049D01*
X33253Y-21049D02*
X33253Y-20769D01*
X33253Y-20769D02*
X33359Y-20515D01*
X33359Y-20515D02*
X33253Y-20259D01*
X33253Y-20259D02*
X33253Y-19979D01*
X33253Y-19979D02*
X33359Y-19725D01*
X33359Y-19725D02*
X33253Y-19469D01*
X33253Y-19469D02*
X33253Y-19189D01*
X33253Y-19189D02*
X33357Y-18940D01*
X33357Y-18940D02*
X33253Y-18689D01*
X33253Y-18689D02*
X33253Y-18409D01*
X33253Y-18409D02*
X33359Y-18155D01*
X33359Y-18155D02*
X33253Y-17899D01*
X33253Y-17899D02*
X33253Y-17619D01*
X33253Y-17619D02*
X33359Y-17365D01*
X33359Y-17365D02*
X33253Y-17109D01*
X33253Y-17109D02*
X33253Y-16829D01*
X33253Y-16829D02*
X33359Y-16575D01*
X33359Y-16575D02*
X33253Y-16319D01*
X33253Y-16319D02*
X33253Y-16039D01*
X33253Y-16039D02*
X33357Y-15790D01*
X33357Y-15790D02*
X33253Y-15539D01*
X33253Y-15539D02*
X33253Y-15259D01*
X33253Y-15259D02*
X33361Y-15001D01*
X33361Y-15001D02*
X33510Y-14852D01*
X33510Y-14852D02*
X33463Y-14739D01*
X33463Y-14739D02*
X33451Y-14541D01*
X33451Y-14541D02*
X33516Y-14353D01*
X33516Y-14353D02*
X33606Y-14331D01*
X33606Y-14331D02*
X33885Y-14610D01*
X33885Y-14610D02*
X33956Y-14681D01*
X33956Y-14681D02*
X34027Y-14610D01*
X34027Y-14610D02*
X33956Y-14539D01*
X33956Y-14539D02*
X33677Y-14260D01*
X33677Y-14260D02*
X33699Y-14170D01*
X33699Y-14170D02*
X33827Y-14117D01*
X33827Y-14117D02*
X34025Y-14105D01*
X34025Y-14105D02*
X34197Y-14164D01*
X34197Y-14164D02*
X34349Y-14014D01*
X34349Y-14014D02*
X34607Y-13907D01*
X34607Y-13907D02*
X34887Y-13907D01*
X34887Y-13907D02*
X35145Y-14015D01*
X35145Y-14015D02*
X35342Y-14213D01*
X35342Y-14213D02*
X35449Y-14471D01*
X35449Y-14471D02*
X35449Y-14751D01*
X35449Y-14751D02*
X35342Y-15004D01*
X35342Y-15004D02*
X35449Y-15261D01*
X35449Y-15261D02*
X35449Y-15541D01*
X35449Y-15541D02*
X35344Y-15789D01*
X35344Y-15789D02*
X35449Y-16041D01*
X35449Y-16041D02*
X35449Y-16321D01*
X35449Y-16321D02*
X35342Y-16574D01*
X35342Y-16574D02*
X35449Y-16831D01*
X35449Y-16831D02*
X35449Y-17111D01*
X35449Y-17111D02*
X35342Y-17364D01*
X35342Y-17364D02*
X35449Y-17621D01*
X35449Y-17621D02*
X35449Y-17901D01*
X35449Y-17901D02*
X35342Y-18154D01*
X35342Y-18154D02*
X35449Y-18411D01*
X35449Y-18411D02*
X35449Y-18691D01*
X35449Y-18691D02*
X35344Y-18939D01*
X35344Y-18939D02*
X35449Y-19191D01*
X35449Y-19191D02*
X35449Y-19471D01*
X35449Y-19471D02*
X35342Y-19724D01*
X35342Y-19724D02*
X35449Y-19981D01*
X35449Y-19981D02*
X35449Y-20261D01*
X35449Y-20261D02*
X35342Y-20514D01*
X35342Y-20514D02*
X35449Y-20771D01*
X35449Y-20771D02*
X35449Y-21051D01*
X35449Y-21051D02*
X35342Y-21304D01*
X35342Y-21304D02*
X35449Y-21561D01*
X35449Y-21561D02*
X35449Y-21841D01*
X35449Y-21841D02*
X35344Y-22089D01*
X35344Y-22089D02*
X35449Y-22341D01*
X35449Y-22341D02*
X35449Y-22621D01*
X35449Y-22621D02*
X35341Y-22879D01*
X35341Y-22879D02*
X35191Y-23027D01*
X35191Y-23027D02*
X35239Y-23141D01*
X35239Y-23141D02*
X35251Y-23339D01*
X35251Y-23339D02*
X35186Y-23527D01*
X35186Y-23527D02*
X35096Y-23549D01*
X35096Y-23549D02*
X34817Y-23270D01*
X34817Y-23270D02*
X34746Y-23199D01*
X34746Y-23199D02*
X34675Y-23270D01*
X34675Y-23270D02*
X34746Y-23341D01*
X34746Y-23341D02*
X35025Y-23620D01*
X35025Y-23620D02*
X35013Y-23664D01*
X35013Y-23664D02*
X35025Y-23710D01*
X35025Y-23710D02*
X34746Y-23989D01*
X34746Y-23989D02*
X34675Y-24060D01*
X34675Y-24060D02*
X34746Y-24131D01*
X34746Y-24131D02*
X34817Y-24060D01*
X34817Y-24060D02*
X35096Y-23781D01*
X35096Y-23781D02*
X35186Y-23803D01*
X35186Y-23803D02*
X35239Y-23931D01*
X35239Y-23931D02*
X35251Y-24129D01*
X35251Y-24129D02*
X35191Y-24301D01*
X35191Y-24301D02*
X35342Y-24453D01*
X35342Y-24453D02*
X35449Y-24711D01*
X35449Y-24711D02*
X35449Y-24991D01*
X35449Y-24991D02*
X35344Y-25239D01*
X35344Y-25239D02*
X35449Y-25491D01*
X35449Y-25491D02*
X35449Y-25771D01*
X35449Y-25771D02*
X35342Y-26024D01*
X35342Y-26024D02*
X35449Y-26281D01*
X35449Y-26281D02*
X35449Y-26561D01*
X35449Y-26561D02*
X35342Y-26814D01*
X35342Y-26814D02*
X35449Y-27071D01*
X35449Y-27071D02*
X35449Y-27351D01*
X35449Y-27351D02*
X35342Y-27604D01*
X35342Y-27604D02*
X35449Y-27861D01*
X35449Y-27861D02*
X35449Y-28141D01*
X35449Y-28141D02*
X35344Y-28389D01*
X35344Y-28389D02*
X35449Y-28641D01*
X35449Y-28641D02*
X35449Y-28921D01*
X35449Y-28921D02*
X35342Y-29174D01*
X35342Y-29174D02*
X35449Y-29431D01*
X35449Y-29431D02*
X35449Y-29711D01*
X35449Y-29711D02*
X35341Y-29969D01*
X35341Y-29969D02*
X35143Y-30166D01*
X35143Y-30166D02*
X34885Y-30273D01*
X34885Y-30273D02*
X34605Y-30273D01*
X34605Y-30273D02*
X34605Y-33025D01*
X34605Y-33025D02*
X35037Y-33026D01*
X35037Y-33026D02*
X35777Y-33333D01*
X35777Y-33333D02*
X35948Y-33504D01*
X35948Y-33504D02*
X35948Y-08226D01*
X35948Y-08226D02*
X35774Y-08400D01*
X35774Y-08400D02*
X35034Y-08706D01*
X35034Y-08706D02*
X34233Y-08705D01*
X34233Y-08705D02*
X33493Y-08398D01*
X33493Y-08398D02*
X32927Y-07831D01*
X32927Y-07831D02*
X32621Y-07091D01*
X32621Y-07091D02*
X32622Y-06290D01*
X32622Y-06290D02*
X32929Y-05550D01*
X32929Y-05550D02*
X33089Y-05390D01*
X33089Y-05390D02*
X05488Y-05390D01*
X05488Y-05390D02*
X05488Y-36342D01*
X05488Y-36342D02*
X08947Y-36342D01*
X08947Y-36342D02*
X08947Y-28789D01*
X08947Y-28789D02*
X08831Y-28741D01*
X08831Y-28741D02*
X08097Y-28741D01*
X08097Y-28741D02*
X07981Y-28789D01*
X07981Y-28789D02*
X07766Y-28789D01*
X07766Y-28789D02*
X07567Y-28706D01*
X07567Y-28706D02*
X07415Y-28554D01*
X07415Y-28554D02*
X07333Y-28355D01*
X07333Y-28355D02*
X07333Y-28140D01*
X07333Y-28140D02*
X07416Y-27941D01*
X07416Y-27941D02*
X07568Y-27789D01*
X07568Y-27789D02*
X07767Y-27707D01*
X07767Y-27707D02*
X07982Y-27707D01*
X07982Y-27707D02*
X08097Y-27755D01*
X08097Y-27755D02*
X08831Y-27755D01*
X08831Y-27755D02*
X08948Y-27707D01*
X08948Y-27707D02*
X09163Y-27707D01*
X09163Y-27707D02*
X09362Y-27790D01*
X09362Y-27790D02*
X09514Y-27942D01*
X09514Y-27942D02*
X09596Y-28141D01*
X09596Y-28141D02*
X09596Y-28356D01*
X09596Y-28356D02*
X09513Y-28555D01*
X09513Y-28555D02*
X09361Y-28707D01*
X09361Y-28707D02*
X09162Y-28789D01*
X09162Y-28789D02*
X08947Y-28789D01*
X08947Y-28789D02*
X08947Y-36342D01*
X08947Y-36342D02*
X12746Y-36342D01*
X12746Y-36342D02*
X12746Y-36309D01*
X12746Y-36309D02*
X12794Y-36193D01*
X12794Y-36193D02*
X12793Y-31004D01*
X12793Y-31004D02*
X12832Y-30815D01*
X12832Y-30815D02*
X12938Y-30655D01*
X12938Y-30655D02*
X13779Y-29814D01*
X13779Y-29814D02*
X12697Y-29814D01*
X12697Y-29814D02*
X12474Y-29770D01*
X12474Y-29770D02*
X12285Y-29644D01*
X12285Y-29644D02*
X12159Y-29455D01*
X12159Y-29455D02*
X12115Y-29232D01*
X12115Y-29232D02*
X12159Y-29009D01*
X12159Y-29009D02*
X12285Y-28820D01*
X12285Y-28820D02*
X12474Y-28694D01*
X12474Y-28694D02*
X12697Y-28650D01*
X12697Y-28650D02*
X19192Y-28650D01*
X19192Y-28650D02*
X19192Y-28215D01*
X19192Y-28215D02*
X19144Y-28099D01*
X19144Y-28099D02*
X19144Y-27884D01*
X19144Y-27884D02*
X19227Y-27685D01*
X19227Y-27685D02*
X19379Y-27533D01*
X19379Y-27533D02*
X19578Y-27451D01*
X19578Y-27451D02*
X19793Y-27451D01*
X19793Y-27451D02*
X19992Y-27534D01*
X19992Y-27534D02*
X20144Y-27686D01*
X20144Y-27686D02*
X20226Y-27885D01*
X20226Y-27885D02*
X20226Y-28100D01*
X20226Y-28100D02*
X20178Y-28215D01*
X20178Y-28215D02*
X20178Y-28650D01*
X20178Y-28650D02*
X30269Y-28650D01*
X30269Y-28650D02*
X31585Y-27334D01*
X31585Y-27334D02*
X31585Y-15855D01*
X31585Y-15855D02*
X31386Y-15772D01*
X31386Y-15772D02*
X31234Y-15620D01*
X31234Y-15620D02*
X31152Y-15421D01*
X31152Y-15421D02*
X31152Y-15206D01*
X31152Y-15206D02*
X31200Y-15090D01*
X31200Y-15090D02*
X31200Y-15047D01*
X31200Y-15047D02*
X30713Y-14561D01*
X30713Y-14561D02*
X30598Y-14513D01*
X30598Y-14513D02*
X30446Y-14361D01*
X30446Y-14361D02*
X30364Y-14162D01*
X30364Y-14162D02*
X30364Y-13947D01*
X30364Y-13947D02*
X30447Y-13748D01*
X30447Y-13748D02*
X30599Y-13596D01*
X30599Y-13596D02*
X30798Y-13514D01*
X30798Y-13514D02*
X31013Y-13514D01*
X31013Y-13514D02*
X31212Y-13597D01*
X31212Y-13597D02*
X31364Y-13749D01*
X31364Y-13749D02*
X31411Y-13863D01*
X31411Y-13863D02*
X32042Y-14494D01*
X32042Y-14494D02*
X32148Y-14654D01*
X32148Y-14654D02*
X32186Y-14843D01*
X32186Y-14843D02*
X32186Y-15090D01*
X32186Y-15090D02*
X32234Y-15207D01*
X32234Y-15207D02*
X32234Y-15422D01*
X32234Y-15422D02*
X32151Y-15621D01*
X32151Y-15621D02*
X31999Y-15773D01*
X31999Y-15773D02*
X31800Y-15855D01*
X31800Y-15855D02*
X31585Y-15855D01*
X31585Y-15855D02*
X31585Y-27334D01*
X31585Y-27334D02*
X31871Y-27049D01*
X31871Y-27049D02*
X32060Y-26923D01*
X32060Y-26923D02*
X32282Y-26878D01*
X32282Y-26878D02*
X32505Y-26923D01*
X32505Y-26923D02*
X32694Y-27049D01*
X32694Y-27049D02*
X32820Y-27238D01*
X32820Y-27238D02*
X32865Y-27461D01*
X32865Y-27461D02*
X32820Y-27683D01*
X32820Y-27683D02*
X32694Y-27872D01*
X32694Y-27872D02*
X31177Y-29388D01*
X31177Y-29388D02*
X31207Y-29418D01*
X31207Y-29418D02*
X31244Y-29508D01*
X31244Y-29508D02*
X31970Y-30234D01*
X31970Y-30234D02*
X32079Y-30398D01*
X32079Y-30398D02*
X32117Y-30590D01*
X32117Y-30590D02*
X32116Y-31851D01*
X32116Y-31851D02*
X32079Y-32043D01*
X32079Y-32043D02*
X31970Y-32207D01*
X31970Y-32207D02*
X31967Y-32208D01*
X31967Y-32208D02*
X31380Y-32797D01*
X31380Y-32797D02*
X31217Y-32906D01*
X31217Y-32906D02*
X31180Y-32913D01*
X31180Y-32913D02*
X31038Y-33055D01*
X31038Y-33055D02*
X30989Y-33074D01*
X30989Y-33074D02*
X31010Y-33095D01*
X31010Y-33095D02*
X30993Y-33112D01*
X30993Y-33112D02*
X31085Y-33136D01*
X31085Y-33136D02*
X31142Y-33273D01*
X31142Y-33273D02*
X31153Y-33479D01*
X31153Y-33479D02*
X31085Y-33674D01*
X31085Y-33674D02*
X30993Y-33698D01*
X30993Y-33698D02*
X30700Y-33405D01*
X30700Y-33405D02*
X30629Y-33334D01*
X30629Y-33334D02*
X30817Y-33145D01*
X30817Y-33145D02*
X30816Y-33146D01*
X30816Y-33146D02*
X30629Y-33334D01*
X30629Y-33334D02*
X30558Y-33405D01*
X30558Y-33405D02*
X30629Y-33476D01*
X30629Y-33476D02*
X30922Y-33769D01*
X30922Y-33769D02*
X30898Y-33861D01*
X30898Y-33861D02*
X30761Y-33918D01*
X30761Y-33918D02*
X30555Y-33929D01*
X30555Y-33929D02*
X30367Y-33863D01*
X30367Y-33863D02*
X30211Y-34019D01*
X30211Y-34019D02*
X30069Y-34077D01*
X30069Y-34077D02*
X30251Y-34260D01*
X30251Y-34260D02*
X30423Y-34676D01*
X30423Y-34676D02*
X30423Y-35126D01*
X30423Y-35126D02*
X30250Y-35542D01*
X30250Y-35542D02*
X29931Y-35860D01*
X29931Y-35860D02*
X29515Y-36032D01*
X29515Y-36032D02*
X29065Y-36032D01*
X29065Y-36032D02*
X28649Y-35859D01*
X28649Y-35859D02*
X28331Y-35540D01*
X28331Y-35540D02*
X28159Y-35124D01*
X28159Y-35124D02*
X28159Y-34674D01*
X28159Y-34674D02*
X28332Y-34258D01*
X28332Y-34258D02*
X28512Y-34077D01*
X28512Y-34077D02*
X28369Y-34018D01*
X28369Y-34018D02*
X28366Y-34015D01*
X28366Y-34015D02*
X28362Y-34019D01*
X28362Y-34019D02*
X28096Y-34129D01*
X28096Y-34129D02*
X27808Y-34129D01*
X27808Y-34129D02*
X27616Y-34049D01*
X27616Y-34049D02*
X27746Y-34362D01*
X27746Y-34362D02*
X27746Y-34812D01*
X27746Y-34812D02*
X27573Y-35228D01*
X27573Y-35228D02*
X27254Y-35546D01*
X27254Y-35546D02*
X26838Y-35718D01*
X26838Y-35718D02*
X26388Y-35718D01*
X26388Y-35718D02*
X25972Y-35545D01*
X25972Y-35545D02*
X25654Y-35226D01*
X25654Y-35226D02*
X25482Y-34810D01*
X25482Y-34810D02*
X25482Y-34360D01*
X25482Y-34360D02*
X25655Y-33944D01*
X25655Y-33944D02*
X25974Y-33626D01*
X25974Y-33626D02*
X26390Y-33454D01*
X26390Y-33454D02*
X26840Y-33454D01*
X26840Y-33454D02*
X27256Y-33627D01*
X27256Y-33627D02*
X27265Y-33636D01*
X27265Y-33636D02*
X27229Y-33548D01*
X27229Y-33548D02*
X27229Y-33260D01*
X27229Y-33260D02*
X27340Y-32994D01*
X27340Y-32994D02*
X27421Y-32912D01*
X27421Y-32912D02*
X27339Y-32830D01*
X27339Y-32830D02*
X27229Y-32564D01*
X27229Y-32564D02*
X27229Y-32373D01*
X27229Y-32373D02*
X23806Y-32373D01*
X23806Y-32373D02*
X22927Y-32643D01*
X22927Y-32643D02*
X22701Y-32667D01*
X22701Y-32667D02*
X22483Y-32602D01*
X22483Y-32602D02*
X22315Y-32465D01*
X22315Y-32465D02*
X22275Y-32506D01*
X22275Y-32506D02*
X22076Y-32588D01*
X22076Y-32588D02*
X21861Y-32588D01*
X21861Y-32588D02*
X21745Y-32540D01*
X21745Y-32540D02*
X16286Y-32540D01*
X16286Y-32540D02*
X16170Y-32588D01*
X16170Y-32588D02*
X15955Y-32588D01*
X15955Y-32588D02*
X15839Y-32540D01*
X15839Y-32540D02*
X14763Y-32540D01*
X14763Y-32540D02*
X14575Y-32502D01*
X14575Y-32502D02*
X14415Y-32396D01*
X14415Y-32396D02*
X14337Y-32317D01*
X14337Y-32317D02*
X14221Y-32269D01*
X14221Y-32269D02*
X14069Y-32117D01*
X14069Y-32117D02*
X13987Y-31918D01*
X13987Y-31918D02*
X13987Y-31703D01*
X13987Y-31703D02*
X14070Y-31504D01*
X14070Y-31504D02*
X14222Y-31352D01*
X14222Y-31352D02*
X14421Y-31270D01*
X14421Y-31270D02*
X14636Y-31270D01*
X14636Y-31270D02*
X14835Y-31353D01*
X14835Y-31353D02*
X14987Y-31505D01*
X14987Y-31505D02*
X15007Y-31554D01*
X15007Y-31554D02*
X15839Y-31554D01*
X15839Y-31554D02*
X15956Y-31506D01*
X15956Y-31506D02*
X16171Y-31506D01*
X16171Y-31506D02*
X16286Y-31554D01*
X16286Y-31554D02*
X21745Y-31554D01*
X21745Y-31554D02*
X21862Y-31506D01*
X21862Y-31506D02*
X22077Y-31506D01*
X22077Y-31506D02*
X22276Y-31589D01*
X22276Y-31589D02*
X22358Y-31671D01*
X22358Y-31671D02*
X22385Y-31638D01*
X22385Y-31638D02*
X22585Y-31531D01*
X22585Y-31531D02*
X23548Y-31234D01*
X23548Y-31234D02*
X23641Y-31224D01*
X23641Y-31224D02*
X23720Y-31209D01*
X23720Y-31209D02*
X24845Y-31209D01*
X24845Y-31209D02*
X24856Y-31155D01*
X24856Y-31155D02*
X24982Y-30966D01*
X24982Y-30966D02*
X25171Y-30840D01*
X25171Y-30840D02*
X25394Y-30796D01*
X25394Y-30796D02*
X25617Y-30840D01*
X25617Y-30840D02*
X25806Y-30966D01*
X25806Y-30966D02*
X25932Y-31155D01*
X25932Y-31155D02*
X25942Y-31209D01*
X25942Y-31209D02*
X28804Y-31209D01*
X28804Y-31209D02*
X28452Y-30857D01*
X28452Y-30857D02*
X27244Y-30857D01*
X27244Y-30857D02*
X27052Y-30819D01*
X27052Y-30819D02*
X26888Y-30710D01*
X26888Y-30710D02*
X26674Y-30496D01*
X26674Y-30496D02*
X26583Y-30458D01*
X26583Y-30458D02*
X26431Y-30306D01*
X26431Y-30306D02*
X26349Y-30107D01*
X26349Y-30107D02*
X26349Y-29892D01*
X26349Y-29892D02*
X26381Y-29814D01*
X26381Y-29814D02*
X17191Y-29814D01*
X17191Y-29814D02*
X17273Y-30011D01*
X17273Y-30011D02*
X17273Y-30226D01*
X17273Y-30226D02*
X17190Y-30425D01*
X17190Y-30425D02*
X17038Y-30577D01*
X17038Y-30577D02*
X16839Y-30659D01*
X16839Y-30659D02*
X16624Y-30659D01*
X16624Y-30659D02*
X16508Y-30611D01*
X16508Y-30611D02*
X14377Y-30611D01*
X14377Y-30611D02*
X13780Y-31208D01*
X13780Y-31208D02*
X13780Y-36193D01*
X13780Y-36193D02*
X13828Y-36310D01*
X13828Y-36310D02*
X13828Y-36342D01*
X13828Y-36342D02*
X22386Y-36342D01*
X22386Y-36342D02*
X22386Y-35107D01*
X22386Y-35107D02*
X22140Y-35005D01*
X22140Y-35005D02*
X21951Y-34816D01*
X21951Y-34816D02*
X21849Y-34569D01*
X21849Y-34569D02*
X21849Y-34302D01*
X21849Y-34302D02*
X21951Y-34056D01*
X21951Y-34056D02*
X22140Y-33867D01*
X22140Y-33867D02*
X22387Y-33765D01*
X22387Y-33765D02*
X22654Y-33765D01*
X22654Y-33765D02*
X22900Y-33867D01*
X22900Y-33867D02*
X23089Y-34056D01*
X23089Y-34056D02*
X23191Y-34303D01*
X23191Y-34303D02*
X23191Y-34570D01*
X23191Y-34570D02*
X23089Y-34816D01*
X23089Y-34816D02*
X22900Y-35005D01*
X22900Y-35005D02*
X22653Y-35107D01*
X22653Y-35107D02*
X22386Y-35107D01*
X22386Y-35107D02*
X22386Y-36342D01*
X22386Y-36342D02*
X24118Y-36342D01*
X24118Y-36342D02*
X24118Y-35107D01*
X24118Y-35107D02*
X23872Y-35005D01*
X23872Y-35005D02*
X23683Y-34816D01*
X23683Y-34816D02*
X23581Y-34569D01*
X23581Y-34569D02*
X23581Y-34302D01*
X23581Y-34302D02*
X23683Y-34056D01*
X23683Y-34056D02*
X23872Y-33867D01*
X23872Y-33867D02*
X24119Y-33765D01*
X24119Y-33765D02*
X24386Y-33765D01*
X24386Y-33765D02*
X24632Y-33867D01*
X24632Y-33867D02*
X24821Y-34056D01*
X24821Y-34056D02*
X24923Y-34303D01*
X24923Y-34303D02*
X24923Y-34570D01*
X24923Y-34570D02*
X24821Y-34816D01*
X24821Y-34816D02*
X24632Y-35005D01*
X24632Y-35005D02*
X24385Y-35107D01*
X24385Y-35107D02*
X24118Y-35107D01*
X24118Y-35107D02*
X24118Y-36342D01*
X24118Y-36342D02*
X33090Y-36342D01*
M02*
