G04 (created by PCBnew (20090216-final)) date Wed 20 Oct 2010 02:22:37 PM COT*
G01*
G70*
G90*
%MOIN*%
G04 Gerber Fmt 3.4, Leading zero omitted, Abs format*
%FSLAX34Y34*%
G04 APERTURE LIST*
%ADD10C,0.015000*%
%ADD11C,0.052000*%
%ADD12C,0.056000*%
%ADD13C,0.137700*%
%ADD14C,0.314000*%
%ADD15C,0.045400*%
%ADD16C,0.019700*%
%ADD17C,0.027600*%
%ADD18C,0.009800*%
%ADD19C,0.011800*%
%ADD20C,0.010000*%
%ADD21R,0.021700X0.063000*%
%ADD22R,0.086600X0.090600*%
%ADD23R,0.044000X0.034000*%
%ADD24R,0.010000X0.054000*%
%ADD25R,0.090000X0.078000*%
%ADD26R,0.180000X0.080000*%
%ADD27R,0.034000X0.024000*%
%ADD28R,0.060000X0.080000*%
%ADD29R,0.080000X0.060000*%
%ADD30R,0.034000X0.044000*%
%ADD31R,0.034000X0.054000*%
%ADD32C,0.015700*%
%ADD33C,0.007900*%
%ADD34C,0.009900*%
%ADD35C,0.008000*%
%ADD36C,0.005000*%
%ADD37C,0.006000*%
%ADD38C,0.001000*%
%ADD39C,0.002000*%
%ADD40C,0.003500*%
%ADD41C,0.003900*%
%ADD42C,0.012000*%
G04 APERTURE END LIST*
G54D10*
X05019Y-04921D02*
X36417Y-04921D01*
X05019Y-05118D02*
X05019Y-04921D01*
X05019Y-36811D02*
X05019Y-05118D01*
X36417Y-36811D02*
X05019Y-36811D01*
X36417Y-04921D02*
X36417Y-36811D01*
G54D35*
X34206Y-13860D02*
X33706Y-13860D01*
X33706Y-13860D02*
X33956Y-14110D01*
X33956Y-14110D02*
X34206Y-13860D01*
X35416Y-14240D02*
X35416Y-30430D01*
X35416Y-30430D02*
X33396Y-30430D01*
X33396Y-30430D02*
X33396Y-14230D01*
X33396Y-14230D02*
X33566Y-14240D01*
X33566Y-14240D02*
X35406Y-14240D01*
G54D36*
X26536Y-36751D02*
X32046Y-36751D01*
X32046Y-36751D02*
X32046Y-34979D01*
X32046Y-34979D02*
X32046Y-31712D01*
X32046Y-31712D02*
X26536Y-31732D01*
X26536Y-31732D02*
X26536Y-34193D01*
X26536Y-34193D02*
X26536Y-34979D01*
X26536Y-34979D02*
X26536Y-36751D01*
X26536Y-34979D02*
X26654Y-34979D01*
X26654Y-34979D02*
X26654Y-34193D01*
X26654Y-34193D02*
X26536Y-34193D01*
X32046Y-34979D02*
X31928Y-34979D01*
X31928Y-34979D02*
X31928Y-34193D01*
X31928Y-34193D02*
X32027Y-34193D01*
X22230Y-33244D02*
X22522Y-33244D01*
X24236Y-33256D02*
X24536Y-33256D01*
X21694Y-33952D02*
X21694Y-35012D01*
X25078Y-33952D02*
X25078Y-35012D01*
X21698Y-36688D02*
X25082Y-36688D01*
X21694Y-36112D02*
X21694Y-36772D01*
X25078Y-36112D02*
X25078Y-36772D01*
G54D37*
X06076Y-34454D02*
X06076Y-34634D01*
X06076Y-34634D02*
X06776Y-34634D01*
X06776Y-34634D02*
X06776Y-34454D01*
X06776Y-34454D02*
X06076Y-34454D01*
X06696Y-35384D02*
X06776Y-35384D01*
X06776Y-35384D02*
X06776Y-34184D01*
X06776Y-34184D02*
X06726Y-34184D01*
X06726Y-34184D02*
X06726Y-34454D01*
X06726Y-34454D02*
X06126Y-34454D01*
X06126Y-34454D02*
X06126Y-34184D01*
X06126Y-34184D02*
X06076Y-34184D01*
X06076Y-34184D02*
X06076Y-35384D01*
X06076Y-35384D02*
X06146Y-35384D01*
G54D38*
X23314Y-28637D02*
X13944Y-28637D01*
X13944Y-28637D02*
X13944Y-31157D01*
X13944Y-31157D02*
X23994Y-31157D01*
X23994Y-31157D02*
X23994Y-28637D01*
X23994Y-28637D02*
X23314Y-28637D01*
G54D35*
X09975Y-29314D02*
X09875Y-29314D01*
X09875Y-29314D02*
X09875Y-31314D01*
X09875Y-31314D02*
X09975Y-31314D01*
X11875Y-31314D02*
X11975Y-31314D01*
X11975Y-31314D02*
X11975Y-29314D01*
X11975Y-29314D02*
X11875Y-29314D01*
G54D37*
X19818Y-34888D02*
X19768Y-34888D01*
X19768Y-34888D02*
X19768Y-35488D01*
X19768Y-35488D02*
X19818Y-35488D01*
X20318Y-34888D02*
X20368Y-34888D01*
X20368Y-34888D02*
X20368Y-35488D01*
X20368Y-35488D02*
X20318Y-35488D01*
G54D36*
X30693Y-25632D02*
X30693Y-26532D01*
X30693Y-26532D02*
X31343Y-26532D01*
X32043Y-25632D02*
X32693Y-25632D01*
X32693Y-25632D02*
X32693Y-26532D01*
X32693Y-26532D02*
X32043Y-26532D01*
X31343Y-25632D02*
X30693Y-25632D01*
X30693Y-24451D02*
X30693Y-25351D01*
X30693Y-25351D02*
X31343Y-25351D01*
X32043Y-24451D02*
X32693Y-24451D01*
X32693Y-24451D02*
X32693Y-25351D01*
X32693Y-25351D02*
X32043Y-25351D01*
X31343Y-24451D02*
X30693Y-24451D01*
X18251Y-27377D02*
X19151Y-27377D01*
X19151Y-27377D02*
X19151Y-26727D01*
X18251Y-26027D02*
X18251Y-25377D01*
X18251Y-25377D02*
X19151Y-25377D01*
X19151Y-25377D02*
X19151Y-26027D01*
X18251Y-26727D02*
X18251Y-27377D01*
X16774Y-27377D02*
X17674Y-27377D01*
X17674Y-27377D02*
X17674Y-26727D01*
X16774Y-26027D02*
X16774Y-25377D01*
X16774Y-25377D02*
X17674Y-25377D01*
X17674Y-25377D02*
X17674Y-26027D01*
X16774Y-26727D02*
X16774Y-27377D01*
X15396Y-27377D02*
X16296Y-27377D01*
X16296Y-27377D02*
X16296Y-26727D01*
X15396Y-26027D02*
X15396Y-25377D01*
X15396Y-25377D02*
X16296Y-25377D01*
X16296Y-25377D02*
X16296Y-26027D01*
X15396Y-26727D02*
X15396Y-27377D01*
X14018Y-27377D02*
X14918Y-27377D01*
X14918Y-27377D02*
X14918Y-26727D01*
X14018Y-26027D02*
X14018Y-25377D01*
X14018Y-25377D02*
X14918Y-25377D01*
X14918Y-25377D02*
X14918Y-26027D01*
X14018Y-26727D02*
X14018Y-27377D01*
X17886Y-35834D02*
X18786Y-35834D01*
X18786Y-35834D02*
X18786Y-35184D01*
X17886Y-34484D02*
X17886Y-33834D01*
X17886Y-33834D02*
X18786Y-33834D01*
X18786Y-33834D02*
X18786Y-34484D01*
X17886Y-35184D02*
X17886Y-35834D01*
X16410Y-35832D02*
X17310Y-35832D01*
X17310Y-35832D02*
X17310Y-35182D01*
X16410Y-34482D02*
X16410Y-33832D01*
X16410Y-33832D02*
X17310Y-33832D01*
X17310Y-33832D02*
X17310Y-34482D01*
X16410Y-35182D02*
X16410Y-35832D01*
X15229Y-35832D02*
X16129Y-35832D01*
X16129Y-35832D02*
X16129Y-35182D01*
X15229Y-34482D02*
X15229Y-33832D01*
X15229Y-33832D02*
X16129Y-33832D01*
X16129Y-33832D02*
X16129Y-34482D01*
X15229Y-35182D02*
X15229Y-35832D01*
X14048Y-35832D02*
X14948Y-35832D01*
X14948Y-35832D02*
X14948Y-35182D01*
X14048Y-34482D02*
X14048Y-33832D01*
X14048Y-33832D02*
X14948Y-33832D01*
X14948Y-33832D02*
X14948Y-34482D01*
X14048Y-35182D02*
X14048Y-35832D01*
X12866Y-35832D02*
X13766Y-35832D01*
X13766Y-35832D02*
X13766Y-35182D01*
X12866Y-34482D02*
X12866Y-33832D01*
X12866Y-33832D02*
X13766Y-33832D01*
X13766Y-33832D02*
X13766Y-34482D01*
X12866Y-35182D02*
X12866Y-35832D01*
X09520Y-35832D02*
X10420Y-35832D01*
X10420Y-35832D02*
X10420Y-35182D01*
X09520Y-34482D02*
X09520Y-33832D01*
X09520Y-33832D02*
X10420Y-33832D01*
X10420Y-33832D02*
X10420Y-34482D01*
X09520Y-35182D02*
X09520Y-35832D01*
X11685Y-35832D02*
X12585Y-35832D01*
X12585Y-35832D02*
X12585Y-35182D01*
X11685Y-34482D02*
X11685Y-33832D01*
X11685Y-33832D02*
X12585Y-33832D01*
X12585Y-33832D02*
X12585Y-34482D01*
X11685Y-35182D02*
X11685Y-35832D01*
X10603Y-35832D02*
X11503Y-35832D01*
X11503Y-35832D02*
X11503Y-35182D01*
X10603Y-34482D02*
X10603Y-33832D01*
X10603Y-33832D02*
X11503Y-33832D01*
X11503Y-33832D02*
X11503Y-34482D01*
X10603Y-35182D02*
X10603Y-35832D01*
X12640Y-27377D02*
X13540Y-27377D01*
X13540Y-27377D02*
X13540Y-26727D01*
X12640Y-26027D02*
X12640Y-25377D01*
X12640Y-25377D02*
X13540Y-25377D01*
X13540Y-25377D02*
X13540Y-26027D01*
X12640Y-26727D02*
X12640Y-27377D01*
X08437Y-35832D02*
X09337Y-35832D01*
X09337Y-35832D02*
X09337Y-35182D01*
X08437Y-34482D02*
X08437Y-33832D01*
X08437Y-33832D02*
X09337Y-33832D01*
X09337Y-33832D02*
X09337Y-34482D01*
X08437Y-35182D02*
X08437Y-35832D01*
X07355Y-35832D02*
X08255Y-35832D01*
X08255Y-35832D02*
X08255Y-35182D01*
X07355Y-34482D02*
X07355Y-33832D01*
X07355Y-33832D02*
X08255Y-33832D01*
X08255Y-33832D02*
X08255Y-34482D01*
X07355Y-35182D02*
X07355Y-35832D01*
X25181Y-21203D02*
X25181Y-22103D01*
X25181Y-22103D02*
X25831Y-22103D01*
X26531Y-21203D02*
X27181Y-21203D01*
X27181Y-21203D02*
X27181Y-22103D01*
X27181Y-22103D02*
X26531Y-22103D01*
X25831Y-21203D02*
X25181Y-21203D01*
X25181Y-20022D02*
X25181Y-20922D01*
X25181Y-20922D02*
X25831Y-20922D01*
X26531Y-20022D02*
X27181Y-20022D01*
X27181Y-20022D02*
X27181Y-20922D01*
X27181Y-20922D02*
X26531Y-20922D01*
X25831Y-20022D02*
X25181Y-20022D01*
X25181Y-18841D02*
X25181Y-19741D01*
X25181Y-19741D02*
X25831Y-19741D01*
X26531Y-18841D02*
X27181Y-18841D01*
X27181Y-18841D02*
X27181Y-19741D01*
X27181Y-19741D02*
X26531Y-19741D01*
X25831Y-18841D02*
X25181Y-18841D01*
X25181Y-17660D02*
X25181Y-18560D01*
X25181Y-18560D02*
X25831Y-18560D01*
X26531Y-17660D02*
X27181Y-17660D01*
X27181Y-17660D02*
X27181Y-18560D01*
X27181Y-18560D02*
X26531Y-18560D01*
X25831Y-17660D02*
X25181Y-17660D01*
X25181Y-16479D02*
X25181Y-17379D01*
X25181Y-17379D02*
X25831Y-17379D01*
X26531Y-16479D02*
X27181Y-16479D01*
X27181Y-16479D02*
X27181Y-17379D01*
X27181Y-17379D02*
X26531Y-17379D01*
X25831Y-16479D02*
X25181Y-16479D01*
X25181Y-15297D02*
X25181Y-16197D01*
X25181Y-16197D02*
X25831Y-16197D01*
X26531Y-15297D02*
X27181Y-15297D01*
X27181Y-15297D02*
X27181Y-16197D01*
X27181Y-16197D02*
X26531Y-16197D01*
X25831Y-15297D02*
X25181Y-15297D01*
X25181Y-14116D02*
X25181Y-15016D01*
X25181Y-15016D02*
X25831Y-15016D01*
X26531Y-14116D02*
X27181Y-14116D01*
X27181Y-14116D02*
X27181Y-15016D01*
X27181Y-15016D02*
X26531Y-15016D01*
X25831Y-14116D02*
X25181Y-14116D01*
X25220Y-12857D02*
X25220Y-13757D01*
X25220Y-13757D02*
X25870Y-13757D01*
X26570Y-12857D02*
X27220Y-12857D01*
X27220Y-12857D02*
X27220Y-13757D01*
X27220Y-13757D02*
X26570Y-13757D01*
X25870Y-12857D02*
X25220Y-12857D01*
X09925Y-27798D02*
X09925Y-28698D01*
X09925Y-28698D02*
X10575Y-28698D01*
X11275Y-27798D02*
X11925Y-27798D01*
X11925Y-27798D02*
X11925Y-28698D01*
X11925Y-28698D02*
X11275Y-28698D01*
X10575Y-27798D02*
X09925Y-27798D01*
X28599Y-26952D02*
X27699Y-26952D01*
X27699Y-26952D02*
X27699Y-27602D01*
X28599Y-28302D02*
X28599Y-28952D01*
X28599Y-28952D02*
X27699Y-28952D01*
X27699Y-28952D02*
X27699Y-28302D01*
X28599Y-27602D02*
X28599Y-26952D01*
X30174Y-26952D02*
X29274Y-26952D01*
X29274Y-26952D02*
X29274Y-27602D01*
X30174Y-28302D02*
X30174Y-28952D01*
X30174Y-28952D02*
X29274Y-28952D01*
X29274Y-28952D02*
X29274Y-28302D01*
X30174Y-27602D02*
X30174Y-26952D01*
X27699Y-31314D02*
X28599Y-31314D01*
X28599Y-31314D02*
X28599Y-30664D01*
X27699Y-29964D02*
X27699Y-29314D01*
X27699Y-29314D02*
X28599Y-29314D01*
X28599Y-29314D02*
X28599Y-29964D01*
X27699Y-30664D02*
X27699Y-31314D01*
X29274Y-31314D02*
X30174Y-31314D01*
X30174Y-31314D02*
X30174Y-30664D01*
X29274Y-29964D02*
X29274Y-29314D01*
X29274Y-29314D02*
X30174Y-29314D01*
X30174Y-29314D02*
X30174Y-29964D01*
X29274Y-30664D02*
X29274Y-31314D01*
X12162Y-25377D02*
X11262Y-25377D01*
X11262Y-25377D02*
X11262Y-26027D01*
X12162Y-26727D02*
X12162Y-27377D01*
X12162Y-27377D02*
X11262Y-27377D01*
X11262Y-27377D02*
X11262Y-26727D01*
X12162Y-26027D02*
X12162Y-25377D01*
X09884Y-27377D02*
X10784Y-27377D01*
X10784Y-27377D02*
X10784Y-26727D01*
X09884Y-26027D02*
X09884Y-25377D01*
X09884Y-25377D02*
X10784Y-25377D01*
X10784Y-25377D02*
X10784Y-26027D01*
X09884Y-26727D02*
X09884Y-27377D01*
G54D37*
X07569Y-29721D02*
X07519Y-29721D01*
X07519Y-29721D02*
X07519Y-30171D01*
X07519Y-30171D02*
X07919Y-30171D01*
X08769Y-29721D02*
X08819Y-29721D01*
X08819Y-29721D02*
X08819Y-30171D01*
X08819Y-30171D02*
X08419Y-30171D01*
X08069Y-29721D02*
X08269Y-29721D01*
G54D33*
X30082Y-33405D02*
X30076Y-33459D01*
X30076Y-33459D02*
X30060Y-33511D01*
X30060Y-33511D02*
X30035Y-33559D01*
X30035Y-33559D02*
X30000Y-33602D01*
X30000Y-33602D02*
X29958Y-33637D01*
X29958Y-33637D02*
X29910Y-33663D01*
X29910Y-33663D02*
X29858Y-33679D01*
X29858Y-33679D02*
X29803Y-33684D01*
X29803Y-33684D02*
X29750Y-33680D01*
X29750Y-33680D02*
X29698Y-33664D01*
X29698Y-33664D02*
X29649Y-33639D01*
X29649Y-33639D02*
X29607Y-33605D01*
X29607Y-33605D02*
X29571Y-33563D01*
X29571Y-33563D02*
X29545Y-33515D01*
X29545Y-33515D02*
X29529Y-33463D01*
X29529Y-33463D02*
X29523Y-33408D01*
X29523Y-33408D02*
X29527Y-33355D01*
X29527Y-33355D02*
X29542Y-33302D01*
X29542Y-33302D02*
X29567Y-33254D01*
X29567Y-33254D02*
X29601Y-33211D01*
X29601Y-33211D02*
X29643Y-33176D01*
X29643Y-33176D02*
X29690Y-33149D01*
X29690Y-33149D02*
X29742Y-33132D01*
X29742Y-33132D02*
X29797Y-33126D01*
X29797Y-33126D02*
X29850Y-33130D01*
X29850Y-33130D02*
X29903Y-33144D01*
X29903Y-33144D02*
X29952Y-33169D01*
X29952Y-33169D02*
X29995Y-33203D01*
X29995Y-33203D02*
X30030Y-33244D01*
X30030Y-33244D02*
X30057Y-33292D01*
X30057Y-33292D02*
X30075Y-33343D01*
X30075Y-33343D02*
X30081Y-33398D01*
X30081Y-33398D02*
X30082Y-33405D01*
X29060Y-33405D02*
X29054Y-33459D01*
X29054Y-33459D02*
X29038Y-33511D01*
X29038Y-33511D02*
X29013Y-33559D01*
X29013Y-33559D02*
X28978Y-33602D01*
X28978Y-33602D02*
X28936Y-33637D01*
X28936Y-33637D02*
X28888Y-33663D01*
X28888Y-33663D02*
X28836Y-33679D01*
X28836Y-33679D02*
X28781Y-33684D01*
X28781Y-33684D02*
X28728Y-33680D01*
X28728Y-33680D02*
X28676Y-33664D01*
X28676Y-33664D02*
X28627Y-33639D01*
X28627Y-33639D02*
X28585Y-33605D01*
X28585Y-33605D02*
X28549Y-33563D01*
X28549Y-33563D02*
X28523Y-33515D01*
X28523Y-33515D02*
X28507Y-33463D01*
X28507Y-33463D02*
X28501Y-33408D01*
X28501Y-33408D02*
X28505Y-33355D01*
X28505Y-33355D02*
X28520Y-33302D01*
X28520Y-33302D02*
X28545Y-33254D01*
X28545Y-33254D02*
X28579Y-33211D01*
X28579Y-33211D02*
X28621Y-33176D01*
X28621Y-33176D02*
X28668Y-33149D01*
X28668Y-33149D02*
X28720Y-33132D01*
X28720Y-33132D02*
X28775Y-33126D01*
X28775Y-33126D02*
X28828Y-33130D01*
X28828Y-33130D02*
X28881Y-33144D01*
X28881Y-33144D02*
X28930Y-33169D01*
X28930Y-33169D02*
X28973Y-33203D01*
X28973Y-33203D02*
X29008Y-33244D01*
X29008Y-33244D02*
X29035Y-33292D01*
X29035Y-33292D02*
X29053Y-33343D01*
X29053Y-33343D02*
X29059Y-33398D01*
X29059Y-33398D02*
X29060Y-33405D01*
X30909Y-33405D02*
X30903Y-33459D01*
X30903Y-33459D02*
X30887Y-33511D01*
X30887Y-33511D02*
X30862Y-33559D01*
X30862Y-33559D02*
X30827Y-33602D01*
X30827Y-33602D02*
X30785Y-33637D01*
X30785Y-33637D02*
X30737Y-33663D01*
X30737Y-33663D02*
X30685Y-33679D01*
X30685Y-33679D02*
X30630Y-33684D01*
X30630Y-33684D02*
X30577Y-33680D01*
X30577Y-33680D02*
X30525Y-33664D01*
X30525Y-33664D02*
X30476Y-33639D01*
X30476Y-33639D02*
X30434Y-33605D01*
X30434Y-33605D02*
X30398Y-33563D01*
X30398Y-33563D02*
X30372Y-33515D01*
X30372Y-33515D02*
X30356Y-33463D01*
X30356Y-33463D02*
X30350Y-33408D01*
X30350Y-33408D02*
X30354Y-33355D01*
X30354Y-33355D02*
X30369Y-33302D01*
X30369Y-33302D02*
X30394Y-33254D01*
X30394Y-33254D02*
X30428Y-33211D01*
X30428Y-33211D02*
X30470Y-33176D01*
X30470Y-33176D02*
X30517Y-33149D01*
X30517Y-33149D02*
X30569Y-33132D01*
X30569Y-33132D02*
X30624Y-33126D01*
X30624Y-33126D02*
X30677Y-33130D01*
X30677Y-33130D02*
X30730Y-33144D01*
X30730Y-33144D02*
X30779Y-33169D01*
X30779Y-33169D02*
X30822Y-33203D01*
X30822Y-33203D02*
X30857Y-33244D01*
X30857Y-33244D02*
X30884Y-33292D01*
X30884Y-33292D02*
X30902Y-33343D01*
X30902Y-33343D02*
X30908Y-33398D01*
X30908Y-33398D02*
X30909Y-33405D01*
X28233Y-33405D02*
X28227Y-33459D01*
X28227Y-33459D02*
X28211Y-33511D01*
X28211Y-33511D02*
X28186Y-33559D01*
X28186Y-33559D02*
X28151Y-33602D01*
X28151Y-33602D02*
X28109Y-33637D01*
X28109Y-33637D02*
X28061Y-33663D01*
X28061Y-33663D02*
X28009Y-33679D01*
X28009Y-33679D02*
X27954Y-33684D01*
X27954Y-33684D02*
X27901Y-33680D01*
X27901Y-33680D02*
X27849Y-33664D01*
X27849Y-33664D02*
X27800Y-33639D01*
X27800Y-33639D02*
X27758Y-33605D01*
X27758Y-33605D02*
X27722Y-33563D01*
X27722Y-33563D02*
X27696Y-33515D01*
X27696Y-33515D02*
X27680Y-33463D01*
X27680Y-33463D02*
X27674Y-33408D01*
X27674Y-33408D02*
X27678Y-33355D01*
X27678Y-33355D02*
X27693Y-33302D01*
X27693Y-33302D02*
X27718Y-33254D01*
X27718Y-33254D02*
X27752Y-33211D01*
X27752Y-33211D02*
X27794Y-33176D01*
X27794Y-33176D02*
X27841Y-33149D01*
X27841Y-33149D02*
X27893Y-33132D01*
X27893Y-33132D02*
X27948Y-33126D01*
X27948Y-33126D02*
X28001Y-33130D01*
X28001Y-33130D02*
X28054Y-33144D01*
X28054Y-33144D02*
X28103Y-33169D01*
X28103Y-33169D02*
X28146Y-33203D01*
X28146Y-33203D02*
X28181Y-33244D01*
X28181Y-33244D02*
X28208Y-33292D01*
X28208Y-33292D02*
X28226Y-33343D01*
X28226Y-33343D02*
X28232Y-33398D01*
X28232Y-33398D02*
X28233Y-33405D01*
X30909Y-32441D02*
X30903Y-32495D01*
X30903Y-32495D02*
X30887Y-32547D01*
X30887Y-32547D02*
X30862Y-32595D01*
X30862Y-32595D02*
X30827Y-32638D01*
X30827Y-32638D02*
X30785Y-32673D01*
X30785Y-32673D02*
X30737Y-32699D01*
X30737Y-32699D02*
X30685Y-32715D01*
X30685Y-32715D02*
X30630Y-32720D01*
X30630Y-32720D02*
X30577Y-32716D01*
X30577Y-32716D02*
X30525Y-32700D01*
X30525Y-32700D02*
X30476Y-32675D01*
X30476Y-32675D02*
X30434Y-32641D01*
X30434Y-32641D02*
X30398Y-32599D01*
X30398Y-32599D02*
X30372Y-32551D01*
X30372Y-32551D02*
X30356Y-32499D01*
X30356Y-32499D02*
X30350Y-32444D01*
X30350Y-32444D02*
X30354Y-32391D01*
X30354Y-32391D02*
X30369Y-32338D01*
X30369Y-32338D02*
X30394Y-32290D01*
X30394Y-32290D02*
X30428Y-32247D01*
X30428Y-32247D02*
X30470Y-32212D01*
X30470Y-32212D02*
X30517Y-32185D01*
X30517Y-32185D02*
X30569Y-32168D01*
X30569Y-32168D02*
X30624Y-32162D01*
X30624Y-32162D02*
X30677Y-32166D01*
X30677Y-32166D02*
X30730Y-32180D01*
X30730Y-32180D02*
X30779Y-32205D01*
X30779Y-32205D02*
X30822Y-32239D01*
X30822Y-32239D02*
X30857Y-32280D01*
X30857Y-32280D02*
X30884Y-32328D01*
X30884Y-32328D02*
X30902Y-32379D01*
X30902Y-32379D02*
X30908Y-32434D01*
X30908Y-32434D02*
X30909Y-32441D01*
X28233Y-32421D02*
X28227Y-32475D01*
X28227Y-32475D02*
X28211Y-32527D01*
X28211Y-32527D02*
X28186Y-32575D01*
X28186Y-32575D02*
X28151Y-32618D01*
X28151Y-32618D02*
X28109Y-32653D01*
X28109Y-32653D02*
X28061Y-32679D01*
X28061Y-32679D02*
X28009Y-32695D01*
X28009Y-32695D02*
X27954Y-32700D01*
X27954Y-32700D02*
X27901Y-32696D01*
X27901Y-32696D02*
X27849Y-32680D01*
X27849Y-32680D02*
X27800Y-32655D01*
X27800Y-32655D02*
X27758Y-32621D01*
X27758Y-32621D02*
X27722Y-32579D01*
X27722Y-32579D02*
X27696Y-32531D01*
X27696Y-32531D02*
X27680Y-32479D01*
X27680Y-32479D02*
X27674Y-32424D01*
X27674Y-32424D02*
X27678Y-32371D01*
X27678Y-32371D02*
X27693Y-32318D01*
X27693Y-32318D02*
X27718Y-32270D01*
X27718Y-32270D02*
X27752Y-32227D01*
X27752Y-32227D02*
X27794Y-32192D01*
X27794Y-32192D02*
X27841Y-32165D01*
X27841Y-32165D02*
X27893Y-32148D01*
X27893Y-32148D02*
X27948Y-32142D01*
X27948Y-32142D02*
X28001Y-32146D01*
X28001Y-32146D02*
X28054Y-32160D01*
X28054Y-32160D02*
X28103Y-32185D01*
X28103Y-32185D02*
X28146Y-32219D01*
X28146Y-32219D02*
X28181Y-32260D01*
X28181Y-32260D02*
X28208Y-32308D01*
X28208Y-32308D02*
X28226Y-32359D01*
X28226Y-32359D02*
X28232Y-32414D01*
X28232Y-32414D02*
X28233Y-32421D01*
X27302Y-34586D02*
X27288Y-34719D01*
X27288Y-34719D02*
X27250Y-34848D01*
X27250Y-34848D02*
X27187Y-34966D01*
X27187Y-34966D02*
X27102Y-35070D01*
X27102Y-35070D02*
X26998Y-35156D01*
X26998Y-35156D02*
X26880Y-35220D01*
X26880Y-35220D02*
X26752Y-35259D01*
X26752Y-35259D02*
X26618Y-35273D01*
X26618Y-35273D02*
X26486Y-35261D01*
X26486Y-35261D02*
X26357Y-35223D01*
X26357Y-35223D02*
X26238Y-35161D01*
X26238Y-35161D02*
X26133Y-35077D01*
X26133Y-35077D02*
X26047Y-34974D01*
X26047Y-34974D02*
X25982Y-34857D01*
X25982Y-34857D02*
X25942Y-34729D01*
X25942Y-34729D02*
X25927Y-34595D01*
X25927Y-34595D02*
X25938Y-34462D01*
X25938Y-34462D02*
X25975Y-34333D01*
X25975Y-34333D02*
X26036Y-34214D01*
X26036Y-34214D02*
X26120Y-34109D01*
X26120Y-34109D02*
X26222Y-34022D01*
X26222Y-34022D02*
X26339Y-33956D01*
X26339Y-33956D02*
X26467Y-33915D01*
X26467Y-33915D02*
X26600Y-33899D01*
X26600Y-33899D02*
X26733Y-33909D01*
X26733Y-33909D02*
X26862Y-33945D01*
X26862Y-33945D02*
X26982Y-34006D01*
X26982Y-34006D02*
X27088Y-34088D01*
X27088Y-34088D02*
X27176Y-34190D01*
X27176Y-34190D02*
X27242Y-34307D01*
X27242Y-34307D02*
X27284Y-34434D01*
X27284Y-34434D02*
X27301Y-34567D01*
X27301Y-34567D02*
X27302Y-34586D01*
X29979Y-34900D02*
X29965Y-35033D01*
X29965Y-35033D02*
X29927Y-35162D01*
X29927Y-35162D02*
X29864Y-35280D01*
X29864Y-35280D02*
X29779Y-35384D01*
X29779Y-35384D02*
X29675Y-35470D01*
X29675Y-35470D02*
X29557Y-35534D01*
X29557Y-35534D02*
X29429Y-35573D01*
X29429Y-35573D02*
X29295Y-35587D01*
X29295Y-35587D02*
X29163Y-35575D01*
X29163Y-35575D02*
X29034Y-35537D01*
X29034Y-35537D02*
X28915Y-35475D01*
X28915Y-35475D02*
X28810Y-35391D01*
X28810Y-35391D02*
X28724Y-35288D01*
X28724Y-35288D02*
X28659Y-35171D01*
X28659Y-35171D02*
X28619Y-35043D01*
X28619Y-35043D02*
X28604Y-34909D01*
X28604Y-34909D02*
X28615Y-34776D01*
X28615Y-34776D02*
X28652Y-34647D01*
X28652Y-34647D02*
X28713Y-34528D01*
X28713Y-34528D02*
X28797Y-34423D01*
X28797Y-34423D02*
X28899Y-34336D01*
X28899Y-34336D02*
X29016Y-34270D01*
X29016Y-34270D02*
X29144Y-34229D01*
X29144Y-34229D02*
X29277Y-34213D01*
X29277Y-34213D02*
X29410Y-34223D01*
X29410Y-34223D02*
X29539Y-34259D01*
X29539Y-34259D02*
X29659Y-34320D01*
X29659Y-34320D02*
X29765Y-34402D01*
X29765Y-34402D02*
X29853Y-34504D01*
X29853Y-34504D02*
X29919Y-34621D01*
X29919Y-34621D02*
X29961Y-34748D01*
X29961Y-34748D02*
X29978Y-34881D01*
X29978Y-34881D02*
X29979Y-34900D01*
X32636Y-34586D02*
X32622Y-34719D01*
X32622Y-34719D02*
X32584Y-34848D01*
X32584Y-34848D02*
X32521Y-34966D01*
X32521Y-34966D02*
X32436Y-35070D01*
X32436Y-35070D02*
X32332Y-35156D01*
X32332Y-35156D02*
X32214Y-35220D01*
X32214Y-35220D02*
X32086Y-35259D01*
X32086Y-35259D02*
X31952Y-35273D01*
X31952Y-35273D02*
X31820Y-35261D01*
X31820Y-35261D02*
X31691Y-35223D01*
X31691Y-35223D02*
X31572Y-35161D01*
X31572Y-35161D02*
X31467Y-35077D01*
X31467Y-35077D02*
X31381Y-34974D01*
X31381Y-34974D02*
X31316Y-34857D01*
X31316Y-34857D02*
X31276Y-34729D01*
X31276Y-34729D02*
X31261Y-34595D01*
X31261Y-34595D02*
X31272Y-34462D01*
X31272Y-34462D02*
X31309Y-34333D01*
X31309Y-34333D02*
X31370Y-34214D01*
X31370Y-34214D02*
X31454Y-34109D01*
X31454Y-34109D02*
X31556Y-34022D01*
X31556Y-34022D02*
X31673Y-33956D01*
X31673Y-33956D02*
X31801Y-33915D01*
X31801Y-33915D02*
X31934Y-33899D01*
X31934Y-33899D02*
X32067Y-33909D01*
X32067Y-33909D02*
X32196Y-33945D01*
X32196Y-33945D02*
X32316Y-34006D01*
X32316Y-34006D02*
X32422Y-34088D01*
X32422Y-34088D02*
X32510Y-34190D01*
X32510Y-34190D02*
X32576Y-34307D01*
X32576Y-34307D02*
X32618Y-34434D01*
X32618Y-34434D02*
X32635Y-34567D01*
X32635Y-34567D02*
X32636Y-34586D01*
X24479Y-34436D02*
X24474Y-34480D01*
X24474Y-34480D02*
X24461Y-34522D01*
X24461Y-34522D02*
X24441Y-34561D01*
X24441Y-34561D02*
X24413Y-34595D01*
X24413Y-34595D02*
X24378Y-34624D01*
X24378Y-34624D02*
X24339Y-34645D01*
X24339Y-34645D02*
X24297Y-34658D01*
X24297Y-34658D02*
X24253Y-34662D01*
X24253Y-34662D02*
X24210Y-34658D01*
X24210Y-34658D02*
X24167Y-34646D01*
X24167Y-34646D02*
X24128Y-34625D01*
X24128Y-34625D02*
X24094Y-34598D01*
X24094Y-34598D02*
X24065Y-34564D01*
X24065Y-34564D02*
X24044Y-34525D01*
X24044Y-34525D02*
X24030Y-34483D01*
X24030Y-34483D02*
X24026Y-34439D01*
X24026Y-34439D02*
X24029Y-34396D01*
X24029Y-34396D02*
X24041Y-34353D01*
X24041Y-34353D02*
X24062Y-34314D01*
X24062Y-34314D02*
X24089Y-34279D01*
X24089Y-34279D02*
X24123Y-34250D01*
X24123Y-34250D02*
X24162Y-34228D01*
X24162Y-34228D02*
X24204Y-34215D01*
X24204Y-34215D02*
X24248Y-34210D01*
X24248Y-34210D02*
X24291Y-34213D01*
X24291Y-34213D02*
X24334Y-34225D01*
X24334Y-34225D02*
X24373Y-34245D01*
X24373Y-34245D02*
X24408Y-34272D01*
X24408Y-34272D02*
X24437Y-34306D01*
X24437Y-34306D02*
X24459Y-34344D01*
X24459Y-34344D02*
X24473Y-34386D01*
X24473Y-34386D02*
X24478Y-34430D01*
X24478Y-34430D02*
X24479Y-34436D01*
X22747Y-34436D02*
X22742Y-34480D01*
X22742Y-34480D02*
X22729Y-34522D01*
X22729Y-34522D02*
X22709Y-34561D01*
X22709Y-34561D02*
X22681Y-34595D01*
X22681Y-34595D02*
X22646Y-34624D01*
X22646Y-34624D02*
X22607Y-34645D01*
X22607Y-34645D02*
X22565Y-34658D01*
X22565Y-34658D02*
X22521Y-34662D01*
X22521Y-34662D02*
X22478Y-34658D01*
X22478Y-34658D02*
X22435Y-34646D01*
X22435Y-34646D02*
X22396Y-34625D01*
X22396Y-34625D02*
X22362Y-34598D01*
X22362Y-34598D02*
X22333Y-34564D01*
X22333Y-34564D02*
X22312Y-34525D01*
X22312Y-34525D02*
X22298Y-34483D01*
X22298Y-34483D02*
X22294Y-34439D01*
X22294Y-34439D02*
X22297Y-34396D01*
X22297Y-34396D02*
X22309Y-34353D01*
X22309Y-34353D02*
X22330Y-34314D01*
X22330Y-34314D02*
X22357Y-34279D01*
X22357Y-34279D02*
X22391Y-34250D01*
X22391Y-34250D02*
X22430Y-34228D01*
X22430Y-34228D02*
X22472Y-34215D01*
X22472Y-34215D02*
X22516Y-34210D01*
X22516Y-34210D02*
X22559Y-34213D01*
X22559Y-34213D02*
X22602Y-34225D01*
X22602Y-34225D02*
X22641Y-34245D01*
X22641Y-34245D02*
X22676Y-34272D01*
X22676Y-34272D02*
X22705Y-34306D01*
X22705Y-34306D02*
X22727Y-34344D01*
X22727Y-34344D02*
X22741Y-34386D01*
X22741Y-34386D02*
X22746Y-34430D01*
X22746Y-34430D02*
X22747Y-34436D01*
G54D39*
X33761Y-14654D02*
X33778Y-14688D01*
X33778Y-14688D02*
X33813Y-14688D01*
X33813Y-14688D02*
X33831Y-14671D01*
X33831Y-14671D02*
X33831Y-14531D01*
X33796Y-14531D02*
X33866Y-14531D01*
X34077Y-14688D02*
X33955Y-14688D01*
X33955Y-14688D02*
X33955Y-14636D01*
X33955Y-14636D02*
X33972Y-14619D01*
X33972Y-14619D02*
X34060Y-14619D01*
X34060Y-14619D02*
X34077Y-14601D01*
X34077Y-14601D02*
X34077Y-14549D01*
X34077Y-14549D02*
X34060Y-14531D01*
X34060Y-14531D02*
X33972Y-14531D01*
X33972Y-14531D02*
X33955Y-14549D01*
X34184Y-14688D02*
X34254Y-14688D01*
X34219Y-14688D02*
X34219Y-14531D01*
X34219Y-14549D02*
X34184Y-14584D01*
G54D40*
X29676Y-33221D02*
X29925Y-32901D01*
X29676Y-32901D02*
X29925Y-33221D01*
X30137Y-33221D02*
X30279Y-33221D01*
X30208Y-33221D02*
X30208Y-32901D01*
X30208Y-32937D02*
X30137Y-33008D01*
X27612Y-36380D02*
X27612Y-36060D01*
X27612Y-36060D02*
X27754Y-36203D01*
X27754Y-36203D02*
X27897Y-36060D01*
X27897Y-36060D02*
X27897Y-36380D01*
X28038Y-36380D02*
X28180Y-36380D01*
X28109Y-36380D02*
X28109Y-36060D01*
X28038Y-36060D02*
X28180Y-36060D01*
X28392Y-36380D02*
X28392Y-36060D01*
X28392Y-36060D02*
X28641Y-36380D01*
X28641Y-36380D02*
X28641Y-36060D01*
X28818Y-36380D02*
X28960Y-36380D01*
X28889Y-36380D02*
X28889Y-36060D01*
X28818Y-36060D02*
X28960Y-36060D01*
X29172Y-36380D02*
X29421Y-36380D01*
X29598Y-36380D02*
X29598Y-36060D01*
X29562Y-36060D02*
X29775Y-36060D01*
X29775Y-36060D02*
X29811Y-36096D01*
X29811Y-36096D02*
X29811Y-36345D01*
X29811Y-36345D02*
X29775Y-36380D01*
X29775Y-36380D02*
X29562Y-36380D01*
X29988Y-36380D02*
X30130Y-36380D01*
X30059Y-36380D02*
X30059Y-36060D01*
X29988Y-36060D02*
X30130Y-36060D01*
X30342Y-36380D02*
X30342Y-36060D01*
X30342Y-36060D02*
X30591Y-36380D01*
X30591Y-36380D02*
X30591Y-36060D01*
X30732Y-36380D02*
X30981Y-36380D01*
X31371Y-36096D02*
X31335Y-36060D01*
X31335Y-36060D02*
X31158Y-36060D01*
X31158Y-36060D02*
X31122Y-36096D01*
X31122Y-36096D02*
X31122Y-36345D01*
X31122Y-36345D02*
X31158Y-36380D01*
X31158Y-36380D02*
X31335Y-36380D01*
X31335Y-36380D02*
X31371Y-36345D01*
X31371Y-36345D02*
X31371Y-36238D01*
X31371Y-36238D02*
X31335Y-36203D01*
X31335Y-36203D02*
X31158Y-36203D01*
X31158Y-36203D02*
X31122Y-36238D01*
X30774Y-32901D02*
X31023Y-32901D01*
X31023Y-32901D02*
X31023Y-32937D01*
X31023Y-32937D02*
X30881Y-33044D01*
X30881Y-33044D02*
X30987Y-33044D01*
X30987Y-33044D02*
X31023Y-33079D01*
X31023Y-33079D02*
X31023Y-33186D01*
X31023Y-33186D02*
X30987Y-33221D01*
X30987Y-33221D02*
X30810Y-33221D01*
X30810Y-33221D02*
X30774Y-33186D01*
X28074Y-33134D02*
X28074Y-33170D01*
X28074Y-33170D02*
X28110Y-33205D01*
X28110Y-33205D02*
X28287Y-33205D01*
X28287Y-33205D02*
X28323Y-33170D01*
X28323Y-33170D02*
X28323Y-33063D01*
X28323Y-33063D02*
X28252Y-32992D01*
X28252Y-32992D02*
X28074Y-32992D01*
X28074Y-32992D02*
X28074Y-32885D01*
X28074Y-32885D02*
X28323Y-32885D01*
X31053Y-31953D02*
X31017Y-31917D01*
X31017Y-31917D02*
X30840Y-31917D01*
X30840Y-31917D02*
X30804Y-31953D01*
X30804Y-31953D02*
X30804Y-32202D01*
X30804Y-32202D02*
X30840Y-32237D01*
X30840Y-32237D02*
X31017Y-32237D01*
X31017Y-32237D02*
X31053Y-32202D01*
X31053Y-32202D02*
X31053Y-32095D01*
X31053Y-32095D02*
X31017Y-32060D01*
X31017Y-32060D02*
X30840Y-32060D01*
X30840Y-32060D02*
X30804Y-32095D01*
X28176Y-32221D02*
X28140Y-32186D01*
X28140Y-32186D02*
X28140Y-32079D01*
X28140Y-32079D02*
X28176Y-32044D01*
X28176Y-32044D02*
X28353Y-32044D01*
X28353Y-32044D02*
X28389Y-32008D01*
X28389Y-32008D02*
X28389Y-31937D01*
X28389Y-31937D02*
X28353Y-31901D01*
X28353Y-31901D02*
X28176Y-31901D01*
X28176Y-31901D02*
X28140Y-31937D01*
X28140Y-31937D02*
X28140Y-32008D01*
X28140Y-32008D02*
X28176Y-32044D01*
X28353Y-32044D02*
X28389Y-32079D01*
X28389Y-32079D02*
X28389Y-32186D01*
X28389Y-32186D02*
X28353Y-32221D01*
X28353Y-32221D02*
X28176Y-32221D01*
G54D41*
X12252Y-11523D02*
X12252Y-10823D01*
X12252Y-10823D02*
X12719Y-10823D01*
X12719Y-10823D02*
X12797Y-10901D01*
X12797Y-10901D02*
X12797Y-11135D01*
X12797Y-11135D02*
X12719Y-11212D01*
X12719Y-11212D02*
X12252Y-11212D01*
X13068Y-11057D02*
X13535Y-11057D01*
X13535Y-11057D02*
X13613Y-11135D01*
X13613Y-11135D02*
X13613Y-11523D01*
X13613Y-11523D02*
X13146Y-11523D01*
X13146Y-11523D02*
X13068Y-11446D01*
X13068Y-11446D02*
X13068Y-11368D01*
X13068Y-11368D02*
X13146Y-11290D01*
X13146Y-11290D02*
X13613Y-11290D01*
X13962Y-11523D02*
X14273Y-11523D01*
X14118Y-11523D02*
X14118Y-10823D01*
X13962Y-10823D02*
X14273Y-10823D01*
X14700Y-11523D02*
X14700Y-11057D01*
X14700Y-11135D02*
X14778Y-11057D01*
X14778Y-11057D02*
X15089Y-11057D01*
X15089Y-11057D02*
X15167Y-11135D01*
X15167Y-11135D02*
X15167Y-11523D01*
X15516Y-10823D02*
X16139Y-10823D01*
X15827Y-10823D02*
X15827Y-11523D01*
X16877Y-11523D02*
X16332Y-11523D01*
X16332Y-11523D02*
X16332Y-10823D01*
X16332Y-10823D02*
X16877Y-10823D01*
X16332Y-11135D02*
X16643Y-11135D01*
X17148Y-11446D02*
X17226Y-11523D01*
X17226Y-11523D02*
X17615Y-11523D01*
X17615Y-11523D02*
X17693Y-11446D01*
X17693Y-11446D02*
X17693Y-11212D01*
X17693Y-11212D02*
X17615Y-11135D01*
X17615Y-11135D02*
X17226Y-11135D01*
X17226Y-11135D02*
X17148Y-11057D01*
X17148Y-11057D02*
X17148Y-10901D01*
X17148Y-10901D02*
X17226Y-10823D01*
X17226Y-10823D02*
X17615Y-10823D01*
X17615Y-10823D02*
X17693Y-10901D01*
G54D42*
X09819Y-13193D02*
X09819Y-12727D01*
X09819Y-12727D02*
X09953Y-12593D01*
X09953Y-12593D02*
X10153Y-12593D01*
X10153Y-12593D02*
X10286Y-12727D01*
X10286Y-12727D02*
X10286Y-13193D01*
X09819Y-12860D02*
X10286Y-12860D01*
X10605Y-13193D02*
X10605Y-12793D01*
X10605Y-12860D02*
X10672Y-12793D01*
X10672Y-12793D02*
X10939Y-12793D01*
X10939Y-12793D02*
X11005Y-12860D01*
X11005Y-12860D02*
X11005Y-13193D01*
X11391Y-13326D02*
X11458Y-13393D01*
X11458Y-13393D02*
X11791Y-13393D01*
X11791Y-13393D02*
X11858Y-13326D01*
X11858Y-13326D02*
X11858Y-12860D01*
X11858Y-12860D02*
X11791Y-12793D01*
X11791Y-12793D02*
X11458Y-12793D01*
X11458Y-12793D02*
X11391Y-12860D01*
X11391Y-12860D02*
X11391Y-13127D01*
X11391Y-13127D02*
X11458Y-13193D01*
X11458Y-13193D02*
X11791Y-13193D01*
X11791Y-13193D02*
X11858Y-13127D01*
X12177Y-12993D02*
X12644Y-12993D01*
X12644Y-12993D02*
X12644Y-12860D01*
X12644Y-12860D02*
X12577Y-12793D01*
X12577Y-12793D02*
X12244Y-12793D01*
X12244Y-12793D02*
X12177Y-12860D01*
X12177Y-12860D02*
X12177Y-13127D01*
X12177Y-13127D02*
X12244Y-13193D01*
X12244Y-13193D02*
X12577Y-13193D01*
X12577Y-13193D02*
X12644Y-13127D01*
X13097Y-12593D02*
X13163Y-12593D01*
X13163Y-12593D02*
X13163Y-13193D01*
X13097Y-13193D02*
X13230Y-13193D01*
X13749Y-12793D02*
X14149Y-12793D01*
X14149Y-12793D02*
X14216Y-12860D01*
X14216Y-12860D02*
X14216Y-13193D01*
X14216Y-13193D02*
X13816Y-13193D01*
X13816Y-13193D02*
X13749Y-13127D01*
X13749Y-13127D02*
X13749Y-13060D01*
X13749Y-13060D02*
X13816Y-12993D01*
X13816Y-12993D02*
X14216Y-12993D01*
X15321Y-13193D02*
X15321Y-12727D01*
X15321Y-12727D02*
X15455Y-12593D01*
X15455Y-12593D02*
X15655Y-12593D01*
X15655Y-12593D02*
X15788Y-12727D01*
X15788Y-12727D02*
X15788Y-13193D01*
X15321Y-12860D02*
X15788Y-12860D01*
X16241Y-12593D02*
X16307Y-12593D01*
X16307Y-12593D02*
X16307Y-13193D01*
X16241Y-13193D02*
X16374Y-13193D01*
X16893Y-12793D02*
X17360Y-12793D01*
X17360Y-12793D02*
X16893Y-13193D01*
X16893Y-13193D02*
X17360Y-13193D01*
X17679Y-12793D02*
X18079Y-12793D01*
X18079Y-12793D02*
X18146Y-12860D01*
X18146Y-12860D02*
X18146Y-13193D01*
X18146Y-13193D02*
X17746Y-13193D01*
X17746Y-13193D02*
X17679Y-13127D01*
X17679Y-13127D02*
X17679Y-13060D01*
X17679Y-13060D02*
X17746Y-12993D01*
X17746Y-12993D02*
X18146Y-12993D01*
X18865Y-13127D02*
X18799Y-13193D01*
X18799Y-13193D02*
X18599Y-13193D01*
X18599Y-13193D02*
X18532Y-13127D01*
X18532Y-13127D02*
X18532Y-12593D01*
X18532Y-12793D02*
X18732Y-12793D01*
X19251Y-12993D02*
X19718Y-12993D01*
X19718Y-12993D02*
X19718Y-12860D01*
X19718Y-12860D02*
X19651Y-12793D01*
X19651Y-12793D02*
X19318Y-12793D01*
X19318Y-12793D02*
X19251Y-12860D01*
X19251Y-12860D02*
X19251Y-13127D01*
X19251Y-13127D02*
X19318Y-13193D01*
X19318Y-13193D02*
X19651Y-13193D01*
X19651Y-13193D02*
X19718Y-13127D01*
G54D39*
X34723Y-35234D02*
X34566Y-35234D01*
X34723Y-35112D02*
X34566Y-35112D01*
X34654Y-35234D02*
X34654Y-35112D01*
X34723Y-35005D02*
X34723Y-34935D01*
X34723Y-34970D02*
X34566Y-34970D01*
X34584Y-34970D02*
X34619Y-35005D01*
X34566Y-34846D02*
X34566Y-34724D01*
X34566Y-34724D02*
X34584Y-34724D01*
X34584Y-34724D02*
X34636Y-34794D01*
X34636Y-34794D02*
X34636Y-34741D01*
X34636Y-34741D02*
X34654Y-34724D01*
X34654Y-34724D02*
X34706Y-34724D01*
X34706Y-34724D02*
X34723Y-34741D01*
X34723Y-34741D02*
X34723Y-34829D01*
X34723Y-34829D02*
X34706Y-34846D01*
G54D42*
X09864Y-14237D02*
X09864Y-13637D01*
X09864Y-13637D02*
X10331Y-14237D01*
X10331Y-14237D02*
X10331Y-13637D01*
X10850Y-13637D02*
X10850Y-13704D01*
X10850Y-13904D02*
X10850Y-14171D01*
X10850Y-14171D02*
X10917Y-14237D01*
X10917Y-14237D02*
X10984Y-14237D01*
X11903Y-14171D02*
X11836Y-14237D01*
X11836Y-14237D02*
X11503Y-14237D01*
X11503Y-14237D02*
X11436Y-14171D01*
X11436Y-14171D02*
X11436Y-13904D01*
X11436Y-13904D02*
X11503Y-13837D01*
X11503Y-13837D02*
X11836Y-13837D01*
X11836Y-13837D02*
X11903Y-13904D01*
X12222Y-14237D02*
X12222Y-13637D01*
X12222Y-13904D02*
X12289Y-13837D01*
X12289Y-13837D02*
X12622Y-13837D01*
X12622Y-13837D02*
X12689Y-13904D01*
X12689Y-13904D02*
X12689Y-14237D01*
X13075Y-14237D02*
X13008Y-14171D01*
X13008Y-14171D02*
X13008Y-13904D01*
X13008Y-13904D02*
X13075Y-13837D01*
X13075Y-13837D02*
X13408Y-13837D01*
X13408Y-13837D02*
X13475Y-13904D01*
X13475Y-13904D02*
X13475Y-14171D01*
X13475Y-14171D02*
X13408Y-14237D01*
X13408Y-14237D02*
X13075Y-14237D01*
X13928Y-13637D02*
X13994Y-13637D01*
X13994Y-13637D02*
X13994Y-14237D01*
X13928Y-14237D02*
X14061Y-14237D01*
X14580Y-13837D02*
X14980Y-13837D01*
X14980Y-13837D02*
X15047Y-13904D01*
X15047Y-13904D02*
X15047Y-14237D01*
X15047Y-14237D02*
X14647Y-14237D01*
X14647Y-14237D02*
X14580Y-14171D01*
X14580Y-14171D02*
X14580Y-14104D01*
X14580Y-14104D02*
X14647Y-14037D01*
X14647Y-14037D02*
X15047Y-14037D01*
X15366Y-14171D02*
X15433Y-14237D01*
X15433Y-14237D02*
X15766Y-14237D01*
X15766Y-14237D02*
X15833Y-14171D01*
X15833Y-14171D02*
X15833Y-14104D01*
X15833Y-14104D02*
X15766Y-14037D01*
X15766Y-14037D02*
X15433Y-14037D01*
X15433Y-14037D02*
X15366Y-13971D01*
X15366Y-13971D02*
X15366Y-13904D01*
X15366Y-13904D02*
X15433Y-13837D01*
X15433Y-13837D02*
X15766Y-13837D01*
X15766Y-13837D02*
X15833Y-13904D01*
X16938Y-14237D02*
X16938Y-13637D01*
X16938Y-13637D02*
X17338Y-13637D01*
X17338Y-13637D02*
X17405Y-13704D01*
X17405Y-13704D02*
X17405Y-13904D01*
X17405Y-13904D02*
X17338Y-13971D01*
X17338Y-13971D02*
X16938Y-13971D01*
X17724Y-14037D02*
X18191Y-14037D01*
X18191Y-14037D02*
X18191Y-13904D01*
X18191Y-13904D02*
X18124Y-13837D01*
X18124Y-13837D02*
X17791Y-13837D01*
X17791Y-13837D02*
X17724Y-13904D01*
X17724Y-13904D02*
X17724Y-14171D01*
X17724Y-14171D02*
X17791Y-14237D01*
X17791Y-14237D02*
X18124Y-14237D01*
X18124Y-14237D02*
X18191Y-14171D01*
X18510Y-14237D02*
X18510Y-13837D01*
X18510Y-13971D02*
X18644Y-13837D01*
X18644Y-13837D02*
X18844Y-13837D01*
X18844Y-13837D02*
X18977Y-13971D01*
X19296Y-13837D02*
X19696Y-13837D01*
X19696Y-13837D02*
X19763Y-13904D01*
X19763Y-13904D02*
X19763Y-14237D01*
X19763Y-14237D02*
X19363Y-14237D01*
X19363Y-14237D02*
X19296Y-14171D01*
X19296Y-14171D02*
X19296Y-14104D01*
X19296Y-14104D02*
X19363Y-14037D01*
X19363Y-14037D02*
X19763Y-14037D01*
X20216Y-13637D02*
X20282Y-13637D01*
X20282Y-13637D02*
X20282Y-14237D01*
X20216Y-14237D02*
X20349Y-14237D01*
X21268Y-14171D02*
X21202Y-14237D01*
X21202Y-14237D02*
X21002Y-14237D01*
X21002Y-14237D02*
X20935Y-14171D01*
X20935Y-14171D02*
X20935Y-13637D01*
X20935Y-13837D02*
X21135Y-13837D01*
X21654Y-13837D02*
X22054Y-13837D01*
X22054Y-13837D02*
X22121Y-13904D01*
X22121Y-13904D02*
X22121Y-14237D01*
X22121Y-14237D02*
X21721Y-14237D01*
X21721Y-14237D02*
X21654Y-14171D01*
X21654Y-14171D02*
X21654Y-14104D01*
X21654Y-14104D02*
X21721Y-14037D01*
X21721Y-14037D02*
X22121Y-14037D01*
G54D39*
X07004Y-34591D02*
X06847Y-34591D01*
X06847Y-34608D02*
X06847Y-34503D01*
X06847Y-34503D02*
X06865Y-34486D01*
X06865Y-34486D02*
X06987Y-34486D01*
X06987Y-34486D02*
X07004Y-34503D01*
X07004Y-34503D02*
X07004Y-34608D01*
X07004Y-34379D02*
X07004Y-34309D01*
X07004Y-34344D02*
X06847Y-34344D01*
X06865Y-34344D02*
X06900Y-34379D01*
X07004Y-34220D02*
X06847Y-34098D01*
X06987Y-34220D02*
X06865Y-34220D01*
X06865Y-34220D02*
X06847Y-34203D01*
X06847Y-34203D02*
X06847Y-34115D01*
X06847Y-34115D02*
X06865Y-34098D01*
X06865Y-34098D02*
X06987Y-34098D01*
X06987Y-34098D02*
X07004Y-34115D01*
X07004Y-34115D02*
X07004Y-34203D01*
X07004Y-34203D02*
X06987Y-34220D01*
X24368Y-31131D02*
X24402Y-31114D01*
X24402Y-31114D02*
X24402Y-31079D01*
X24402Y-31079D02*
X24385Y-31061D01*
X24385Y-31061D02*
X24245Y-31061D01*
X24245Y-31096D02*
X24245Y-31026D01*
X24402Y-30815D02*
X24402Y-30937D01*
X24402Y-30937D02*
X24350Y-30937D01*
X24350Y-30937D02*
X24333Y-30920D01*
X24333Y-30920D02*
X24333Y-30832D01*
X24333Y-30832D02*
X24315Y-30815D01*
X24315Y-30815D02*
X24263Y-30815D01*
X24263Y-30815D02*
X24245Y-30832D01*
X24245Y-30832D02*
X24245Y-30920D01*
X24245Y-30920D02*
X24263Y-30937D01*
X24402Y-30743D02*
X24245Y-30621D01*
X24385Y-30743D02*
X24263Y-30743D01*
X24263Y-30743D02*
X24245Y-30726D01*
X24245Y-30726D02*
X24245Y-30638D01*
X24245Y-30638D02*
X24263Y-30621D01*
X24263Y-30621D02*
X24385Y-30621D01*
X24385Y-30621D02*
X24402Y-30638D01*
X24402Y-30638D02*
X24402Y-30726D01*
X24402Y-30726D02*
X24385Y-30743D01*
X10925Y-30588D02*
X11082Y-30588D01*
X11082Y-30588D02*
X11082Y-30448D01*
X11082Y-30359D02*
X11082Y-30289D01*
X11082Y-30324D02*
X10925Y-30324D01*
X10943Y-30324D02*
X10978Y-30359D01*
X10925Y-30200D02*
X10925Y-30078D01*
X10925Y-30078D02*
X10943Y-30078D01*
X10943Y-30078D02*
X10995Y-30148D01*
X10995Y-30148D02*
X10995Y-30095D01*
X10995Y-30095D02*
X11013Y-30078D01*
X11013Y-30078D02*
X11065Y-30078D01*
X11065Y-30078D02*
X11082Y-30095D01*
X11082Y-30095D02*
X11082Y-30183D01*
X11082Y-30183D02*
X11065Y-30200D01*
X19873Y-35109D02*
X19873Y-35266D01*
X19873Y-35266D02*
X20013Y-35266D01*
X20102Y-35266D02*
X20172Y-35266D01*
X20137Y-35266D02*
X20137Y-35109D01*
X20137Y-35127D02*
X20102Y-35162D01*
X20348Y-35266D02*
X20348Y-35109D01*
X20348Y-35109D02*
X20261Y-35232D01*
X20261Y-35232D02*
X20383Y-35232D01*
G54D36*
X31385Y-26199D02*
X31352Y-26232D01*
X31352Y-26232D02*
X31185Y-26232D01*
X31185Y-26232D02*
X31152Y-26199D01*
X31152Y-26199D02*
X31152Y-25966D01*
X31152Y-25966D02*
X31185Y-25932D01*
X31185Y-25932D02*
X31352Y-25932D01*
X31352Y-25932D02*
X31385Y-25966D01*
X31535Y-25932D02*
X31768Y-25932D01*
X31768Y-25932D02*
X31535Y-26232D01*
X32151Y-25966D02*
X32118Y-25932D01*
X32118Y-25932D02*
X31951Y-25932D01*
X31951Y-25932D02*
X31918Y-25966D01*
X31918Y-25966D02*
X31918Y-26199D01*
X31918Y-26199D02*
X31951Y-26232D01*
X31951Y-26232D02*
X32118Y-26232D01*
X32118Y-26232D02*
X32151Y-26199D01*
X32151Y-26199D02*
X32151Y-26099D01*
X32151Y-26099D02*
X32118Y-26066D01*
X32118Y-26066D02*
X31951Y-26066D01*
X31951Y-26066D02*
X31918Y-26099D01*
X31385Y-25018D02*
X31352Y-25051D01*
X31352Y-25051D02*
X31185Y-25051D01*
X31185Y-25051D02*
X31152Y-25018D01*
X31152Y-25018D02*
X31152Y-24785D01*
X31152Y-24785D02*
X31185Y-24751D01*
X31185Y-24751D02*
X31352Y-24751D01*
X31352Y-24751D02*
X31385Y-24785D01*
X31535Y-24985D02*
X31535Y-25018D01*
X31535Y-25018D02*
X31568Y-25051D01*
X31568Y-25051D02*
X31735Y-25051D01*
X31735Y-25051D02*
X31768Y-25018D01*
X31768Y-25018D02*
X31768Y-24918D01*
X31768Y-24918D02*
X31702Y-24851D01*
X31702Y-24851D02*
X31535Y-24851D01*
X31535Y-24851D02*
X31535Y-24751D01*
X31535Y-24751D02*
X31768Y-24751D01*
X31951Y-25051D02*
X32118Y-25051D01*
X32118Y-25051D02*
X32151Y-25018D01*
X32151Y-25018D02*
X32151Y-24785D01*
X32151Y-24785D02*
X32118Y-24751D01*
X32118Y-24751D02*
X31951Y-24751D01*
X31951Y-24751D02*
X31918Y-24785D01*
X31918Y-24785D02*
X31918Y-24885D01*
X31918Y-24885D02*
X31951Y-24918D01*
X31951Y-24918D02*
X32118Y-24918D01*
X32118Y-24918D02*
X32151Y-24885D01*
X18818Y-26685D02*
X18851Y-26718D01*
X18851Y-26718D02*
X18851Y-26885D01*
X18851Y-26885D02*
X18818Y-26918D01*
X18818Y-26918D02*
X18585Y-26918D01*
X18585Y-26918D02*
X18551Y-26885D01*
X18551Y-26885D02*
X18551Y-26718D01*
X18551Y-26718D02*
X18585Y-26685D01*
X18585Y-26302D02*
X18551Y-26335D01*
X18551Y-26335D02*
X18551Y-26502D01*
X18551Y-26502D02*
X18585Y-26535D01*
X18585Y-26535D02*
X18818Y-26535D01*
X18818Y-26535D02*
X18851Y-26502D01*
X18851Y-26502D02*
X18851Y-26335D01*
X18851Y-26335D02*
X18818Y-26302D01*
X18818Y-26302D02*
X18718Y-26302D01*
X18718Y-26302D02*
X18685Y-26335D01*
X18685Y-26335D02*
X18685Y-26502D01*
X18685Y-26502D02*
X18718Y-26535D01*
X18851Y-26085D02*
X18851Y-25952D01*
X18851Y-26019D02*
X18551Y-26019D01*
X18585Y-26019D02*
X18651Y-26085D01*
X17341Y-26685D02*
X17374Y-26718D01*
X17374Y-26718D02*
X17374Y-26885D01*
X17374Y-26885D02*
X17341Y-26918D01*
X17341Y-26918D02*
X17108Y-26918D01*
X17108Y-26918D02*
X17074Y-26885D01*
X17074Y-26885D02*
X17074Y-26718D01*
X17074Y-26718D02*
X17108Y-26685D01*
X17108Y-26302D02*
X17074Y-26335D01*
X17074Y-26335D02*
X17074Y-26502D01*
X17074Y-26502D02*
X17108Y-26535D01*
X17108Y-26535D02*
X17341Y-26535D01*
X17341Y-26535D02*
X17374Y-26502D01*
X17374Y-26502D02*
X17374Y-26335D01*
X17374Y-26335D02*
X17341Y-26302D01*
X17341Y-26302D02*
X17241Y-26302D01*
X17241Y-26302D02*
X17208Y-26335D01*
X17208Y-26335D02*
X17208Y-26502D01*
X17208Y-26502D02*
X17241Y-26535D01*
X17374Y-25919D02*
X17374Y-26152D01*
X17374Y-26152D02*
X17274Y-26152D01*
X17274Y-26152D02*
X17241Y-26119D01*
X17241Y-26119D02*
X17241Y-25952D01*
X17241Y-25952D02*
X17208Y-25919D01*
X17208Y-25919D02*
X17108Y-25919D01*
X17108Y-25919D02*
X17074Y-25952D01*
X17074Y-25952D02*
X17074Y-26119D01*
X17074Y-26119D02*
X17108Y-26152D01*
X15963Y-26685D02*
X15996Y-26718D01*
X15996Y-26718D02*
X15996Y-26885D01*
X15996Y-26885D02*
X15963Y-26918D01*
X15963Y-26918D02*
X15730Y-26918D01*
X15730Y-26918D02*
X15696Y-26885D01*
X15696Y-26885D02*
X15696Y-26718D01*
X15696Y-26718D02*
X15730Y-26685D01*
X15730Y-26302D02*
X15696Y-26335D01*
X15696Y-26335D02*
X15696Y-26502D01*
X15696Y-26502D02*
X15730Y-26535D01*
X15730Y-26535D02*
X15963Y-26535D01*
X15963Y-26535D02*
X15996Y-26502D01*
X15996Y-26502D02*
X15996Y-26335D01*
X15996Y-26335D02*
X15963Y-26302D01*
X15963Y-26302D02*
X15863Y-26302D01*
X15863Y-26302D02*
X15830Y-26335D01*
X15830Y-26335D02*
X15830Y-26502D01*
X15830Y-26502D02*
X15863Y-26535D01*
X15696Y-26152D02*
X15696Y-25919D01*
X15696Y-25919D02*
X15730Y-25919D01*
X15730Y-25919D02*
X15830Y-26052D01*
X15830Y-26052D02*
X15830Y-25952D01*
X15830Y-25952D02*
X15863Y-25919D01*
X15863Y-25919D02*
X15963Y-25919D01*
X15963Y-25919D02*
X15996Y-25952D01*
X15996Y-25952D02*
X15996Y-26119D01*
X15996Y-26119D02*
X15963Y-26152D01*
X14585Y-26685D02*
X14618Y-26718D01*
X14618Y-26718D02*
X14618Y-26885D01*
X14618Y-26885D02*
X14585Y-26918D01*
X14585Y-26918D02*
X14352Y-26918D01*
X14352Y-26918D02*
X14318Y-26885D01*
X14318Y-26885D02*
X14318Y-26718D01*
X14318Y-26718D02*
X14352Y-26685D01*
X14352Y-26302D02*
X14318Y-26335D01*
X14318Y-26335D02*
X14318Y-26502D01*
X14318Y-26502D02*
X14352Y-26535D01*
X14352Y-26535D02*
X14585Y-26535D01*
X14585Y-26535D02*
X14618Y-26502D01*
X14618Y-26502D02*
X14618Y-26335D01*
X14618Y-26335D02*
X14585Y-26302D01*
X14585Y-26302D02*
X14485Y-26302D01*
X14485Y-26302D02*
X14452Y-26335D01*
X14452Y-26335D02*
X14452Y-26502D01*
X14452Y-26502D02*
X14485Y-26535D01*
X14618Y-25985D02*
X14318Y-25985D01*
X14318Y-25985D02*
X14552Y-26152D01*
X14552Y-26152D02*
X14552Y-25919D01*
X18453Y-35142D02*
X18486Y-35175D01*
X18486Y-35175D02*
X18486Y-35342D01*
X18486Y-35342D02*
X18453Y-35375D01*
X18453Y-35375D02*
X18220Y-35375D01*
X18220Y-35375D02*
X18186Y-35342D01*
X18186Y-35342D02*
X18186Y-35175D01*
X18186Y-35175D02*
X18220Y-35142D01*
X18220Y-34759D02*
X18186Y-34792D01*
X18186Y-34792D02*
X18186Y-34959D01*
X18186Y-34959D02*
X18220Y-34992D01*
X18220Y-34992D02*
X18453Y-34992D01*
X18453Y-34992D02*
X18486Y-34959D01*
X18486Y-34959D02*
X18486Y-34792D01*
X18486Y-34792D02*
X18453Y-34759D01*
X18453Y-34759D02*
X18353Y-34759D01*
X18353Y-34759D02*
X18320Y-34792D01*
X18320Y-34792D02*
X18320Y-34959D01*
X18320Y-34959D02*
X18353Y-34992D01*
X18420Y-34609D02*
X18453Y-34609D01*
X18453Y-34609D02*
X18486Y-34576D01*
X18486Y-34576D02*
X18486Y-34409D01*
X18486Y-34409D02*
X18453Y-34376D01*
X18453Y-34376D02*
X18353Y-34376D01*
X18353Y-34376D02*
X18286Y-34442D01*
X18286Y-34442D02*
X18286Y-34609D01*
X18286Y-34609D02*
X18186Y-34609D01*
X18186Y-34609D02*
X18186Y-34376D01*
X16977Y-35140D02*
X17010Y-35173D01*
X17010Y-35173D02*
X17010Y-35340D01*
X17010Y-35340D02*
X16977Y-35373D01*
X16977Y-35373D02*
X16744Y-35373D01*
X16744Y-35373D02*
X16710Y-35340D01*
X16710Y-35340D02*
X16710Y-35173D01*
X16710Y-35173D02*
X16744Y-35140D01*
X16744Y-34757D02*
X16710Y-34790D01*
X16710Y-34790D02*
X16710Y-34957D01*
X16710Y-34957D02*
X16744Y-34990D01*
X16744Y-34990D02*
X16977Y-34990D01*
X16977Y-34990D02*
X17010Y-34957D01*
X17010Y-34957D02*
X17010Y-34790D01*
X17010Y-34790D02*
X16977Y-34757D01*
X16977Y-34757D02*
X16877Y-34757D01*
X16877Y-34757D02*
X16844Y-34790D01*
X16844Y-34790D02*
X16844Y-34957D01*
X16844Y-34957D02*
X16877Y-34990D01*
X16744Y-34374D02*
X16710Y-34407D01*
X16710Y-34407D02*
X16710Y-34574D01*
X16710Y-34574D02*
X16744Y-34607D01*
X16744Y-34607D02*
X16977Y-34607D01*
X16977Y-34607D02*
X17010Y-34574D01*
X17010Y-34574D02*
X17010Y-34407D01*
X17010Y-34407D02*
X16977Y-34374D01*
X16977Y-34374D02*
X16877Y-34374D01*
X16877Y-34374D02*
X16844Y-34407D01*
X16844Y-34407D02*
X16844Y-34574D01*
X16844Y-34574D02*
X16877Y-34607D01*
X15796Y-35140D02*
X15829Y-35173D01*
X15829Y-35173D02*
X15829Y-35340D01*
X15829Y-35340D02*
X15796Y-35373D01*
X15796Y-35373D02*
X15563Y-35373D01*
X15563Y-35373D02*
X15529Y-35340D01*
X15529Y-35340D02*
X15529Y-35173D01*
X15529Y-35173D02*
X15563Y-35140D01*
X15563Y-34757D02*
X15529Y-34790D01*
X15529Y-34790D02*
X15529Y-34957D01*
X15529Y-34957D02*
X15563Y-34990D01*
X15563Y-34990D02*
X15796Y-34990D01*
X15796Y-34990D02*
X15829Y-34957D01*
X15829Y-34957D02*
X15829Y-34790D01*
X15829Y-34790D02*
X15796Y-34757D01*
X15796Y-34757D02*
X15696Y-34757D01*
X15696Y-34757D02*
X15663Y-34790D01*
X15663Y-34790D02*
X15663Y-34957D01*
X15663Y-34957D02*
X15696Y-34990D01*
X15529Y-34607D02*
X15529Y-34374D01*
X15529Y-34374D02*
X15829Y-34607D01*
X14615Y-35140D02*
X14648Y-35173D01*
X14648Y-35173D02*
X14648Y-35340D01*
X14648Y-35340D02*
X14615Y-35373D01*
X14615Y-35373D02*
X14382Y-35373D01*
X14382Y-35373D02*
X14348Y-35340D01*
X14348Y-35340D02*
X14348Y-35173D01*
X14348Y-35173D02*
X14382Y-35140D01*
X14382Y-34757D02*
X14348Y-34790D01*
X14348Y-34790D02*
X14348Y-34957D01*
X14348Y-34957D02*
X14382Y-34990D01*
X14382Y-34990D02*
X14615Y-34990D01*
X14615Y-34990D02*
X14648Y-34957D01*
X14648Y-34957D02*
X14648Y-34790D01*
X14648Y-34790D02*
X14615Y-34757D01*
X14615Y-34757D02*
X14515Y-34757D01*
X14515Y-34757D02*
X14482Y-34790D01*
X14482Y-34790D02*
X14482Y-34957D01*
X14482Y-34957D02*
X14515Y-34990D01*
X14648Y-34574D02*
X14615Y-34607D01*
X14615Y-34607D02*
X14515Y-34607D01*
X14515Y-34607D02*
X14482Y-34574D01*
X14482Y-34574D02*
X14482Y-34407D01*
X14482Y-34407D02*
X14448Y-34374D01*
X14448Y-34374D02*
X14382Y-34374D01*
X14382Y-34374D02*
X14348Y-34407D01*
X14348Y-34407D02*
X14348Y-34574D01*
X14348Y-34574D02*
X14382Y-34607D01*
X14382Y-34607D02*
X14448Y-34607D01*
X14448Y-34607D02*
X14482Y-34574D01*
X14482Y-34407D02*
X14515Y-34374D01*
X14515Y-34374D02*
X14615Y-34374D01*
X14615Y-34374D02*
X14648Y-34407D01*
X14648Y-34407D02*
X14648Y-34574D01*
X13433Y-35140D02*
X13466Y-35173D01*
X13466Y-35173D02*
X13466Y-35340D01*
X13466Y-35340D02*
X13433Y-35373D01*
X13433Y-35373D02*
X13200Y-35373D01*
X13200Y-35373D02*
X13166Y-35340D01*
X13166Y-35340D02*
X13166Y-35173D01*
X13166Y-35173D02*
X13200Y-35140D01*
X13200Y-34757D02*
X13166Y-34790D01*
X13166Y-34790D02*
X13166Y-34957D01*
X13166Y-34957D02*
X13200Y-34990D01*
X13200Y-34990D02*
X13433Y-34990D01*
X13433Y-34990D02*
X13466Y-34957D01*
X13466Y-34957D02*
X13466Y-34790D01*
X13466Y-34790D02*
X13433Y-34757D01*
X13433Y-34757D02*
X13333Y-34757D01*
X13333Y-34757D02*
X13300Y-34790D01*
X13300Y-34790D02*
X13300Y-34957D01*
X13300Y-34957D02*
X13333Y-34990D01*
X13466Y-34574D02*
X13466Y-34407D01*
X13466Y-34407D02*
X13433Y-34374D01*
X13433Y-34374D02*
X13200Y-34374D01*
X13200Y-34374D02*
X13166Y-34407D01*
X13166Y-34407D02*
X13166Y-34574D01*
X13166Y-34574D02*
X13200Y-34607D01*
X13200Y-34607D02*
X13300Y-34607D01*
X13300Y-34607D02*
X13333Y-34574D01*
X13333Y-34574D02*
X13333Y-34407D01*
X13333Y-34407D02*
X13300Y-34374D01*
X10087Y-35140D02*
X10120Y-35173D01*
X10120Y-35173D02*
X10120Y-35340D01*
X10120Y-35340D02*
X10087Y-35373D01*
X10087Y-35373D02*
X09854Y-35373D01*
X09854Y-35373D02*
X09820Y-35340D01*
X09820Y-35340D02*
X09820Y-35173D01*
X09820Y-35173D02*
X09854Y-35140D01*
X09820Y-34990D02*
X09820Y-34757D01*
X09820Y-34757D02*
X10120Y-34990D01*
X10120Y-34607D02*
X09820Y-34374D01*
X10087Y-34607D02*
X09854Y-34607D01*
X09854Y-34607D02*
X09820Y-34574D01*
X09820Y-34574D02*
X09820Y-34407D01*
X09820Y-34407D02*
X09854Y-34374D01*
X09854Y-34374D02*
X10087Y-34374D01*
X10087Y-34374D02*
X10120Y-34407D01*
X10120Y-34407D02*
X10120Y-34574D01*
X10120Y-34574D02*
X10087Y-34607D01*
X12252Y-35140D02*
X12285Y-35173D01*
X12285Y-35173D02*
X12285Y-35340D01*
X12285Y-35340D02*
X12252Y-35373D01*
X12252Y-35373D02*
X12019Y-35373D01*
X12019Y-35373D02*
X11985Y-35340D01*
X11985Y-35340D02*
X11985Y-35173D01*
X11985Y-35173D02*
X12019Y-35140D01*
X11985Y-34990D02*
X11985Y-34757D01*
X11985Y-34757D02*
X12285Y-34990D01*
X12285Y-34540D02*
X12285Y-34407D01*
X12285Y-34474D02*
X11985Y-34474D01*
X12019Y-34474D02*
X12085Y-34540D01*
X11170Y-35140D02*
X11203Y-35173D01*
X11203Y-35173D02*
X11203Y-35340D01*
X11203Y-35340D02*
X11170Y-35373D01*
X11170Y-35373D02*
X10937Y-35373D01*
X10937Y-35373D02*
X10903Y-35340D01*
X10903Y-35340D02*
X10903Y-35173D01*
X10903Y-35173D02*
X10937Y-35140D01*
X10903Y-34990D02*
X10903Y-34757D01*
X10903Y-34757D02*
X11203Y-34990D01*
X11203Y-34374D02*
X11203Y-34607D01*
X11203Y-34607D02*
X11103Y-34607D01*
X11103Y-34607D02*
X11070Y-34574D01*
X11070Y-34574D02*
X11070Y-34407D01*
X11070Y-34407D02*
X11037Y-34374D01*
X11037Y-34374D02*
X10937Y-34374D01*
X10937Y-34374D02*
X10903Y-34407D01*
X10903Y-34407D02*
X10903Y-34574D01*
X10903Y-34574D02*
X10937Y-34607D01*
X13207Y-26685D02*
X13240Y-26718D01*
X13240Y-26718D02*
X13240Y-26885D01*
X13240Y-26885D02*
X13207Y-26918D01*
X13207Y-26918D02*
X12974Y-26918D01*
X12974Y-26918D02*
X12940Y-26885D01*
X12940Y-26885D02*
X12940Y-26718D01*
X12940Y-26718D02*
X12974Y-26685D01*
X12940Y-26535D02*
X12940Y-26302D01*
X12940Y-26302D02*
X13240Y-26535D01*
X12940Y-26152D02*
X12940Y-25919D01*
X12940Y-25919D02*
X12974Y-25919D01*
X12974Y-25919D02*
X13074Y-26052D01*
X13074Y-26052D02*
X13074Y-25952D01*
X13074Y-25952D02*
X13107Y-25919D01*
X13107Y-25919D02*
X13207Y-25919D01*
X13207Y-25919D02*
X13240Y-25952D01*
X13240Y-25952D02*
X13240Y-26119D01*
X13240Y-26119D02*
X13207Y-26152D01*
X09004Y-35140D02*
X09037Y-35173D01*
X09037Y-35173D02*
X09037Y-35340D01*
X09037Y-35340D02*
X09004Y-35373D01*
X09004Y-35373D02*
X08771Y-35373D01*
X08771Y-35373D02*
X08737Y-35340D01*
X08737Y-35340D02*
X08737Y-35173D01*
X08737Y-35173D02*
X08771Y-35140D01*
X08737Y-34990D02*
X08737Y-34757D01*
X08737Y-34757D02*
X09037Y-34990D01*
X09037Y-34440D02*
X08737Y-34440D01*
X08737Y-34440D02*
X08971Y-34607D01*
X08971Y-34607D02*
X08971Y-34374D01*
X07922Y-35140D02*
X07955Y-35173D01*
X07955Y-35173D02*
X07955Y-35340D01*
X07955Y-35340D02*
X07922Y-35373D01*
X07922Y-35373D02*
X07689Y-35373D01*
X07689Y-35373D02*
X07655Y-35340D01*
X07655Y-35340D02*
X07655Y-35173D01*
X07655Y-35173D02*
X07689Y-35140D01*
X07655Y-34990D02*
X07655Y-34757D01*
X07655Y-34757D02*
X07955Y-34990D01*
X07889Y-34607D02*
X07922Y-34607D01*
X07922Y-34607D02*
X07955Y-34574D01*
X07955Y-34574D02*
X07955Y-34407D01*
X07955Y-34407D02*
X07922Y-34374D01*
X07922Y-34374D02*
X07822Y-34374D01*
X07822Y-34374D02*
X07755Y-34440D01*
X07755Y-34440D02*
X07755Y-34607D01*
X07755Y-34607D02*
X07655Y-34607D01*
X07655Y-34607D02*
X07655Y-34374D01*
X25831Y-21803D02*
X25831Y-21503D01*
X25831Y-21503D02*
X26031Y-21503D01*
X26031Y-21503D02*
X26064Y-21537D01*
X26064Y-21537D02*
X26064Y-21637D01*
X26064Y-21637D02*
X26031Y-21670D01*
X26031Y-21670D02*
X25831Y-21670D01*
X25931Y-21670D02*
X26064Y-21803D01*
X26281Y-21803D02*
X26414Y-21803D01*
X26347Y-21803D02*
X26347Y-21503D01*
X26347Y-21537D02*
X26281Y-21603D01*
X25831Y-20622D02*
X25831Y-20322D01*
X25831Y-20322D02*
X26031Y-20322D01*
X26031Y-20322D02*
X26064Y-20356D01*
X26064Y-20356D02*
X26064Y-20456D01*
X26064Y-20456D02*
X26031Y-20489D01*
X26031Y-20489D02*
X25831Y-20489D01*
X25931Y-20489D02*
X26064Y-20622D01*
X26447Y-20622D02*
X26214Y-20622D01*
X26214Y-20622D02*
X26214Y-20522D01*
X26214Y-20522D02*
X26247Y-20489D01*
X26247Y-20489D02*
X26414Y-20489D01*
X26414Y-20489D02*
X26447Y-20456D01*
X26447Y-20456D02*
X26447Y-20356D01*
X26447Y-20356D02*
X26414Y-20322D01*
X26414Y-20322D02*
X26247Y-20322D01*
X26247Y-20322D02*
X26214Y-20356D01*
X25831Y-19441D02*
X25831Y-19141D01*
X25831Y-19141D02*
X26031Y-19141D01*
X26031Y-19141D02*
X26064Y-19175D01*
X26064Y-19175D02*
X26064Y-19275D01*
X26064Y-19275D02*
X26031Y-19308D01*
X26031Y-19308D02*
X25831Y-19308D01*
X25931Y-19308D02*
X26064Y-19441D01*
X26214Y-19141D02*
X26447Y-19141D01*
X26447Y-19141D02*
X26447Y-19175D01*
X26447Y-19175D02*
X26314Y-19275D01*
X26314Y-19275D02*
X26414Y-19275D01*
X26414Y-19275D02*
X26447Y-19308D01*
X26447Y-19308D02*
X26447Y-19408D01*
X26447Y-19408D02*
X26414Y-19441D01*
X26414Y-19441D02*
X26247Y-19441D01*
X26247Y-19441D02*
X26214Y-19408D01*
X25831Y-18260D02*
X25831Y-17960D01*
X25831Y-17960D02*
X26031Y-17960D01*
X26031Y-17960D02*
X26064Y-17994D01*
X26064Y-17994D02*
X26064Y-18094D01*
X26064Y-18094D02*
X26031Y-18127D01*
X26031Y-18127D02*
X25831Y-18127D01*
X25931Y-18127D02*
X26064Y-18260D01*
X26381Y-18260D02*
X26381Y-17960D01*
X26381Y-17960D02*
X26214Y-18194D01*
X26214Y-18194D02*
X26447Y-18194D01*
X25831Y-17079D02*
X25831Y-16779D01*
X25831Y-16779D02*
X26031Y-16779D01*
X26031Y-16779D02*
X26064Y-16813D01*
X26064Y-16813D02*
X26064Y-16913D01*
X26064Y-16913D02*
X26031Y-16946D01*
X26031Y-16946D02*
X25831Y-16946D01*
X25931Y-16946D02*
X26064Y-17079D01*
X26214Y-17013D02*
X26214Y-17046D01*
X26214Y-17046D02*
X26247Y-17079D01*
X26247Y-17079D02*
X26414Y-17079D01*
X26414Y-17079D02*
X26447Y-17046D01*
X26447Y-17046D02*
X26447Y-16946D01*
X26447Y-16946D02*
X26381Y-16879D01*
X26381Y-16879D02*
X26214Y-16879D01*
X26214Y-16879D02*
X26214Y-16779D01*
X26214Y-16779D02*
X26447Y-16779D01*
X25831Y-15897D02*
X25831Y-15597D01*
X25831Y-15597D02*
X26031Y-15597D01*
X26031Y-15597D02*
X26064Y-15631D01*
X26064Y-15631D02*
X26064Y-15731D01*
X26064Y-15731D02*
X26031Y-15764D01*
X26031Y-15764D02*
X25831Y-15764D01*
X25931Y-15764D02*
X26064Y-15897D01*
X26447Y-15631D02*
X26414Y-15597D01*
X26414Y-15597D02*
X26247Y-15597D01*
X26247Y-15597D02*
X26214Y-15631D01*
X26214Y-15631D02*
X26214Y-15864D01*
X26214Y-15864D02*
X26247Y-15897D01*
X26247Y-15897D02*
X26414Y-15897D01*
X26414Y-15897D02*
X26447Y-15864D01*
X26447Y-15864D02*
X26447Y-15764D01*
X26447Y-15764D02*
X26414Y-15731D01*
X26414Y-15731D02*
X26247Y-15731D01*
X26247Y-15731D02*
X26214Y-15764D01*
X25831Y-14716D02*
X25831Y-14416D01*
X25831Y-14416D02*
X26031Y-14416D01*
X26031Y-14416D02*
X26064Y-14450D01*
X26064Y-14450D02*
X26064Y-14550D01*
X26064Y-14550D02*
X26031Y-14583D01*
X26031Y-14583D02*
X25831Y-14583D01*
X25931Y-14583D02*
X26064Y-14716D01*
X26214Y-14416D02*
X26447Y-14416D01*
X26447Y-14416D02*
X26214Y-14716D01*
X25870Y-13457D02*
X25870Y-13157D01*
X25870Y-13157D02*
X26070Y-13157D01*
X26070Y-13157D02*
X26103Y-13191D01*
X26103Y-13191D02*
X26103Y-13291D01*
X26103Y-13291D02*
X26070Y-13324D01*
X26070Y-13324D02*
X25870Y-13324D01*
X25970Y-13324D02*
X26103Y-13457D01*
X26286Y-13457D02*
X26253Y-13424D01*
X26253Y-13424D02*
X26253Y-13324D01*
X26253Y-13324D02*
X26286Y-13291D01*
X26286Y-13291D02*
X26453Y-13291D01*
X26453Y-13291D02*
X26486Y-13257D01*
X26486Y-13257D02*
X26486Y-13191D01*
X26486Y-13191D02*
X26453Y-13157D01*
X26453Y-13157D02*
X26286Y-13157D01*
X26286Y-13157D02*
X26253Y-13191D01*
X26253Y-13191D02*
X26253Y-13257D01*
X26253Y-13257D02*
X26286Y-13291D01*
X26453Y-13291D02*
X26486Y-13324D01*
X26486Y-13324D02*
X26486Y-13424D01*
X26486Y-13424D02*
X26453Y-13457D01*
X26453Y-13457D02*
X26286Y-13457D01*
X10384Y-28398D02*
X10384Y-28098D01*
X10384Y-28098D02*
X10584Y-28098D01*
X10584Y-28098D02*
X10617Y-28132D01*
X10617Y-28132D02*
X10617Y-28232D01*
X10617Y-28232D02*
X10584Y-28265D01*
X10584Y-28265D02*
X10384Y-28265D01*
X10484Y-28265D02*
X10617Y-28398D01*
X10767Y-28098D02*
X11000Y-28098D01*
X11000Y-28098D02*
X11000Y-28132D01*
X11000Y-28132D02*
X10867Y-28232D01*
X10867Y-28232D02*
X10967Y-28232D01*
X10967Y-28232D02*
X11000Y-28265D01*
X11000Y-28265D02*
X11000Y-28365D01*
X11000Y-28365D02*
X10967Y-28398D01*
X10967Y-28398D02*
X10800Y-28398D01*
X10800Y-28398D02*
X10767Y-28365D01*
X11383Y-28132D02*
X11350Y-28098D01*
X11350Y-28098D02*
X11183Y-28098D01*
X11183Y-28098D02*
X11150Y-28132D01*
X11150Y-28132D02*
X11150Y-28365D01*
X11150Y-28365D02*
X11183Y-28398D01*
X11183Y-28398D02*
X11350Y-28398D01*
X11350Y-28398D02*
X11383Y-28365D01*
X11383Y-28365D02*
X11383Y-28265D01*
X11383Y-28265D02*
X11350Y-28232D01*
X11350Y-28232D02*
X11183Y-28232D01*
X11183Y-28232D02*
X11150Y-28265D01*
X28299Y-28493D02*
X27999Y-28493D01*
X27999Y-28493D02*
X27999Y-28293D01*
X27999Y-28293D02*
X28033Y-28260D01*
X28033Y-28260D02*
X28133Y-28260D01*
X28133Y-28260D02*
X28166Y-28293D01*
X28166Y-28293D02*
X28166Y-28493D01*
X28166Y-28393D02*
X28299Y-28260D01*
X27999Y-28110D02*
X27999Y-27877D01*
X27999Y-27877D02*
X28033Y-27877D01*
X28033Y-27877D02*
X28133Y-28010D01*
X28133Y-28010D02*
X28133Y-27910D01*
X28133Y-27910D02*
X28166Y-27877D01*
X28166Y-27877D02*
X28266Y-27877D01*
X28266Y-27877D02*
X28299Y-27910D01*
X28299Y-27910D02*
X28299Y-28077D01*
X28299Y-28077D02*
X28266Y-28110D01*
X27999Y-27727D02*
X27999Y-27494D01*
X27999Y-27494D02*
X28299Y-27727D01*
X29874Y-28493D02*
X29574Y-28493D01*
X29574Y-28493D02*
X29574Y-28293D01*
X29574Y-28293D02*
X29608Y-28260D01*
X29608Y-28260D02*
X29708Y-28260D01*
X29708Y-28260D02*
X29741Y-28293D01*
X29741Y-28293D02*
X29741Y-28493D01*
X29741Y-28393D02*
X29874Y-28260D01*
X29574Y-28110D02*
X29574Y-27877D01*
X29574Y-27877D02*
X29608Y-27877D01*
X29608Y-27877D02*
X29708Y-28010D01*
X29708Y-28010D02*
X29708Y-27910D01*
X29708Y-27910D02*
X29741Y-27877D01*
X29741Y-27877D02*
X29841Y-27877D01*
X29841Y-27877D02*
X29874Y-27910D01*
X29874Y-27910D02*
X29874Y-28077D01*
X29874Y-28077D02*
X29841Y-28110D01*
X29874Y-27694D02*
X29841Y-27727D01*
X29841Y-27727D02*
X29741Y-27727D01*
X29741Y-27727D02*
X29708Y-27694D01*
X29708Y-27694D02*
X29708Y-27527D01*
X29708Y-27527D02*
X29674Y-27494D01*
X29674Y-27494D02*
X29608Y-27494D01*
X29608Y-27494D02*
X29574Y-27527D01*
X29574Y-27527D02*
X29574Y-27694D01*
X29574Y-27694D02*
X29608Y-27727D01*
X29608Y-27727D02*
X29674Y-27727D01*
X29674Y-27727D02*
X29708Y-27694D01*
X29708Y-27527D02*
X29741Y-27494D01*
X29741Y-27494D02*
X29841Y-27494D01*
X29841Y-27494D02*
X29874Y-27527D01*
X29874Y-27527D02*
X29874Y-27694D01*
X28299Y-30855D02*
X27999Y-30855D01*
X27999Y-30855D02*
X27999Y-30655D01*
X27999Y-30655D02*
X28033Y-30622D01*
X28033Y-30622D02*
X28133Y-30622D01*
X28133Y-30622D02*
X28166Y-30655D01*
X28166Y-30655D02*
X28166Y-30855D01*
X28166Y-30755D02*
X28299Y-30622D01*
X27999Y-30472D02*
X27999Y-30239D01*
X27999Y-30239D02*
X28033Y-30239D01*
X28033Y-30239D02*
X28133Y-30372D01*
X28133Y-30372D02*
X28133Y-30272D01*
X28133Y-30272D02*
X28166Y-30239D01*
X28166Y-30239D02*
X28266Y-30239D01*
X28266Y-30239D02*
X28299Y-30272D01*
X28299Y-30272D02*
X28299Y-30439D01*
X28299Y-30439D02*
X28266Y-30472D01*
X28299Y-30056D02*
X28299Y-29889D01*
X28299Y-29889D02*
X28266Y-29856D01*
X28266Y-29856D02*
X28033Y-29856D01*
X28033Y-29856D02*
X27999Y-29889D01*
X27999Y-29889D02*
X27999Y-30056D01*
X27999Y-30056D02*
X28033Y-30089D01*
X28033Y-30089D02*
X28133Y-30089D01*
X28133Y-30089D02*
X28166Y-30056D01*
X28166Y-30056D02*
X28166Y-29889D01*
X28166Y-29889D02*
X28133Y-29856D01*
X29874Y-30855D02*
X29574Y-30855D01*
X29574Y-30855D02*
X29574Y-30655D01*
X29574Y-30655D02*
X29608Y-30622D01*
X29608Y-30622D02*
X29708Y-30622D01*
X29708Y-30622D02*
X29741Y-30655D01*
X29741Y-30655D02*
X29741Y-30855D01*
X29741Y-30755D02*
X29874Y-30622D01*
X29874Y-30305D02*
X29574Y-30305D01*
X29574Y-30305D02*
X29808Y-30472D01*
X29808Y-30472D02*
X29808Y-30239D01*
X29874Y-30089D02*
X29574Y-29856D01*
X29841Y-30089D02*
X29608Y-30089D01*
X29608Y-30089D02*
X29574Y-30056D01*
X29574Y-30056D02*
X29574Y-29889D01*
X29574Y-29889D02*
X29608Y-29856D01*
X29608Y-29856D02*
X29841Y-29856D01*
X29841Y-29856D02*
X29874Y-29889D01*
X29874Y-29889D02*
X29874Y-30056D01*
X29874Y-30056D02*
X29841Y-30089D01*
X11862Y-26918D02*
X11562Y-26918D01*
X11562Y-26918D02*
X11562Y-26718D01*
X11562Y-26718D02*
X11596Y-26685D01*
X11596Y-26685D02*
X11696Y-26685D01*
X11696Y-26685D02*
X11729Y-26718D01*
X11729Y-26718D02*
X11729Y-26918D01*
X11729Y-26818D02*
X11862Y-26685D01*
X11862Y-26368D02*
X11562Y-26368D01*
X11562Y-26368D02*
X11796Y-26535D01*
X11796Y-26535D02*
X11796Y-26302D01*
X11862Y-26085D02*
X11862Y-25952D01*
X11862Y-26019D02*
X11562Y-26019D01*
X11596Y-26019D02*
X11662Y-26085D01*
X10451Y-26685D02*
X10484Y-26718D01*
X10484Y-26718D02*
X10484Y-26885D01*
X10484Y-26885D02*
X10451Y-26918D01*
X10451Y-26918D02*
X10218Y-26918D01*
X10218Y-26918D02*
X10184Y-26885D01*
X10184Y-26885D02*
X10184Y-26718D01*
X10184Y-26718D02*
X10218Y-26685D01*
X10184Y-26535D02*
X10184Y-26302D01*
X10184Y-26302D02*
X10484Y-26535D01*
X10184Y-26152D02*
X10184Y-25919D01*
X10184Y-25919D02*
X10484Y-26152D01*
G54D39*
X07895Y-29999D02*
X07895Y-29842D01*
X08017Y-29999D02*
X08017Y-29842D01*
X07895Y-29930D02*
X08017Y-29930D01*
X08124Y-29999D02*
X08194Y-29999D01*
X08159Y-29999D02*
X08159Y-29842D01*
X08159Y-29860D02*
X08124Y-29895D01*
X08283Y-29965D02*
X08283Y-29982D01*
X08283Y-29982D02*
X08300Y-29999D01*
X08300Y-29999D02*
X08388Y-29999D01*
X08388Y-29999D02*
X08405Y-29982D01*
X08405Y-29982D02*
X08405Y-29930D01*
X08405Y-29930D02*
X08370Y-29895D01*
X08370Y-29895D02*
X08283Y-29895D01*
X08283Y-29895D02*
X08283Y-29842D01*
X08283Y-29842D02*
X08405Y-29842D01*
M02*
