G04 (created by PCBnew (20090216-final)) date Wed 20 Oct 2010 02:22:37 PM COT*
G01*
G70*
G90*
%MOIN*%
G04 Gerber Fmt 3.4, Leading zero omitted, Abs format*
%FSLAX34Y34*%
G04 APERTURE LIST*
%ADD10C,0.015000*%
%ADD11C,0.052000*%
%ADD12C,0.056000*%
%ADD13C,0.137700*%
%ADD14C,0.314000*%
%ADD15C,0.045400*%
%ADD16C,0.019700*%
%ADD17C,0.027600*%
%ADD18C,0.009800*%
%ADD19C,0.011800*%
%ADD20C,0.010000*%
%ADD21R,0.021700X0.063000*%
%ADD22R,0.086600X0.090600*%
%ADD23R,0.044000X0.034000*%
%ADD24R,0.010000X0.054000*%
%ADD25R,0.090000X0.078000*%
%ADD26R,0.180000X0.080000*%
%ADD27R,0.034000X0.024000*%
%ADD28R,0.060000X0.080000*%
%ADD29R,0.080000X0.060000*%
%ADD30R,0.034000X0.044000*%
%ADD31R,0.034000X0.054000*%
%ADD32C,0.015700*%
%ADD33C,0.007900*%
%ADD34C,0.009900*%
G04 APERTURE END LIST*
G54D10*
X05019Y-04921D02*
X36417Y-04921D01*
X05019Y-05118D02*
X05019Y-04921D01*
X05019Y-36811D02*
X05019Y-05118D01*
X36417Y-36811D02*
X05019Y-36811D01*
X36417Y-04921D02*
X36417Y-36811D01*
G54D11*
X33956Y-14610D03*
X34746Y-14610D03*
X33956Y-15400D03*
X34746Y-15400D03*
X33956Y-16180D03*
X34746Y-16180D03*
X33956Y-16970D03*
X34746Y-16970D03*
X33956Y-17760D03*
X34746Y-17760D03*
X33956Y-18550D03*
X34746Y-18550D03*
X33956Y-19330D03*
X34746Y-19330D03*
X33956Y-20120D03*
X34746Y-20120D03*
X33956Y-20910D03*
X34746Y-20910D03*
X33956Y-21700D03*
X34746Y-21700D03*
X33956Y-22480D03*
X34746Y-22480D03*
X33956Y-23270D03*
X34746Y-23270D03*
X33956Y-24060D03*
X34746Y-24060D03*
X33956Y-24850D03*
X34746Y-24850D03*
X33956Y-25630D03*
X34746Y-25630D03*
X33956Y-26420D03*
X34746Y-26420D03*
X33956Y-27210D03*
X34746Y-27210D03*
X33956Y-28000D03*
X34746Y-28000D03*
X33956Y-28780D03*
X34746Y-28780D03*
X33956Y-29570D03*
X34746Y-29570D03*
G54D12*
X29802Y-33405D03*
X28780Y-33405D03*
X30629Y-33405D03*
X27953Y-33405D03*
X30629Y-32441D03*
X27953Y-32421D03*
G54D13*
X26614Y-34586D03*
X29291Y-34900D03*
X31948Y-34586D03*
G54D14*
X34635Y-06692D03*
X34635Y-35039D03*
G54D15*
X24252Y-34436D03*
X22520Y-34436D03*
G54D21*
X23386Y-33274D03*
X23701Y-33274D03*
X24018Y-33274D03*
X23071Y-33274D03*
X22756Y-33276D03*
G54D22*
X25078Y-33412D03*
X21694Y-33412D03*
X21694Y-35577D03*
X25078Y-35577D03*
G54D23*
X06426Y-34164D03*
X06426Y-35504D03*
G54D24*
X22824Y-30857D03*
X22624Y-30857D03*
X22424Y-30857D03*
X22224Y-30857D03*
X22034Y-30857D03*
X21834Y-30857D03*
X21634Y-30857D03*
X21444Y-30857D03*
X21244Y-30857D03*
X21044Y-30857D03*
X20854Y-30857D03*
X20654Y-30857D03*
X20454Y-30857D03*
X20264Y-30857D03*
X20064Y-30857D03*
X19864Y-30857D03*
X19674Y-30857D03*
X19474Y-30857D03*
X19274Y-30857D03*
X19074Y-30857D03*
X18884Y-30857D03*
X18684Y-30857D03*
X18484Y-30857D03*
X18294Y-30857D03*
X18094Y-30857D03*
X17894Y-30857D03*
X17704Y-30857D03*
X17504Y-30857D03*
X17304Y-30857D03*
X17114Y-30857D03*
X16914Y-30857D03*
X16714Y-30857D03*
X16524Y-30857D03*
X16324Y-30857D03*
X16124Y-30857D03*
X15934Y-30857D03*
X15734Y-30857D03*
X15534Y-30857D03*
X15334Y-30857D03*
X15144Y-30857D03*
G54D25*
X14434Y-30217D03*
X23524Y-30217D03*
G54D26*
X10925Y-29334D03*
X10925Y-31294D03*
G54D27*
X20068Y-34888D03*
X20068Y-35488D03*
G54D28*
X31043Y-26082D03*
X32343Y-26082D03*
X31043Y-24901D03*
X32343Y-24901D03*
G54D29*
X18701Y-27027D03*
X18701Y-25727D03*
X17224Y-27027D03*
X17224Y-25727D03*
X15846Y-27027D03*
X15846Y-25727D03*
X14468Y-27027D03*
X14468Y-25727D03*
X18336Y-35484D03*
X18336Y-34184D03*
X16860Y-35482D03*
X16860Y-34182D03*
X15679Y-35482D03*
X15679Y-34182D03*
X14498Y-35482D03*
X14498Y-34182D03*
X13316Y-35482D03*
X13316Y-34182D03*
X09970Y-35482D03*
X09970Y-34182D03*
X12135Y-35482D03*
X12135Y-34182D03*
X11053Y-35482D03*
X11053Y-34182D03*
X13090Y-27027D03*
X13090Y-25727D03*
X08887Y-35482D03*
X08887Y-34182D03*
X07805Y-35482D03*
X07805Y-34182D03*
G54D28*
X25531Y-21653D03*
X26831Y-21653D03*
X25531Y-20472D03*
X26831Y-20472D03*
X25531Y-19291D03*
X26831Y-19291D03*
X25531Y-18110D03*
X26831Y-18110D03*
X25531Y-16929D03*
X26831Y-16929D03*
X25531Y-15747D03*
X26831Y-15747D03*
X25531Y-14566D03*
X26831Y-14566D03*
X25570Y-13307D03*
X26870Y-13307D03*
X10275Y-28248D03*
X11575Y-28248D03*
G54D29*
X28149Y-27302D03*
X28149Y-28602D03*
X29724Y-27302D03*
X29724Y-28602D03*
X28149Y-30964D03*
X28149Y-29664D03*
X29724Y-30964D03*
X29724Y-29664D03*
X11712Y-25727D03*
X11712Y-27027D03*
X10334Y-27027D03*
X10334Y-25727D03*
G54D30*
X08539Y-29491D03*
X07799Y-29491D03*
G54D31*
X08169Y-30351D03*
G54D16*
X13780Y-31535D03*
X19488Y-34350D03*
X31693Y-15314D03*
X30905Y-14055D03*
X19685Y-27992D03*
X12697Y-29232D03*
X32283Y-27460D03*
X26890Y-30000D03*
X25394Y-31378D03*
X22756Y-32087D03*
X30748Y-29724D03*
X21969Y-32047D03*
X16063Y-32047D03*
X14528Y-31811D03*
X16732Y-30118D03*
X13287Y-36417D03*
X07874Y-28248D03*
X09055Y-28248D03*
G54D17*
X14434Y-30871D02*
X14434Y-30217D01*
X14434Y-30881D02*
X14434Y-30871D01*
X13780Y-31535D02*
X14434Y-30881D01*
G54D18*
X33956Y-14610D02*
X33956Y-14075D01*
X35489Y-23270D02*
X34746Y-23270D01*
X36023Y-22736D02*
X35489Y-23270D01*
X36023Y-13975D02*
X36023Y-22736D01*
X35827Y-13779D02*
X36023Y-13975D01*
X34252Y-13779D02*
X35827Y-13779D01*
X33956Y-14075D02*
X34252Y-13779D01*
G54D17*
X19488Y-34350D02*
X19864Y-34350D01*
X19864Y-34350D02*
X19783Y-34350D01*
X19783Y-34350D02*
X19864Y-34350D01*
G54D32*
X34746Y-23270D02*
X34746Y-24060D01*
X31043Y-26082D02*
X31043Y-28188D01*
X31043Y-28188D02*
X32775Y-29920D01*
X32775Y-29920D02*
X32775Y-30511D01*
X32775Y-30511D02*
X33464Y-31200D01*
X35827Y-25141D02*
X34746Y-24060D01*
X33464Y-31200D02*
X35728Y-31200D01*
X35728Y-31200D02*
X35827Y-31101D01*
X35827Y-31101D02*
X35827Y-25141D01*
X31043Y-24901D02*
X31043Y-26082D01*
G54D17*
X23701Y-33937D02*
X23701Y-35274D01*
G54D32*
X23701Y-33274D02*
X23701Y-33937D01*
G54D17*
X20637Y-34888D02*
X20068Y-34888D01*
X20787Y-35038D02*
X20637Y-34888D01*
X20787Y-36141D02*
X20787Y-35038D01*
X21102Y-36456D02*
X20787Y-36141D01*
X22519Y-36456D02*
X21102Y-36456D01*
X23701Y-35274D02*
X22519Y-36456D01*
X19864Y-31395D02*
X19864Y-34350D01*
X19864Y-34350D02*
X19864Y-34684D01*
X19864Y-34684D02*
X20068Y-34888D01*
G54D18*
X19864Y-30857D02*
X19864Y-31395D01*
X19864Y-31395D02*
X19842Y-31417D01*
G54D17*
X24252Y-32519D02*
X24252Y-32362D01*
X23524Y-31634D02*
X23524Y-30217D01*
X24252Y-32362D02*
X23524Y-31634D01*
X24018Y-32757D02*
X24018Y-32753D01*
X24018Y-32753D02*
X24252Y-32519D01*
G54D32*
X23701Y-33274D02*
X24018Y-33274D01*
X24018Y-33274D02*
X24018Y-32757D01*
X24018Y-32757D02*
X24016Y-32755D01*
G54D18*
X26870Y-13307D02*
X30157Y-13307D01*
X31779Y-15400D02*
X33956Y-15400D01*
X31693Y-15314D02*
X31779Y-15400D01*
X30157Y-13307D02*
X30905Y-14055D01*
X26831Y-14566D02*
X32755Y-14566D01*
X34346Y-15000D02*
X34746Y-15400D01*
X33189Y-15000D02*
X34346Y-15000D01*
X32755Y-14566D02*
X33189Y-15000D01*
X26831Y-15747D02*
X33523Y-15747D01*
X33523Y-15747D02*
X33956Y-16180D01*
X26831Y-16929D02*
X32991Y-16929D01*
X34352Y-16574D02*
X34746Y-16180D01*
X33346Y-16574D02*
X34352Y-16574D01*
X32991Y-16929D02*
X33346Y-16574D01*
X26831Y-18110D02*
X27952Y-18110D01*
X33801Y-17125D02*
X33956Y-16970D01*
X28937Y-17125D02*
X33801Y-17125D01*
X27952Y-18110D02*
X28937Y-17125D01*
X26831Y-19291D02*
X27126Y-19291D01*
X34354Y-17362D02*
X34746Y-16970D01*
X29055Y-17362D02*
X34354Y-17362D01*
X27126Y-19291D02*
X29055Y-17362D01*
X26831Y-20472D02*
X27401Y-20472D01*
X30113Y-17760D02*
X33956Y-17760D01*
X27401Y-20472D02*
X30113Y-17760D01*
X26831Y-21653D02*
X27677Y-21653D01*
X34357Y-18149D02*
X34746Y-17760D01*
X31181Y-18149D02*
X34357Y-18149D01*
X27677Y-21653D02*
X31181Y-18149D01*
X21634Y-30857D02*
X21634Y-28268D01*
X31352Y-18550D02*
X33956Y-18550D01*
X21634Y-28268D02*
X31352Y-18550D01*
X21834Y-30857D02*
X21834Y-28658D01*
X31162Y-19330D02*
X33956Y-19330D01*
X21834Y-28658D02*
X31162Y-19330D01*
X22034Y-30857D02*
X22034Y-29049D01*
X30963Y-20120D02*
X33956Y-20120D01*
X22034Y-29049D02*
X30963Y-20120D01*
X22224Y-30857D02*
X22224Y-29448D01*
X30762Y-20910D02*
X33956Y-20910D01*
X22224Y-29448D02*
X30762Y-20910D01*
X22424Y-30857D02*
X22424Y-29840D01*
X30564Y-21700D02*
X33956Y-21700D01*
X22424Y-29840D02*
X30564Y-21700D01*
X22624Y-30857D02*
X22624Y-30033D01*
X31062Y-22480D02*
X33956Y-22480D01*
X26968Y-26574D02*
X31062Y-22480D01*
X26968Y-28346D02*
X26968Y-26574D01*
X25787Y-29527D02*
X26968Y-28346D01*
X23130Y-29527D02*
X25787Y-29527D01*
X22624Y-30033D02*
X23130Y-29527D01*
G54D32*
X28149Y-27302D02*
X28149Y-25984D01*
X30863Y-23270D02*
X33956Y-23270D01*
X28149Y-25984D02*
X30863Y-23270D01*
X29724Y-27302D02*
X29724Y-24901D01*
X30565Y-24060D02*
X33956Y-24060D01*
X29724Y-24901D02*
X30565Y-24060D01*
G54D18*
X19674Y-30857D02*
X19674Y-28003D01*
X19674Y-28003D02*
X19685Y-27992D01*
G54D17*
X33956Y-24850D02*
X33956Y-25630D01*
X32343Y-24901D02*
X33905Y-24901D01*
X33905Y-24901D02*
X33956Y-24850D01*
X32343Y-26082D02*
X32343Y-24901D01*
X12697Y-29232D02*
X12595Y-29334D01*
X10925Y-29334D02*
X12595Y-29334D01*
X32283Y-27460D02*
X32343Y-27400D01*
X32343Y-27400D02*
X32343Y-26082D01*
X19488Y-31889D02*
X19488Y-33032D01*
G54D18*
X19474Y-30857D02*
X19488Y-30871D01*
X19488Y-30871D02*
X19488Y-31692D01*
X19488Y-31889D02*
X19488Y-31692D01*
G54D17*
X19488Y-33032D02*
X18336Y-34184D01*
G54D18*
X19674Y-30857D02*
X19474Y-30857D01*
G54D19*
X28149Y-29664D02*
X27226Y-29664D01*
X27226Y-29664D02*
X26890Y-30000D01*
G54D32*
X28149Y-29664D02*
X28149Y-28602D01*
G54D17*
X28149Y-30964D02*
X25808Y-30964D01*
X25808Y-30964D02*
X25394Y-31378D01*
X28976Y-30964D02*
X28149Y-30964D01*
G54D32*
X22756Y-33276D02*
X22756Y-32087D01*
G54D17*
X28976Y-30964D02*
X29724Y-30964D01*
G54D19*
X30688Y-29664D02*
X29724Y-29664D01*
X30748Y-29724D02*
X30688Y-29664D01*
G54D32*
X29724Y-29664D02*
X29724Y-28602D01*
G54D17*
X06426Y-34164D02*
X07787Y-34164D01*
X07787Y-34164D02*
X07805Y-34182D01*
X07805Y-34182D02*
X08887Y-34182D01*
X15534Y-31343D02*
X15534Y-31395D01*
X10696Y-32373D02*
X08887Y-34182D01*
X14556Y-32373D02*
X10696Y-32373D01*
X15534Y-31395D02*
X14556Y-32373D01*
G54D33*
X15534Y-30857D02*
X15534Y-31343D01*
X15534Y-31343D02*
X15540Y-31349D01*
G54D18*
X06426Y-35504D02*
X06075Y-35504D01*
X05807Y-32713D02*
X08169Y-30351D01*
X05807Y-35236D02*
X05807Y-32713D01*
X06075Y-35504D02*
X05807Y-35236D01*
X08169Y-30351D02*
X08169Y-30610D01*
X08853Y-31294D02*
X10925Y-31294D01*
X08169Y-30610D02*
X08853Y-31294D01*
X22824Y-31546D02*
X22824Y-30857D01*
X22795Y-31575D02*
X22824Y-31546D01*
X22441Y-31575D02*
X22795Y-31575D01*
X21969Y-32047D02*
X22441Y-31575D01*
X15144Y-30857D02*
X15144Y-31195D01*
X16124Y-31986D02*
X16124Y-30857D01*
X16063Y-32047D02*
X16124Y-31986D01*
X15144Y-31195D02*
X14528Y-31811D01*
X13090Y-27027D02*
X13248Y-27027D01*
X16124Y-29903D02*
X16124Y-30857D01*
X13248Y-27027D02*
X16124Y-29903D01*
X21444Y-30857D02*
X21444Y-25740D01*
X21444Y-25740D02*
X25531Y-21653D01*
X21244Y-30857D02*
X21244Y-24759D01*
X21244Y-24759D02*
X25531Y-20472D01*
X21044Y-30857D02*
X21044Y-23778D01*
X21044Y-23778D02*
X25531Y-19291D01*
X20854Y-30857D02*
X20854Y-22787D01*
X20854Y-22787D02*
X25531Y-18110D01*
X20654Y-30857D02*
X20654Y-21806D01*
X20654Y-21806D02*
X25531Y-16929D01*
X20454Y-30857D02*
X20454Y-20824D01*
X20454Y-20824D02*
X25531Y-15747D01*
X25531Y-14566D02*
X25433Y-14566D01*
X20275Y-30857D02*
X20264Y-30857D01*
X20275Y-19724D02*
X20275Y-30857D01*
X25433Y-14566D02*
X20275Y-19724D01*
X20064Y-30857D02*
X20064Y-18813D01*
X20064Y-18813D02*
X25570Y-13307D01*
G54D34*
X16860Y-34182D02*
X16860Y-33966D01*
X19274Y-31552D02*
X19274Y-30857D01*
X16860Y-33966D02*
X19274Y-31552D01*
G54D18*
X18701Y-25727D02*
X19034Y-25727D01*
X19094Y-30857D02*
X19074Y-30857D01*
X19094Y-30118D02*
X19094Y-30857D01*
X19291Y-29921D02*
X19094Y-30118D01*
X19291Y-25984D02*
X19291Y-29921D01*
X19034Y-25727D02*
X19291Y-25984D01*
X18701Y-27027D02*
X18701Y-27756D01*
X18884Y-27939D02*
X18884Y-30857D01*
X18701Y-27756D02*
X18884Y-27939D01*
X17224Y-25727D02*
X17362Y-25727D01*
X18684Y-28526D02*
X18684Y-30857D01*
X18012Y-27854D02*
X18684Y-28526D01*
X18012Y-26377D02*
X18012Y-27854D01*
X17362Y-25727D02*
X18012Y-26377D01*
X17224Y-27027D02*
X17224Y-27559D01*
X18484Y-28819D02*
X18484Y-30857D01*
X17224Y-27559D02*
X18484Y-28819D01*
G54D34*
X18294Y-30857D02*
X18294Y-32100D01*
X16149Y-33712D02*
X15679Y-34182D01*
X16682Y-33712D02*
X16149Y-33712D01*
X18294Y-32100D02*
X16682Y-33712D01*
G54D18*
X15846Y-25727D02*
X15885Y-25727D01*
X18094Y-29413D02*
X18094Y-30857D01*
X16535Y-27854D02*
X18094Y-29413D01*
X16535Y-26377D02*
X16535Y-27854D01*
X15885Y-25727D02*
X16535Y-26377D01*
X15846Y-27027D02*
X15846Y-27656D01*
X17894Y-29704D02*
X17894Y-30857D01*
X15846Y-27656D02*
X17894Y-29704D01*
G54D34*
X17704Y-30857D02*
X17704Y-32335D01*
X15165Y-33515D02*
X14498Y-34182D01*
X16524Y-33515D02*
X15165Y-33515D01*
X17704Y-32335D02*
X16524Y-33515D01*
X17504Y-30857D02*
X17504Y-32220D01*
X14180Y-33318D02*
X13316Y-34182D01*
X16406Y-33318D02*
X14180Y-33318D01*
X17504Y-32220D02*
X16406Y-33318D01*
G54D18*
X14468Y-25727D02*
X14468Y-25787D01*
X17304Y-29705D02*
X17304Y-30857D01*
X15256Y-27657D02*
X17304Y-29705D01*
X15256Y-26575D02*
X15256Y-27657D01*
X14468Y-25787D02*
X15256Y-26575D01*
X14468Y-27027D02*
X14468Y-27362D01*
X17114Y-30008D02*
X17114Y-30857D01*
X14468Y-27362D02*
X17114Y-30008D01*
G54D34*
X16914Y-30857D02*
X16914Y-32140D01*
X13235Y-33082D02*
X12135Y-34182D01*
X15972Y-33082D02*
X13235Y-33082D01*
X16914Y-32140D02*
X15972Y-33082D01*
X16714Y-30857D02*
X16714Y-31850D01*
X12350Y-32885D02*
X11053Y-34182D01*
X15679Y-32885D02*
X12350Y-32885D01*
X16714Y-31850D02*
X15679Y-32885D01*
G54D18*
X16860Y-35482D02*
X18334Y-35482D01*
X18334Y-35482D02*
X18336Y-35484D01*
X16524Y-30326D02*
X16732Y-30118D01*
X16524Y-30857D02*
X16524Y-30326D01*
X13316Y-36388D02*
X13316Y-35482D01*
X13287Y-36417D02*
X13316Y-36388D01*
X10275Y-28248D02*
X09055Y-28248D01*
X07799Y-28323D02*
X07799Y-29491D01*
X07874Y-28248D02*
X07799Y-28323D01*
X07805Y-35482D02*
X08887Y-35482D01*
X08887Y-35482D02*
X09970Y-35482D01*
X09970Y-35482D02*
X11053Y-35482D01*
X11053Y-35482D02*
X12135Y-35482D01*
X12135Y-35482D02*
X13316Y-35482D01*
X13316Y-35482D02*
X14498Y-35482D01*
X14498Y-35482D02*
X15679Y-35482D01*
X15679Y-35482D02*
X16860Y-35482D01*
X16860Y-35482D02*
X16862Y-35484D01*
X16862Y-35484D02*
X20064Y-35484D01*
X20064Y-35484D02*
X20068Y-35488D01*
X07799Y-29491D02*
X06335Y-29491D01*
X07067Y-36220D02*
X07805Y-35482D01*
X05709Y-36220D02*
X07067Y-36220D01*
X05413Y-35924D02*
X05709Y-36220D01*
X05413Y-30413D02*
X05413Y-35924D01*
X06335Y-29491D02*
X05413Y-30413D01*
X13090Y-25727D02*
X13090Y-25787D01*
X16324Y-29808D02*
X16324Y-30857D01*
X13878Y-27362D02*
X16324Y-29808D01*
X13878Y-26575D02*
X13878Y-27362D01*
X13090Y-25787D02*
X13878Y-26575D01*
G54D34*
X15934Y-30857D02*
X15934Y-31389D01*
X11503Y-32649D02*
X09970Y-34182D01*
X14674Y-32649D02*
X11503Y-32649D01*
X15934Y-31389D02*
X14674Y-32649D01*
G54D18*
X11712Y-27027D02*
X11870Y-27027D01*
X15734Y-30005D02*
X15734Y-30857D01*
X13681Y-27952D02*
X15734Y-30005D01*
X12795Y-27952D02*
X13681Y-27952D01*
X11870Y-27027D02*
X12795Y-27952D01*
X10334Y-27027D02*
X11712Y-27027D01*
X11575Y-28248D02*
X13583Y-28248D01*
X15334Y-29999D02*
X15334Y-30857D01*
X13583Y-28248D02*
X15334Y-29999D01*
X10334Y-25727D02*
X09410Y-25727D01*
X08539Y-26598D02*
X08539Y-29491D01*
X09410Y-25727D02*
X08539Y-26598D01*
X11712Y-25727D02*
X10334Y-25727D01*
G54D20*
X12268Y-31781D02*
X13987Y-31781D01*
X12268Y-31701D02*
X13988Y-31701D01*
X12268Y-31621D02*
X14022Y-31621D01*
X12268Y-31541D02*
X14055Y-31541D01*
X12268Y-31461D02*
X14113Y-31461D01*
X12268Y-31381D02*
X14193Y-31381D01*
X12268Y-31301D02*
X14340Y-31301D01*
X12268Y-31221D02*
X14420Y-31221D01*
X12268Y-31141D02*
X14500Y-31141D01*
X12268Y-31061D02*
X14580Y-31061D01*
X12268Y-30981D02*
X14651Y-30981D01*
X12268Y-30901D02*
X14651Y-30901D01*
X14358Y-30821D02*
X14510Y-30821D01*
X12268Y-30821D02*
X13850Y-30821D01*
X14384Y-30741D02*
X14484Y-30741D01*
X12242Y-30741D02*
X13770Y-30741D01*
X08998Y-30741D02*
X09610Y-30741D01*
X14384Y-30661D02*
X14484Y-30661D01*
X12209Y-30661D02*
X13736Y-30661D01*
X08918Y-30661D02*
X09643Y-30661D01*
X14384Y-30581D02*
X14484Y-30581D01*
X12139Y-30581D02*
X13734Y-30581D01*
X08838Y-30581D02*
X09712Y-30581D01*
X14384Y-30501D02*
X14484Y-30501D01*
X12033Y-30501D02*
X13734Y-30501D01*
X08782Y-30501D02*
X09816Y-30501D01*
X14384Y-30421D02*
X14484Y-30421D01*
X08782Y-30421D02*
X13734Y-30421D01*
X14384Y-30341D02*
X14484Y-30341D01*
X08782Y-30341D02*
X13734Y-30341D01*
X08782Y-30261D02*
X14484Y-30261D01*
X08782Y-30181D02*
X14484Y-30181D01*
X12084Y-30101D02*
X13735Y-30101D01*
X08925Y-30101D02*
X09765Y-30101D01*
X12164Y-30021D02*
X13735Y-30021D01*
X09025Y-30021D02*
X09685Y-30021D01*
X12217Y-29941D02*
X13735Y-29941D01*
X09092Y-29941D02*
X09630Y-29941D01*
X12834Y-29861D02*
X13735Y-29861D01*
X09126Y-29861D02*
X09598Y-29861D01*
X12954Y-29781D02*
X13735Y-29781D01*
X09152Y-29781D02*
X09582Y-29781D01*
X13051Y-29701D02*
X13767Y-29701D01*
X09152Y-29701D02*
X09582Y-29701D01*
X13123Y-29621D02*
X13838Y-29621D01*
X09152Y-29621D02*
X09582Y-29621D01*
X13177Y-29541D02*
X14178Y-29541D01*
X09152Y-29541D02*
X09582Y-29541D01*
X13230Y-29461D02*
X14098Y-29461D01*
X09152Y-29461D02*
X09582Y-29461D01*
X13249Y-29381D02*
X14018Y-29381D01*
X09152Y-29381D02*
X09582Y-29381D01*
X13265Y-29301D02*
X13938Y-29301D01*
X09152Y-29301D02*
X09582Y-29301D01*
X13277Y-29221D02*
X13858Y-29221D01*
X09152Y-29221D02*
X09582Y-29221D01*
X13262Y-29141D02*
X13778Y-29141D01*
X09135Y-29141D02*
X09582Y-29141D01*
X13246Y-29061D02*
X13698Y-29061D01*
X09102Y-29061D02*
X09582Y-29061D01*
X13217Y-28981D02*
X13618Y-28981D01*
X09046Y-28981D02*
X09582Y-28981D01*
X13163Y-28901D02*
X13538Y-28901D01*
X09032Y-28901D02*
X09582Y-28901D01*
X13108Y-28821D02*
X13458Y-28821D01*
X09032Y-28821D02*
X09567Y-28821D01*
X12989Y-28741D02*
X13378Y-28741D01*
X09278Y-28741D02*
X09534Y-28741D01*
X27156Y-33585D02*
X27244Y-33585D01*
X25954Y-33585D02*
X26074Y-33585D01*
X26963Y-33505D02*
X27229Y-33505D01*
X25954Y-33505D02*
X26267Y-33505D01*
X25954Y-33425D02*
X27229Y-33425D01*
X25954Y-33345D02*
X27229Y-33345D01*
X25954Y-33265D02*
X27229Y-33265D01*
X23968Y-33265D02*
X24068Y-33265D01*
X25954Y-33185D02*
X27261Y-33185D01*
X24036Y-33185D02*
X24068Y-33185D01*
X25954Y-33105D02*
X27294Y-33105D01*
X24059Y-33105D02*
X24068Y-33105D01*
X25954Y-33025D02*
X27328Y-33025D01*
X24059Y-33025D02*
X24068Y-33025D01*
X25954Y-32945D02*
X27389Y-32945D01*
X24059Y-32945D02*
X24068Y-32945D01*
X25952Y-32865D02*
X27374Y-32865D01*
X24040Y-32865D02*
X24068Y-32865D01*
X25919Y-32785D02*
X27320Y-32785D01*
X23987Y-32785D02*
X24068Y-32785D01*
X25884Y-32705D02*
X27287Y-32705D01*
X23866Y-32705D02*
X24273Y-32705D01*
X25804Y-32625D02*
X27254Y-32625D01*
X23786Y-32625D02*
X24353Y-32625D01*
X25669Y-32545D02*
X27229Y-32545D01*
X23653Y-32545D02*
X24487Y-32545D01*
X23278Y-32465D02*
X27229Y-32465D01*
X23278Y-32385D02*
X27229Y-32385D01*
X23278Y-32305D02*
X27229Y-32305D01*
X23284Y-32225D02*
X27251Y-32225D01*
X23297Y-32145D02*
X27284Y-32145D01*
X23297Y-32065D02*
X27318Y-32065D01*
X23297Y-31985D02*
X27366Y-31985D01*
X25633Y-31905D02*
X27446Y-31905D01*
X23266Y-31905D02*
X25154Y-31905D01*
X25753Y-31825D02*
X27526Y-31825D01*
X23233Y-31825D02*
X25034Y-31825D01*
X25850Y-31745D02*
X27694Y-31745D01*
X23272Y-31745D02*
X24952Y-31745D01*
X25930Y-31665D02*
X27560Y-31665D01*
X23293Y-31665D02*
X24898Y-31665D01*
X26010Y-31585D02*
X27443Y-31585D01*
X23309Y-31585D02*
X24852Y-31585D01*
X23318Y-31505D02*
X24836Y-31505D01*
X23318Y-31425D02*
X24820Y-31425D01*
X23318Y-31345D02*
X24818Y-31345D01*
X23318Y-31265D02*
X24834Y-31265D01*
X23318Y-31185D02*
X24850Y-31185D01*
X23318Y-31105D02*
X24890Y-31105D01*
X23318Y-31025D02*
X24943Y-31025D01*
X23318Y-30945D02*
X25003Y-30945D01*
X23318Y-30865D02*
X25083Y-30865D01*
X24148Y-30785D02*
X25163Y-30785D01*
X23474Y-30785D02*
X23574Y-30785D01*
X24202Y-30705D02*
X25243Y-30705D01*
X23474Y-30705D02*
X23574Y-30705D01*
X24223Y-30625D02*
X25323Y-30625D01*
X23474Y-30625D02*
X23574Y-30625D01*
X24223Y-30545D02*
X25407Y-30545D01*
X23474Y-30545D02*
X23574Y-30545D01*
X24223Y-30465D02*
X25527Y-30465D01*
X23474Y-30465D02*
X23574Y-30465D01*
X24223Y-30385D02*
X25793Y-30385D01*
X23474Y-30385D02*
X23574Y-30385D01*
X24200Y-30305D02*
X26430Y-30305D01*
X23474Y-30305D02*
X23574Y-30305D01*
X23474Y-30225D02*
X26397Y-30225D01*
X24184Y-30145D02*
X26364Y-30145D01*
X24224Y-30065D02*
X26349Y-30065D01*
X25961Y-29985D02*
X26349Y-29985D01*
X26092Y-29905D02*
X26349Y-29905D01*
X26186Y-29825D02*
X26377Y-29825D01*
X26266Y-29745D02*
X26411Y-29745D01*
X26346Y-29665D02*
X26460Y-29665D01*
X26426Y-29585D02*
X26540Y-29585D01*
X26506Y-29505D02*
X26670Y-29505D01*
X26586Y-29425D02*
X26752Y-29425D01*
X26666Y-29345D02*
X26832Y-29345D01*
X26746Y-29265D02*
X26935Y-29265D01*
X26826Y-29185D02*
X27105Y-29185D01*
X26906Y-29105D02*
X27353Y-29105D01*
X26986Y-29025D02*
X27320Y-29025D01*
X27066Y-28945D02*
X27306Y-28945D01*
X27146Y-28865D02*
X27306Y-28865D01*
X27226Y-28785D02*
X27306Y-28785D01*
X27306Y-28705D02*
X27306Y-28705D01*
X13820Y-36290D02*
X20894Y-36290D01*
X18865Y-36210D02*
X20855Y-36210D01*
X17384Y-36210D02*
X17807Y-36210D01*
X16202Y-36210D02*
X16336Y-36210D01*
X15021Y-36210D02*
X15155Y-36210D01*
X13838Y-36210D02*
X13974Y-36210D01*
X19016Y-36130D02*
X20822Y-36130D01*
X17538Y-36130D02*
X17655Y-36130D01*
X20328Y-36050D02*
X20818Y-36050D01*
X19096Y-36050D02*
X19807Y-36050D01*
X20502Y-35970D02*
X20818Y-35970D01*
X20582Y-35890D02*
X20818Y-35890D01*
X20633Y-35810D02*
X20818Y-35810D01*
X20666Y-35730D02*
X20818Y-35730D01*
X20681Y-35650D02*
X20818Y-35650D01*
X20681Y-35570D02*
X20818Y-35570D01*
X20681Y-35490D02*
X20818Y-35490D01*
X20681Y-35410D02*
X20818Y-35410D01*
X20681Y-35330D02*
X20818Y-35330D01*
X20669Y-35250D02*
X20818Y-35250D01*
X20636Y-35170D02*
X20818Y-35170D01*
X20587Y-35090D02*
X20818Y-35090D01*
X20507Y-35010D02*
X20829Y-35010D01*
X20338Y-34930D02*
X20863Y-34930D01*
X19109Y-34930D02*
X19798Y-34930D01*
X19029Y-34850D02*
X20909Y-34850D01*
X20488Y-34770D02*
X20989Y-34770D01*
X20018Y-34770D02*
X20118Y-34770D01*
X19076Y-34770D02*
X19649Y-34770D01*
X20476Y-34690D02*
X21152Y-34690D01*
X20018Y-34690D02*
X20118Y-34690D01*
X19129Y-34690D02*
X19661Y-34690D01*
X20432Y-34610D02*
X21865Y-34610D01*
X20018Y-34610D02*
X20118Y-34610D01*
X19163Y-34610D02*
X19704Y-34610D01*
X20314Y-34530D02*
X21849Y-34530D01*
X19968Y-34530D02*
X20168Y-34530D01*
X19179Y-34530D02*
X19823Y-34530D01*
X19179Y-34450D02*
X21849Y-34450D01*
X19179Y-34370D02*
X21849Y-34370D01*
X19179Y-34290D02*
X21129Y-34290D01*
X19179Y-34210D02*
X20979Y-34210D01*
X19212Y-34130D02*
X20899Y-34130D01*
X19292Y-34050D02*
X20857Y-34050D01*
X19372Y-33970D02*
X20824Y-33970D01*
X19452Y-33890D02*
X20818Y-33890D01*
X19532Y-33810D02*
X20818Y-33810D01*
X19612Y-33730D02*
X20818Y-33730D01*
X19692Y-33650D02*
X20818Y-33650D01*
X19772Y-33570D02*
X20818Y-33570D01*
X19852Y-33490D02*
X20818Y-33490D01*
X19922Y-33410D02*
X20818Y-33410D01*
X19976Y-33330D02*
X20818Y-33330D01*
X20027Y-33250D02*
X20818Y-33250D01*
X20043Y-33170D02*
X20818Y-33170D01*
X20059Y-33090D02*
X20818Y-33090D01*
X20071Y-33010D02*
X20818Y-33010D01*
X20071Y-32930D02*
X20818Y-32930D01*
X20071Y-32850D02*
X20827Y-32850D01*
X20071Y-32770D02*
X20861Y-32770D01*
X20071Y-32690D02*
X20904Y-32690D01*
X20071Y-32610D02*
X20984Y-32610D01*
X20071Y-32530D02*
X21139Y-32530D01*
X20071Y-32450D02*
X21607Y-32450D01*
X20071Y-32370D02*
X21527Y-32370D01*
X20071Y-32290D02*
X21484Y-32290D01*
X20071Y-32210D02*
X21451Y-32210D01*
X20071Y-32130D02*
X21428Y-32130D01*
X20071Y-32050D02*
X21428Y-32050D01*
X20071Y-31970D02*
X21428Y-31970D01*
X20071Y-31890D02*
X21449Y-31890D01*
X20055Y-31810D02*
X21482Y-31810D01*
X20039Y-31730D02*
X21521Y-31730D01*
X20016Y-31650D02*
X21601Y-31650D01*
X19981Y-31570D02*
X21706Y-31570D01*
X22509Y-36262D02*
X24261Y-36262D01*
X22543Y-36182D02*
X24228Y-36182D01*
X22570Y-36102D02*
X24202Y-36102D01*
X22570Y-36022D02*
X24202Y-36022D01*
X22570Y-35942D02*
X24202Y-35942D01*
X22570Y-35862D02*
X24202Y-35862D01*
X22570Y-35782D02*
X24202Y-35782D01*
X22570Y-35702D02*
X24202Y-35702D01*
X22570Y-35622D02*
X24202Y-35622D01*
X22570Y-35542D02*
X24202Y-35542D01*
X22570Y-35462D02*
X24202Y-35462D01*
X22570Y-35382D02*
X24202Y-35382D01*
X22570Y-35302D02*
X24202Y-35302D01*
X22570Y-35222D02*
X24202Y-35222D01*
X22570Y-35142D02*
X24202Y-35142D01*
X22761Y-35062D02*
X24009Y-35062D01*
X22923Y-34982D02*
X23849Y-34982D01*
X23003Y-34902D02*
X23769Y-34902D01*
X23083Y-34822D02*
X23689Y-34822D01*
X23119Y-34742D02*
X23652Y-34742D01*
X23152Y-34662D02*
X23619Y-34662D01*
X23186Y-34582D02*
X23586Y-34582D01*
X23191Y-34502D02*
X23581Y-34502D01*
X23191Y-34422D02*
X23581Y-34422D01*
X23191Y-34342D02*
X23581Y-34342D01*
X23175Y-34262D02*
X23598Y-34262D01*
X23142Y-34182D02*
X23631Y-34182D01*
X23108Y-34102D02*
X23664Y-34102D01*
X23606Y-34022D02*
X23717Y-34022D01*
X23767Y-33942D02*
X23797Y-33942D01*
X23847Y-33862D02*
X23884Y-33862D01*
X23968Y-33782D02*
X23968Y-33782D01*
X25890Y-36270D02*
X33018Y-36270D01*
X25923Y-36190D02*
X32938Y-36190D01*
X25954Y-36110D02*
X32898Y-36110D01*
X29519Y-36030D02*
X32865Y-36030D01*
X25954Y-36030D02*
X29060Y-36030D01*
X29713Y-35950D02*
X32832Y-35950D01*
X25954Y-35950D02*
X28867Y-35950D01*
X29906Y-35870D02*
X32799Y-35870D01*
X25954Y-35870D02*
X28675Y-35870D01*
X30001Y-35790D02*
X32766Y-35790D01*
X25954Y-35790D02*
X28580Y-35790D01*
X32191Y-35710D02*
X32732Y-35710D01*
X30081Y-35710D02*
X31702Y-35710D01*
X26857Y-35710D02*
X28500Y-35710D01*
X25954Y-35710D02*
X26368Y-35710D01*
X32384Y-35630D02*
X32699Y-35630D01*
X30161Y-35630D02*
X31510Y-35630D01*
X27050Y-35630D02*
X28420Y-35630D01*
X25954Y-35630D02*
X26176Y-35630D01*
X32578Y-35550D02*
X32666Y-35550D01*
X30241Y-35550D02*
X31318Y-35550D01*
X27244Y-35550D02*
X28340Y-35550D01*
X25954Y-35550D02*
X25984Y-35550D01*
X30279Y-35470D02*
X31231Y-35470D01*
X27330Y-35470D02*
X28302Y-35470D01*
X30313Y-35390D02*
X31151Y-35390D01*
X27410Y-35390D02*
X28268Y-35390D01*
X30346Y-35310D02*
X31071Y-35310D01*
X27490Y-35310D02*
X28235Y-35310D01*
X30379Y-35230D02*
X30991Y-35230D01*
X27570Y-35230D02*
X28202Y-35230D01*
X30413Y-35150D02*
X30956Y-35150D01*
X27605Y-35150D02*
X28169Y-35150D01*
X30423Y-35070D02*
X30923Y-35070D01*
X27638Y-35070D02*
X28159Y-35070D01*
X30423Y-34990D02*
X30890Y-34990D01*
X27671Y-34990D02*
X28159Y-34990D01*
X30423Y-34910D02*
X30857Y-34910D01*
X27705Y-34910D02*
X28159Y-34910D01*
X30423Y-34830D02*
X30824Y-34830D01*
X27738Y-34830D02*
X28159Y-34830D01*
X30423Y-34750D02*
X30816Y-34750D01*
X27746Y-34750D02*
X28159Y-34750D01*
X30421Y-34670D02*
X30816Y-34670D01*
X27746Y-34670D02*
X28161Y-34670D01*
X30388Y-34590D02*
X30816Y-34590D01*
X27746Y-34590D02*
X28194Y-34590D01*
X30355Y-34510D02*
X30816Y-34510D01*
X27746Y-34510D02*
X28228Y-34510D01*
X30322Y-34430D02*
X30816Y-34430D01*
X27746Y-34430D02*
X28261Y-34430D01*
X30289Y-34350D02*
X30821Y-34350D01*
X27742Y-34350D02*
X28294Y-34350D01*
X30256Y-34270D02*
X30854Y-34270D01*
X27708Y-34270D02*
X28328Y-34270D01*
X30182Y-34190D02*
X30887Y-34190D01*
X27675Y-34190D02*
X28400Y-34190D01*
X30102Y-34110D02*
X30920Y-34110D01*
X28141Y-34110D02*
X28480Y-34110D01*
X27642Y-34110D02*
X27762Y-34110D01*
X30184Y-34030D02*
X30954Y-34030D01*
X28335Y-34030D02*
X28398Y-34030D01*
X30280Y-33950D02*
X30987Y-33950D01*
X32833Y-33870D02*
X32957Y-33870D01*
X30876Y-33870D02*
X31064Y-33870D01*
X30360Y-33870D02*
X30386Y-33870D01*
X32753Y-33790D02*
X33037Y-33790D01*
X30916Y-33790D02*
X31144Y-33790D01*
X32673Y-33710D02*
X33117Y-33710D01*
X30863Y-33710D02*
X31224Y-33710D01*
X32593Y-33630D02*
X33197Y-33630D01*
X31100Y-33630D02*
X31304Y-33630D01*
X30783Y-33630D02*
X30925Y-33630D01*
X32405Y-33550D02*
X33277Y-33550D01*
X31128Y-33550D02*
X31492Y-33550D01*
X30703Y-33550D02*
X30845Y-33550D01*
X35914Y-33470D02*
X35948Y-33470D01*
X32213Y-33470D02*
X33357Y-33470D01*
X31153Y-33470D02*
X31686Y-33470D01*
X30623Y-33470D02*
X30765Y-33470D01*
X35834Y-33390D02*
X35948Y-33390D01*
X31149Y-33390D02*
X33437Y-33390D01*
X30573Y-33390D02*
X30685Y-33390D01*
X35722Y-33310D02*
X35948Y-33310D01*
X31144Y-33310D02*
X33547Y-33310D01*
X30652Y-33310D02*
X30653Y-33310D01*
X35529Y-33230D02*
X35948Y-33230D01*
X31125Y-33230D02*
X33741Y-33230D01*
X30732Y-33230D02*
X30733Y-33230D01*
X35336Y-33150D02*
X35948Y-33150D01*
X31091Y-33150D02*
X33934Y-33150D01*
X30812Y-33150D02*
X30813Y-33150D01*
X35144Y-33070D02*
X35948Y-33070D01*
X30999Y-33070D02*
X34128Y-33070D01*
X31103Y-32990D02*
X35948Y-32990D01*
X31183Y-32910D02*
X35948Y-32910D01*
X31251Y-32830D02*
X35948Y-32830D01*
X29229Y-32830D02*
X29354Y-32830D01*
X31284Y-32750D02*
X35948Y-32750D01*
X29091Y-32750D02*
X29493Y-32750D01*
X31317Y-32670D02*
X35948Y-32670D01*
X28632Y-32670D02*
X29940Y-32670D01*
X31351Y-32590D02*
X35948Y-32590D01*
X28666Y-32590D02*
X29907Y-32590D01*
X31353Y-32510D02*
X35948Y-32510D01*
X28677Y-32510D02*
X29905Y-32510D01*
X31353Y-32430D02*
X35948Y-32430D01*
X28677Y-32430D02*
X29905Y-32430D01*
X31353Y-32350D02*
X35948Y-32350D01*
X28677Y-32350D02*
X29905Y-32350D01*
X31342Y-32270D02*
X35948Y-32270D01*
X28674Y-32270D02*
X29916Y-32270D01*
X31309Y-32190D02*
X35948Y-32190D01*
X28641Y-32190D02*
X29950Y-32190D01*
X31276Y-32110D02*
X35948Y-32110D01*
X28608Y-32110D02*
X29983Y-32110D01*
X31242Y-32030D02*
X35948Y-32030D01*
X28575Y-32030D02*
X30016Y-32030D01*
X31162Y-31950D02*
X35948Y-31950D01*
X28506Y-31950D02*
X30097Y-31950D01*
X31082Y-31870D02*
X35948Y-31870D01*
X28426Y-31870D02*
X30177Y-31870D01*
X30949Y-31790D02*
X35948Y-31790D01*
X28321Y-31790D02*
X30310Y-31790D01*
X28129Y-31710D02*
X35948Y-31710D01*
X30384Y-31630D02*
X35948Y-31630D01*
X28809Y-31630D02*
X29063Y-31630D01*
X30464Y-31550D02*
X35948Y-31550D01*
X28889Y-31550D02*
X28983Y-31550D01*
X30517Y-31470D02*
X35948Y-31470D01*
X30551Y-31390D02*
X35948Y-31390D01*
X30567Y-31310D02*
X35948Y-31310D01*
X30567Y-31230D02*
X35948Y-31230D01*
X30567Y-31150D02*
X35948Y-31150D01*
X30567Y-31070D02*
X35948Y-31070D01*
X30567Y-30990D02*
X35948Y-30990D01*
X30567Y-30910D02*
X35948Y-30910D01*
X30567Y-30830D02*
X35948Y-30830D01*
X30567Y-30750D02*
X35948Y-30750D01*
X30567Y-30670D02*
X35948Y-30670D01*
X30567Y-30590D02*
X35948Y-30590D01*
X30540Y-30510D02*
X35948Y-30510D01*
X30507Y-30430D02*
X35948Y-30430D01*
X30437Y-30350D02*
X35948Y-30350D01*
X34892Y-30270D02*
X35948Y-30270D01*
X34102Y-30270D02*
X34597Y-30270D01*
X30444Y-30270D02*
X33807Y-30270D01*
X35085Y-30190D02*
X35948Y-30190D01*
X34293Y-30190D02*
X34407Y-30190D01*
X31037Y-30190D02*
X33616Y-30190D01*
X35199Y-30110D02*
X35948Y-30110D01*
X31127Y-30110D02*
X33502Y-30110D01*
X35279Y-30030D02*
X35948Y-30030D01*
X31206Y-30030D02*
X33422Y-30030D01*
X35348Y-29950D02*
X35948Y-29950D01*
X31239Y-29950D02*
X33352Y-29950D01*
X35382Y-29870D02*
X35948Y-29870D01*
X31273Y-29870D02*
X33319Y-29870D01*
X35415Y-29790D02*
X35948Y-29790D01*
X31289Y-29790D02*
X33286Y-29790D01*
X35449Y-29710D02*
X35948Y-29710D01*
X31289Y-29710D02*
X33253Y-29710D01*
X35449Y-29630D02*
X35948Y-29630D01*
X31289Y-29630D02*
X33253Y-29630D01*
X05488Y-29630D02*
X05498Y-29630D01*
X35449Y-29550D02*
X35948Y-29550D01*
X31262Y-29550D02*
X33253Y-29550D01*
X05488Y-29550D02*
X05578Y-29550D01*
X35449Y-29470D02*
X35948Y-29470D01*
X31229Y-29470D02*
X33253Y-29470D01*
X05488Y-29470D02*
X05658Y-29470D01*
X35432Y-29390D02*
X35948Y-29390D01*
X31180Y-29390D02*
X33270Y-29390D01*
X05488Y-29390D02*
X05738Y-29390D01*
X35399Y-29310D02*
X35948Y-29310D01*
X31100Y-29310D02*
X33303Y-29310D01*
X05488Y-29310D02*
X05818Y-29310D01*
X35366Y-29230D02*
X35948Y-29230D01*
X30970Y-29230D02*
X33337Y-29230D01*
X05488Y-29230D02*
X05898Y-29230D01*
X35352Y-29150D02*
X35948Y-29150D01*
X30515Y-29150D02*
X33348Y-29150D01*
X05488Y-29150D02*
X05978Y-29150D01*
X35385Y-29070D02*
X35948Y-29070D01*
X30532Y-29070D02*
X33315Y-29070D01*
X05488Y-29070D02*
X06095Y-29070D01*
X35419Y-28990D02*
X35948Y-28990D01*
X30567Y-28990D02*
X33282Y-28990D01*
X05488Y-28990D02*
X07283Y-28990D01*
X35449Y-28910D02*
X35948Y-28910D01*
X30567Y-28910D02*
X33253Y-28910D01*
X05488Y-28910D02*
X07305Y-28910D01*
X35449Y-28830D02*
X35948Y-28830D01*
X30567Y-28830D02*
X33253Y-28830D01*
X05488Y-28830D02*
X07305Y-28830D01*
X35449Y-28750D02*
X35948Y-28750D01*
X30567Y-28750D02*
X33253Y-28750D01*
X05488Y-28750D02*
X07305Y-28750D01*
X35449Y-28670D02*
X35948Y-28670D01*
X30567Y-28670D02*
X33253Y-28670D01*
X05488Y-28670D02*
X07305Y-28670D01*
X35428Y-28590D02*
X35948Y-28590D01*
X30567Y-28590D02*
X33274Y-28590D01*
X05488Y-28590D02*
X07305Y-28590D01*
X35395Y-28510D02*
X35948Y-28510D01*
X30567Y-28510D02*
X33307Y-28510D01*
X05488Y-28510D02*
X07305Y-28510D01*
X35362Y-28430D02*
X35948Y-28430D01*
X30567Y-28430D02*
X33341Y-28430D01*
X05488Y-28430D02*
X07305Y-28430D01*
X35360Y-28350D02*
X35948Y-28350D01*
X30567Y-28350D02*
X33340Y-28350D01*
X05488Y-28350D02*
X07305Y-28350D01*
X35394Y-28270D02*
X35948Y-28270D01*
X30567Y-28270D02*
X33307Y-28270D01*
X05488Y-28270D02*
X07316Y-28270D01*
X35428Y-28190D02*
X35948Y-28190D01*
X30558Y-28190D02*
X33274Y-28190D01*
X05488Y-28190D02*
X07333Y-28190D01*
X35449Y-28110D02*
X35948Y-28110D01*
X30525Y-28110D02*
X33253Y-28110D01*
X05488Y-28110D02*
X07346Y-28110D01*
X35449Y-28030D02*
X35948Y-28030D01*
X32347Y-28030D02*
X33253Y-28030D01*
X30479Y-28030D02*
X32218Y-28030D01*
X05488Y-28030D02*
X07379Y-28030D01*
X35449Y-27950D02*
X35948Y-27950D01*
X32578Y-27950D02*
X33253Y-27950D01*
X30402Y-27950D02*
X31988Y-27950D01*
X05488Y-27950D02*
X07413Y-27950D01*
X35449Y-27870D02*
X35948Y-27870D01*
X32696Y-27870D02*
X33253Y-27870D01*
X30482Y-27870D02*
X31869Y-27870D01*
X05488Y-27870D02*
X07487Y-27870D01*
X35420Y-27790D02*
X35948Y-27790D01*
X32769Y-27790D02*
X33282Y-27790D01*
X30525Y-27790D02*
X31816Y-27790D01*
X05488Y-27790D02*
X07567Y-27790D01*
X35387Y-27710D02*
X35948Y-27710D01*
X32823Y-27710D02*
X33316Y-27710D01*
X30558Y-27710D02*
X31763Y-27710D01*
X07990Y-27710D02*
X08045Y-27710D01*
X05488Y-27710D02*
X07760Y-27710D01*
X35353Y-27630D02*
X35948Y-27630D01*
X32876Y-27630D02*
X33349Y-27630D01*
X30567Y-27630D02*
X31734Y-27630D01*
X05488Y-27630D02*
X08045Y-27630D01*
X35364Y-27550D02*
X35948Y-27550D01*
X32895Y-27550D02*
X33336Y-27550D01*
X30567Y-27550D02*
X31718Y-27550D01*
X05488Y-27550D02*
X08045Y-27550D01*
X35398Y-27470D02*
X35948Y-27470D01*
X32910Y-27470D02*
X33303Y-27470D01*
X30567Y-27470D02*
X31702Y-27470D01*
X05488Y-27470D02*
X08045Y-27470D01*
X35432Y-27390D02*
X35948Y-27390D01*
X32924Y-27390D02*
X33269Y-27390D01*
X30567Y-27390D02*
X31715Y-27390D01*
X05488Y-27390D02*
X08045Y-27390D01*
X35449Y-27310D02*
X35948Y-27310D01*
X32924Y-27310D02*
X33253Y-27310D01*
X30567Y-27310D02*
X31731Y-27310D01*
X05488Y-27310D02*
X08045Y-27310D01*
X35449Y-27230D02*
X35948Y-27230D01*
X32924Y-27230D02*
X33253Y-27230D01*
X30567Y-27230D02*
X31750Y-27230D01*
X05488Y-27230D02*
X08045Y-27230D01*
X35449Y-27150D02*
X35948Y-27150D01*
X32924Y-27150D02*
X33253Y-27150D01*
X30567Y-27150D02*
X31761Y-27150D01*
X05488Y-27150D02*
X08045Y-27150D01*
X35449Y-27070D02*
X35948Y-27070D01*
X32924Y-27070D02*
X33253Y-27070D01*
X30567Y-27070D02*
X31761Y-27070D01*
X05488Y-27070D02*
X08045Y-27070D01*
X35416Y-26990D02*
X35948Y-26990D01*
X32924Y-26990D02*
X33286Y-26990D01*
X30567Y-26990D02*
X31761Y-26990D01*
X05488Y-26990D02*
X08045Y-26990D01*
X35382Y-26910D02*
X35948Y-26910D01*
X32924Y-26910D02*
X33320Y-26910D01*
X30566Y-26910D02*
X31761Y-26910D01*
X05488Y-26910D02*
X08045Y-26910D01*
X35349Y-26830D02*
X35948Y-26830D01*
X32924Y-26830D02*
X33353Y-26830D01*
X30533Y-26830D02*
X31761Y-26830D01*
X05488Y-26830D02*
X08045Y-26830D01*
X35369Y-26750D02*
X35948Y-26750D01*
X33001Y-26750D02*
X33332Y-26750D01*
X30499Y-26750D02*
X31684Y-26750D01*
X05488Y-26750D02*
X08045Y-26750D01*
X35402Y-26670D02*
X35948Y-26670D01*
X33044Y-26670D02*
X33298Y-26670D01*
X31507Y-26670D02*
X31641Y-26670D01*
X30993Y-26670D02*
X31093Y-26670D01*
X30419Y-26670D02*
X30579Y-26670D01*
X05488Y-26670D02*
X08045Y-26670D01*
X35436Y-26590D02*
X35948Y-26590D01*
X33077Y-26590D02*
X33265Y-26590D01*
X31567Y-26590D02*
X31608Y-26590D01*
X30993Y-26590D02*
X31093Y-26590D01*
X30287Y-26590D02*
X30518Y-26590D01*
X05488Y-26590D02*
X08047Y-26590D01*
X35449Y-26510D02*
X35948Y-26510D01*
X33086Y-26510D02*
X33253Y-26510D01*
X31592Y-26510D02*
X31600Y-26510D01*
X30993Y-26510D02*
X31093Y-26510D01*
X30246Y-26510D02*
X30493Y-26510D01*
X05488Y-26510D02*
X08064Y-26510D01*
X35449Y-26430D02*
X35948Y-26430D01*
X33086Y-26430D02*
X33253Y-26430D01*
X31592Y-26430D02*
X31600Y-26430D01*
X30993Y-26430D02*
X31093Y-26430D01*
X30246Y-26430D02*
X30493Y-26430D01*
X05488Y-26430D02*
X08080Y-26430D01*
X35449Y-26350D02*
X35948Y-26350D01*
X33086Y-26350D02*
X33253Y-26350D01*
X31592Y-26350D02*
X31600Y-26350D01*
X30993Y-26350D02*
X31093Y-26350D01*
X30246Y-26350D02*
X30493Y-26350D01*
X05488Y-26350D02*
X08124Y-26350D01*
X35445Y-26270D02*
X35948Y-26270D01*
X33086Y-26270D02*
X33257Y-26270D01*
X31592Y-26270D02*
X31600Y-26270D01*
X30993Y-26270D02*
X31093Y-26270D01*
X30246Y-26270D02*
X30493Y-26270D01*
X05488Y-26270D02*
X08177Y-26270D01*
X35412Y-26190D02*
X35948Y-26190D01*
X33086Y-26190D02*
X33291Y-26190D01*
X31589Y-26190D02*
X31600Y-26190D01*
X30993Y-26190D02*
X31093Y-26190D01*
X30246Y-26190D02*
X30497Y-26190D01*
X05488Y-26190D02*
X08249Y-26190D01*
X35378Y-26110D02*
X35948Y-26110D01*
X33086Y-26110D02*
X33324Y-26110D01*
X30246Y-26110D02*
X31600Y-26110D01*
X05488Y-26110D02*
X08329Y-26110D01*
X35345Y-26030D02*
X35948Y-26030D01*
X33086Y-26030D02*
X33357Y-26030D01*
X31533Y-26030D02*
X31600Y-26030D01*
X30993Y-26030D02*
X31093Y-26030D01*
X30246Y-26030D02*
X30553Y-26030D01*
X05488Y-26030D02*
X08409Y-26030D01*
X35373Y-25950D02*
X35948Y-25950D01*
X33086Y-25950D02*
X33327Y-25950D01*
X31593Y-25950D02*
X31600Y-25950D01*
X30993Y-25950D02*
X31093Y-25950D01*
X30246Y-25950D02*
X30494Y-25950D01*
X05488Y-25950D02*
X08489Y-25950D01*
X35407Y-25870D02*
X35948Y-25870D01*
X33086Y-25870D02*
X33294Y-25870D01*
X31593Y-25870D02*
X31600Y-25870D01*
X30993Y-25870D02*
X31093Y-25870D01*
X30246Y-25870D02*
X30494Y-25870D01*
X05488Y-25870D02*
X08569Y-25870D01*
X35440Y-25790D02*
X35948Y-25790D01*
X33086Y-25790D02*
X33261Y-25790D01*
X31593Y-25790D02*
X31600Y-25790D01*
X30993Y-25790D02*
X31093Y-25790D01*
X30246Y-25790D02*
X30494Y-25790D01*
X05488Y-25790D02*
X08649Y-25790D01*
X35449Y-25710D02*
X35948Y-25710D01*
X33086Y-25710D02*
X33253Y-25710D01*
X31593Y-25710D02*
X31600Y-25710D01*
X30993Y-25710D02*
X31093Y-25710D01*
X30246Y-25710D02*
X30494Y-25710D01*
X05488Y-25710D02*
X08729Y-25710D01*
X35449Y-25630D02*
X35948Y-25630D01*
X33086Y-25630D02*
X33253Y-25630D01*
X31592Y-25630D02*
X31600Y-25630D01*
X30993Y-25630D02*
X31093Y-25630D01*
X30246Y-25630D02*
X30495Y-25630D01*
X05488Y-25630D02*
X08809Y-25630D01*
X35449Y-25550D02*
X35948Y-25550D01*
X33068Y-25550D02*
X33253Y-25550D01*
X31558Y-25550D02*
X31619Y-25550D01*
X30993Y-25550D02*
X31093Y-25550D01*
X30246Y-25550D02*
X30529Y-25550D01*
X19555Y-25550D02*
X19570Y-25550D01*
X05488Y-25550D02*
X08889Y-25550D01*
X35441Y-25470D02*
X35948Y-25470D01*
X31525Y-25470D02*
X31633Y-25470D01*
X30993Y-25470D02*
X31093Y-25470D01*
X30246Y-25470D02*
X30560Y-25470D01*
X19544Y-25470D02*
X19570Y-25470D01*
X05488Y-25470D02*
X08969Y-25470D01*
X35407Y-25390D02*
X35948Y-25390D01*
X31575Y-25390D02*
X31600Y-25390D01*
X30993Y-25390D02*
X31093Y-25390D01*
X30246Y-25390D02*
X30510Y-25390D01*
X19544Y-25390D02*
X19570Y-25390D01*
X05488Y-25390D02*
X09049Y-25390D01*
X35374Y-25310D02*
X35948Y-25310D01*
X31592Y-25310D02*
X31600Y-25310D01*
X30993Y-25310D02*
X31093Y-25310D01*
X30246Y-25310D02*
X30493Y-25310D01*
X19533Y-25310D02*
X19570Y-25310D01*
X05488Y-25310D02*
X09164Y-25310D01*
X35347Y-25230D02*
X35948Y-25230D01*
X31592Y-25230D02*
X31600Y-25230D01*
X30993Y-25230D02*
X31093Y-25230D01*
X30246Y-25230D02*
X30493Y-25230D01*
X19500Y-25230D02*
X19570Y-25230D01*
X05488Y-25230D02*
X09536Y-25230D01*
X35381Y-25150D02*
X35948Y-25150D01*
X31592Y-25150D02*
X31600Y-25150D01*
X30993Y-25150D02*
X31093Y-25150D01*
X30246Y-25150D02*
X30493Y-25150D01*
X19451Y-25150D02*
X19570Y-25150D01*
X05488Y-25150D02*
X09585Y-25150D01*
X35415Y-25070D02*
X35948Y-25070D01*
X31592Y-25070D02*
X31600Y-25070D01*
X30993Y-25070D02*
X31093Y-25070D01*
X30292Y-25070D02*
X30493Y-25070D01*
X19371Y-25070D02*
X19570Y-25070D01*
X17893Y-25070D02*
X18031Y-25070D01*
X16515Y-25070D02*
X16554Y-25070D01*
X15137Y-25070D02*
X15176Y-25070D01*
X13759Y-25070D02*
X13798Y-25070D01*
X12381Y-25070D02*
X12420Y-25070D01*
X11003Y-25070D02*
X11042Y-25070D01*
X05488Y-25070D02*
X09665Y-25070D01*
X35449Y-24990D02*
X35948Y-24990D01*
X31570Y-24990D02*
X31600Y-24990D01*
X30993Y-24990D02*
X31093Y-24990D01*
X30372Y-24990D02*
X30516Y-24990D01*
X19204Y-24990D02*
X19570Y-24990D01*
X17727Y-24990D02*
X18199Y-24990D01*
X16349Y-24990D02*
X16722Y-24990D01*
X14971Y-24990D02*
X15344Y-24990D01*
X13593Y-24990D02*
X13966Y-24990D01*
X12215Y-24990D02*
X12588Y-24990D01*
X10837Y-24990D02*
X11210Y-24990D01*
X05488Y-24990D02*
X09832Y-24990D01*
X35449Y-24910D02*
X35948Y-24910D01*
X30452Y-24910D02*
X31600Y-24910D01*
X05488Y-24910D02*
X19570Y-24910D01*
X35449Y-24830D02*
X35948Y-24830D01*
X31552Y-24830D02*
X31600Y-24830D01*
X30532Y-24830D02*
X30534Y-24830D01*
X05488Y-24830D02*
X19570Y-24830D01*
X35449Y-24750D02*
X35948Y-24750D01*
X31593Y-24750D02*
X31600Y-24750D01*
X05488Y-24750D02*
X19570Y-24750D01*
X35432Y-24670D02*
X35948Y-24670D01*
X31593Y-24670D02*
X31600Y-24670D01*
X05488Y-24670D02*
X19570Y-24670D01*
X35399Y-24590D02*
X35948Y-24590D01*
X31593Y-24590D02*
X31600Y-24590D01*
X05488Y-24590D02*
X19570Y-24590D01*
X35366Y-24510D02*
X35948Y-24510D01*
X05488Y-24510D02*
X19570Y-24510D01*
X35320Y-24430D02*
X35948Y-24430D01*
X05488Y-24430D02*
X19570Y-24430D01*
X35240Y-24350D02*
X35948Y-24350D01*
X05488Y-24350D02*
X19570Y-24350D01*
X35201Y-24270D02*
X35948Y-24270D01*
X05488Y-24270D02*
X19570Y-24270D01*
X35229Y-24190D02*
X35948Y-24190D01*
X05488Y-24190D02*
X19570Y-24190D01*
X35250Y-24110D02*
X35948Y-24110D01*
X34725Y-24110D02*
X34767Y-24110D01*
X05488Y-24110D02*
X19570Y-24110D01*
X35245Y-24030D02*
X35948Y-24030D01*
X34705Y-24030D02*
X34847Y-24030D01*
X05488Y-24030D02*
X19570Y-24030D01*
X35241Y-23950D02*
X35948Y-23950D01*
X34785Y-23950D02*
X34927Y-23950D01*
X05488Y-23950D02*
X19570Y-23950D01*
X35214Y-23870D02*
X35948Y-23870D01*
X34865Y-23870D02*
X35007Y-23870D01*
X05488Y-23870D02*
X19570Y-23870D01*
X35133Y-23790D02*
X35948Y-23790D01*
X34945Y-23790D02*
X35087Y-23790D01*
X05488Y-23790D02*
X19570Y-23790D01*
X35025Y-23710D02*
X35948Y-23710D01*
X05488Y-23710D02*
X19570Y-23710D01*
X35022Y-23630D02*
X35948Y-23630D01*
X05488Y-23630D02*
X19570Y-23630D01*
X34955Y-23550D02*
X35948Y-23550D01*
X05488Y-23550D02*
X19570Y-23550D01*
X35205Y-23470D02*
X35948Y-23470D01*
X34875Y-23470D02*
X35017Y-23470D01*
X05488Y-23470D02*
X19570Y-23470D01*
X35233Y-23390D02*
X35948Y-23390D01*
X34795Y-23390D02*
X34937Y-23390D01*
X05488Y-23390D02*
X19570Y-23390D01*
X35250Y-23310D02*
X35948Y-23310D01*
X34715Y-23310D02*
X34857Y-23310D01*
X05488Y-23310D02*
X19570Y-23310D01*
X35245Y-23230D02*
X35948Y-23230D01*
X34715Y-23230D02*
X34777Y-23230D01*
X05488Y-23230D02*
X19570Y-23230D01*
X35240Y-23150D02*
X35948Y-23150D01*
X05488Y-23150D02*
X19570Y-23150D01*
X35210Y-23070D02*
X35948Y-23070D01*
X05488Y-23070D02*
X19570Y-23070D01*
X35228Y-22990D02*
X35948Y-22990D01*
X05488Y-22990D02*
X19570Y-22990D01*
X35309Y-22910D02*
X35948Y-22910D01*
X05488Y-22910D02*
X19570Y-22910D01*
X35361Y-22830D02*
X35948Y-22830D01*
X05488Y-22830D02*
X19570Y-22830D01*
X35395Y-22750D02*
X35948Y-22750D01*
X05488Y-22750D02*
X19570Y-22750D01*
X35428Y-22670D02*
X35948Y-22670D01*
X05488Y-22670D02*
X19570Y-22670D01*
X35449Y-22590D02*
X35948Y-22590D01*
X05488Y-22590D02*
X19570Y-22590D01*
X35449Y-22510D02*
X35948Y-22510D01*
X05488Y-22510D02*
X19570Y-22510D01*
X35449Y-22430D02*
X35948Y-22430D01*
X05488Y-22430D02*
X19570Y-22430D01*
X35449Y-22350D02*
X35948Y-22350D01*
X05488Y-22350D02*
X19570Y-22350D01*
X35420Y-22270D02*
X35948Y-22270D01*
X05488Y-22270D02*
X19570Y-22270D01*
X35387Y-22190D02*
X35948Y-22190D01*
X05488Y-22190D02*
X19570Y-22190D01*
X35353Y-22110D02*
X35948Y-22110D01*
X05488Y-22110D02*
X19570Y-22110D01*
X35368Y-22030D02*
X35948Y-22030D01*
X05488Y-22030D02*
X19570Y-22030D01*
X35402Y-21950D02*
X35948Y-21950D01*
X05488Y-21950D02*
X19570Y-21950D01*
X35436Y-21870D02*
X35948Y-21870D01*
X05488Y-21870D02*
X19570Y-21870D01*
X35449Y-21790D02*
X35948Y-21790D01*
X05488Y-21790D02*
X19570Y-21790D01*
X35449Y-21710D02*
X35948Y-21710D01*
X05488Y-21710D02*
X19570Y-21710D01*
X35449Y-21630D02*
X35948Y-21630D01*
X05488Y-21630D02*
X19570Y-21630D01*
X35445Y-21550D02*
X35948Y-21550D01*
X05488Y-21550D02*
X19570Y-21550D01*
X35412Y-21470D02*
X35948Y-21470D01*
X05488Y-21470D02*
X19570Y-21470D01*
X35378Y-21390D02*
X35948Y-21390D01*
X05488Y-21390D02*
X19570Y-21390D01*
X35345Y-21310D02*
X35948Y-21310D01*
X05488Y-21310D02*
X19570Y-21310D01*
X35373Y-21230D02*
X35948Y-21230D01*
X05488Y-21230D02*
X19570Y-21230D01*
X35407Y-21150D02*
X35948Y-21150D01*
X05488Y-21150D02*
X19570Y-21150D01*
X35440Y-21070D02*
X35948Y-21070D01*
X05488Y-21070D02*
X19570Y-21070D01*
X35449Y-20990D02*
X35948Y-20990D01*
X05488Y-20990D02*
X19570Y-20990D01*
X35449Y-20910D02*
X35948Y-20910D01*
X05488Y-20910D02*
X19570Y-20910D01*
X35449Y-20830D02*
X35948Y-20830D01*
X05488Y-20830D02*
X19570Y-20830D01*
X35441Y-20750D02*
X35948Y-20750D01*
X05488Y-20750D02*
X19570Y-20750D01*
X35407Y-20670D02*
X35948Y-20670D01*
X05488Y-20670D02*
X19570Y-20670D01*
X35374Y-20590D02*
X35948Y-20590D01*
X05488Y-20590D02*
X19570Y-20590D01*
X35343Y-20510D02*
X35948Y-20510D01*
X05488Y-20510D02*
X19570Y-20510D01*
X35377Y-20430D02*
X35948Y-20430D01*
X05488Y-20430D02*
X19570Y-20430D01*
X35411Y-20350D02*
X35948Y-20350D01*
X05488Y-20350D02*
X19570Y-20350D01*
X35445Y-20270D02*
X35948Y-20270D01*
X05488Y-20270D02*
X19570Y-20270D01*
X35449Y-20190D02*
X35948Y-20190D01*
X05488Y-20190D02*
X19570Y-20190D01*
X35449Y-20110D02*
X35948Y-20110D01*
X05488Y-20110D02*
X19570Y-20110D01*
X35449Y-20030D02*
X35948Y-20030D01*
X05488Y-20030D02*
X19570Y-20030D01*
X35437Y-19950D02*
X35948Y-19950D01*
X05488Y-19950D02*
X19570Y-19950D01*
X35403Y-19870D02*
X35948Y-19870D01*
X05488Y-19870D02*
X19570Y-19870D01*
X35370Y-19790D02*
X35948Y-19790D01*
X05488Y-19790D02*
X19570Y-19790D01*
X35347Y-19710D02*
X35948Y-19710D01*
X05488Y-19710D02*
X19570Y-19710D01*
X35381Y-19630D02*
X35948Y-19630D01*
X05488Y-19630D02*
X19570Y-19630D01*
X35415Y-19550D02*
X35948Y-19550D01*
X05488Y-19550D02*
X19570Y-19550D01*
X35449Y-19470D02*
X35948Y-19470D01*
X05488Y-19470D02*
X19570Y-19470D01*
X35449Y-19390D02*
X35948Y-19390D01*
X05488Y-19390D02*
X19570Y-19390D01*
X35449Y-19310D02*
X35948Y-19310D01*
X05488Y-19310D02*
X19570Y-19310D01*
X35449Y-19230D02*
X35948Y-19230D01*
X05488Y-19230D02*
X19570Y-19230D01*
X35432Y-19150D02*
X35948Y-19150D01*
X05488Y-19150D02*
X19570Y-19150D01*
X35399Y-19070D02*
X35948Y-19070D01*
X05488Y-19070D02*
X19570Y-19070D01*
X35366Y-18990D02*
X35948Y-18990D01*
X05488Y-18990D02*
X19570Y-18990D01*
X35356Y-18910D02*
X35948Y-18910D01*
X05488Y-18910D02*
X19570Y-18910D01*
X35390Y-18830D02*
X35948Y-18830D01*
X05488Y-18830D02*
X19570Y-18830D01*
X35424Y-18750D02*
X35948Y-18750D01*
X05488Y-18750D02*
X19583Y-18750D01*
X35449Y-18670D02*
X35948Y-18670D01*
X05488Y-18670D02*
X19600Y-18670D01*
X35449Y-18590D02*
X35948Y-18590D01*
X05488Y-18590D02*
X19632Y-18590D01*
X35449Y-18510D02*
X35948Y-18510D01*
X05488Y-18510D02*
X19685Y-18510D01*
X35449Y-18430D02*
X35948Y-18430D01*
X05488Y-18430D02*
X19749Y-18430D01*
X35424Y-18350D02*
X35948Y-18350D01*
X05488Y-18350D02*
X19829Y-18350D01*
X35391Y-18270D02*
X35948Y-18270D01*
X05488Y-18270D02*
X19909Y-18270D01*
X35357Y-18190D02*
X35948Y-18190D01*
X05488Y-18190D02*
X19989Y-18190D01*
X35360Y-18110D02*
X35948Y-18110D01*
X05488Y-18110D02*
X20069Y-18110D01*
X35394Y-18030D02*
X35948Y-18030D01*
X05488Y-18030D02*
X20149Y-18030D01*
X35428Y-17950D02*
X35948Y-17950D01*
X05488Y-17950D02*
X20229Y-17950D01*
X35449Y-17870D02*
X35948Y-17870D01*
X05488Y-17870D02*
X20309Y-17870D01*
X35449Y-17790D02*
X35948Y-17790D01*
X05488Y-17790D02*
X20389Y-17790D01*
X35449Y-17710D02*
X35948Y-17710D01*
X05488Y-17710D02*
X20469Y-17710D01*
X35449Y-17630D02*
X35948Y-17630D01*
X05488Y-17630D02*
X20549Y-17630D01*
X35420Y-17550D02*
X35948Y-17550D01*
X05488Y-17550D02*
X20629Y-17550D01*
X35387Y-17470D02*
X35948Y-17470D01*
X05488Y-17470D02*
X20709Y-17470D01*
X35353Y-17390D02*
X35948Y-17390D01*
X05488Y-17390D02*
X20789Y-17390D01*
X35364Y-17310D02*
X35948Y-17310D01*
X05488Y-17310D02*
X20869Y-17310D01*
X35398Y-17230D02*
X35948Y-17230D01*
X05488Y-17230D02*
X20949Y-17230D01*
X35432Y-17150D02*
X35948Y-17150D01*
X05488Y-17150D02*
X21029Y-17150D01*
X35449Y-17070D02*
X35948Y-17070D01*
X05488Y-17070D02*
X21109Y-17070D01*
X35449Y-16990D02*
X35948Y-16990D01*
X05488Y-16990D02*
X21189Y-16990D01*
X35449Y-16910D02*
X35948Y-16910D01*
X05488Y-16910D02*
X21269Y-16910D01*
X35449Y-16830D02*
X35948Y-16830D01*
X05488Y-16830D02*
X21349Y-16830D01*
X35416Y-16750D02*
X35948Y-16750D01*
X05488Y-16750D02*
X21429Y-16750D01*
X35382Y-16670D02*
X35948Y-16670D01*
X05488Y-16670D02*
X21509Y-16670D01*
X35349Y-16590D02*
X35948Y-16590D01*
X05488Y-16590D02*
X21589Y-16590D01*
X35369Y-16510D02*
X35948Y-16510D01*
X05488Y-16510D02*
X21669Y-16510D01*
X35402Y-16430D02*
X35948Y-16430D01*
X05488Y-16430D02*
X21749Y-16430D01*
X35436Y-16350D02*
X35948Y-16350D01*
X05488Y-16350D02*
X21829Y-16350D01*
X35449Y-16270D02*
X35948Y-16270D01*
X05488Y-16270D02*
X21909Y-16270D01*
X35449Y-16190D02*
X35948Y-16190D01*
X05488Y-16190D02*
X21989Y-16190D01*
X35449Y-16110D02*
X35948Y-16110D01*
X05488Y-16110D02*
X22069Y-16110D01*
X35445Y-16030D02*
X35948Y-16030D01*
X05488Y-16030D02*
X22149Y-16030D01*
X35412Y-15950D02*
X35948Y-15950D01*
X05488Y-15950D02*
X22229Y-15950D01*
X35378Y-15870D02*
X35948Y-15870D01*
X05488Y-15870D02*
X22309Y-15870D01*
X35345Y-15790D02*
X35948Y-15790D01*
X05488Y-15790D02*
X22389Y-15790D01*
X35377Y-15710D02*
X35948Y-15710D01*
X05488Y-15710D02*
X22469Y-15710D01*
X35411Y-15630D02*
X35948Y-15630D01*
X05488Y-15630D02*
X22549Y-15630D01*
X35445Y-15550D02*
X35948Y-15550D01*
X05488Y-15550D02*
X22629Y-15550D01*
X35449Y-15470D02*
X35948Y-15470D01*
X05488Y-15470D02*
X22709Y-15470D01*
X35449Y-15390D02*
X35948Y-15390D01*
X05488Y-15390D02*
X22789Y-15390D01*
X35449Y-15310D02*
X35948Y-15310D01*
X05488Y-15310D02*
X22869Y-15310D01*
X35437Y-15230D02*
X35948Y-15230D01*
X05488Y-15230D02*
X22949Y-15230D01*
X35403Y-15150D02*
X35948Y-15150D01*
X05488Y-15150D02*
X23029Y-15150D01*
X35370Y-15070D02*
X35948Y-15070D01*
X05488Y-15070D02*
X23109Y-15070D01*
X35347Y-14990D02*
X35948Y-14990D01*
X05488Y-14990D02*
X23189Y-14990D01*
X35381Y-14910D02*
X35948Y-14910D01*
X05488Y-14910D02*
X23269Y-14910D01*
X35415Y-14830D02*
X35948Y-14830D01*
X05488Y-14830D02*
X23349Y-14830D01*
X35449Y-14750D02*
X35948Y-14750D01*
X05488Y-14750D02*
X23429Y-14750D01*
X35449Y-14670D02*
X35948Y-14670D01*
X05488Y-14670D02*
X23509Y-14670D01*
X35449Y-14590D02*
X35948Y-14590D01*
X05488Y-14590D02*
X23589Y-14590D01*
X35449Y-14510D02*
X35948Y-14510D01*
X05488Y-14510D02*
X23669Y-14510D01*
X35432Y-14430D02*
X35948Y-14430D01*
X33705Y-14430D02*
X33846Y-14430D01*
X33317Y-14430D02*
X33489Y-14430D01*
X05488Y-14430D02*
X23749Y-14430D01*
X35399Y-14350D02*
X35948Y-14350D01*
X33625Y-14350D02*
X33766Y-14350D01*
X33237Y-14350D02*
X33529Y-14350D01*
X05488Y-14350D02*
X23829Y-14350D01*
X35366Y-14270D02*
X35948Y-14270D01*
X33157Y-14270D02*
X33686Y-14270D01*
X05488Y-14270D02*
X23909Y-14270D01*
X35320Y-14190D02*
X35948Y-14190D01*
X33064Y-14190D02*
X33695Y-14190D01*
X05488Y-14190D02*
X23989Y-14190D01*
X35240Y-14110D02*
X35948Y-14110D01*
X34040Y-14110D02*
X34252Y-14110D01*
X32940Y-14110D02*
X33943Y-14110D01*
X05488Y-14110D02*
X24069Y-14110D01*
X35160Y-14030D02*
X35948Y-14030D01*
X31446Y-14030D02*
X34333Y-14030D01*
X05488Y-14030D02*
X24149Y-14030D01*
X34990Y-13950D02*
X35948Y-13950D01*
X31446Y-13950D02*
X34504Y-13950D01*
X05488Y-13950D02*
X24229Y-13950D01*
X31414Y-13870D02*
X35948Y-13870D01*
X05488Y-13870D02*
X24309Y-13870D01*
X31381Y-13790D02*
X35948Y-13790D01*
X05488Y-13790D02*
X24389Y-13790D01*
X31325Y-13710D02*
X35948Y-13710D01*
X05488Y-13710D02*
X24469Y-13710D01*
X31245Y-13630D02*
X35948Y-13630D01*
X05488Y-13630D02*
X24549Y-13630D01*
X31100Y-13550D02*
X35948Y-13550D01*
X05488Y-13550D02*
X24629Y-13550D01*
X31018Y-13470D02*
X35948Y-13470D01*
X05488Y-13470D02*
X24709Y-13470D01*
X30938Y-13390D02*
X35948Y-13390D01*
X05488Y-13390D02*
X24789Y-13390D01*
X30858Y-13310D02*
X35948Y-13310D01*
X05488Y-13310D02*
X24827Y-13310D01*
X30778Y-13230D02*
X35948Y-13230D01*
X05488Y-13230D02*
X24827Y-13230D01*
X30698Y-13150D02*
X35948Y-13150D01*
X05488Y-13150D02*
X24827Y-13150D01*
X30618Y-13070D02*
X35948Y-13070D01*
X05488Y-13070D02*
X24827Y-13070D01*
X30538Y-12990D02*
X35948Y-12990D01*
X05488Y-12990D02*
X24827Y-12990D01*
X30434Y-12910D02*
X35948Y-12910D01*
X05488Y-12910D02*
X24827Y-12910D01*
X30240Y-12830D02*
X35948Y-12830D01*
X05488Y-12830D02*
X24827Y-12830D01*
X27585Y-12750D02*
X35948Y-12750D01*
X05488Y-12750D02*
X24856Y-12750D01*
X27552Y-12670D02*
X35948Y-12670D01*
X05488Y-12670D02*
X24890Y-12670D01*
X27480Y-12590D02*
X35948Y-12590D01*
X26180Y-12590D02*
X26260Y-12590D01*
X05488Y-12590D02*
X24961Y-12590D01*
X27369Y-12510D02*
X35948Y-12510D01*
X26069Y-12510D02*
X26371Y-12510D01*
X05488Y-12510D02*
X25071Y-12510D01*
X05488Y-12430D02*
X35948Y-12430D01*
X05488Y-12350D02*
X35948Y-12350D01*
X05488Y-12270D02*
X35948Y-12270D01*
X05488Y-12190D02*
X35948Y-12190D01*
X05488Y-12110D02*
X35948Y-12110D01*
X05488Y-12030D02*
X35948Y-12030D01*
X05488Y-11950D02*
X35948Y-11950D01*
X05488Y-11870D02*
X35948Y-11870D01*
X05488Y-11790D02*
X35948Y-11790D01*
X05488Y-11710D02*
X35948Y-11710D01*
X05488Y-11630D02*
X35948Y-11630D01*
X05488Y-11550D02*
X35948Y-11550D01*
X05488Y-11470D02*
X35948Y-11470D01*
X05488Y-11390D02*
X35948Y-11390D01*
X05488Y-11310D02*
X35948Y-11310D01*
X05488Y-11230D02*
X35948Y-11230D01*
X05488Y-11150D02*
X35948Y-11150D01*
X05488Y-11070D02*
X35948Y-11070D01*
X05488Y-10990D02*
X35948Y-10990D01*
X05488Y-10910D02*
X35948Y-10910D01*
X05488Y-10830D02*
X35948Y-10830D01*
X05488Y-10750D02*
X35948Y-10750D01*
X05488Y-10670D02*
X35948Y-10670D01*
X05488Y-10590D02*
X35948Y-10590D01*
X05488Y-10510D02*
X35948Y-10510D01*
X05488Y-10430D02*
X35948Y-10430D01*
X05488Y-10350D02*
X35948Y-10350D01*
X05488Y-10270D02*
X35948Y-10270D01*
X05488Y-10190D02*
X35948Y-10190D01*
X05488Y-10110D02*
X35948Y-10110D01*
X05488Y-10030D02*
X35948Y-10030D01*
X05488Y-09950D02*
X35948Y-09950D01*
X05488Y-09870D02*
X35948Y-09870D01*
X05488Y-09790D02*
X35948Y-09790D01*
X05488Y-09710D02*
X35948Y-09710D01*
X05488Y-09630D02*
X35948Y-09630D01*
X05488Y-09550D02*
X35948Y-09550D01*
X05488Y-09470D02*
X35948Y-09470D01*
X05488Y-09390D02*
X35948Y-09390D01*
X05488Y-09310D02*
X35948Y-09310D01*
X05488Y-09230D02*
X35948Y-09230D01*
X05488Y-09150D02*
X35948Y-09150D01*
X05488Y-09070D02*
X35948Y-09070D01*
X05488Y-08990D02*
X35948Y-08990D01*
X05488Y-08910D02*
X35948Y-08910D01*
X05488Y-08830D02*
X35948Y-08830D01*
X05488Y-08750D02*
X35948Y-08750D01*
X35121Y-08670D02*
X35948Y-08670D01*
X05488Y-08670D02*
X34148Y-08670D01*
X35314Y-08590D02*
X35948Y-08590D01*
X05488Y-08590D02*
X33955Y-08590D01*
X35507Y-08510D02*
X35948Y-08510D01*
X05488Y-08510D02*
X33762Y-08510D01*
X35701Y-08430D02*
X35948Y-08430D01*
X05488Y-08430D02*
X33570Y-08430D01*
X35824Y-08350D02*
X35948Y-08350D01*
X05488Y-08350D02*
X33445Y-08350D01*
X35904Y-08270D02*
X35948Y-08270D01*
X05488Y-08270D02*
X33365Y-08270D01*
X05488Y-08190D02*
X33285Y-08190D01*
X05488Y-08110D02*
X33205Y-08110D01*
X05488Y-08030D02*
X33125Y-08030D01*
X05488Y-07950D02*
X33045Y-07950D01*
X05488Y-07870D02*
X32965Y-07870D01*
X05488Y-07790D02*
X32910Y-07790D01*
X05488Y-07710D02*
X32876Y-07710D01*
X05488Y-07630D02*
X32843Y-07630D01*
X05488Y-07550D02*
X32810Y-07550D01*
X05488Y-07470D02*
X32777Y-07470D01*
X05488Y-07390D02*
X32744Y-07390D01*
X05488Y-07310D02*
X32711Y-07310D01*
X05488Y-07230D02*
X32678Y-07230D01*
X05488Y-07150D02*
X32645Y-07150D01*
X05488Y-07070D02*
X32622Y-07070D01*
X05488Y-06990D02*
X32622Y-06990D01*
X05488Y-06910D02*
X32622Y-06910D01*
X05488Y-06830D02*
X32622Y-06830D01*
X05488Y-06750D02*
X32622Y-06750D01*
X05488Y-06670D02*
X32622Y-06670D01*
X05488Y-06590D02*
X32622Y-06590D01*
X05488Y-06510D02*
X32622Y-06510D01*
X05488Y-06430D02*
X32622Y-06430D01*
X05488Y-06350D02*
X32622Y-06350D01*
X05488Y-06270D02*
X32631Y-06270D01*
X05488Y-06190D02*
X32664Y-06190D01*
X05488Y-06110D02*
X32697Y-06110D01*
X05488Y-06030D02*
X32730Y-06030D01*
X05488Y-05950D02*
X32764Y-05950D01*
X05488Y-05870D02*
X32797Y-05870D01*
X05488Y-05790D02*
X32830Y-05790D01*
X05488Y-05710D02*
X32863Y-05710D01*
X05488Y-05630D02*
X32896Y-05630D01*
X05488Y-05550D02*
X32929Y-05550D01*
X05488Y-05470D02*
X33009Y-05470D01*
X05488Y-05390D02*
X33089Y-05390D01*
X33090Y-36342D02*
X32927Y-36178D01*
X32927Y-36178D02*
X32642Y-35491D01*
X32642Y-35491D02*
X32588Y-35546D01*
X32588Y-35546D02*
X32172Y-35718D01*
X32172Y-35718D02*
X31722Y-35718D01*
X31722Y-35718D02*
X31306Y-35545D01*
X31306Y-35545D02*
X30988Y-35226D01*
X30988Y-35226D02*
X30816Y-34810D01*
X30816Y-34810D02*
X30816Y-34360D01*
X30816Y-34360D02*
X30989Y-33944D01*
X30989Y-33944D02*
X30993Y-33940D01*
X30993Y-33940D02*
X31308Y-33626D01*
X31308Y-33626D02*
X31724Y-33454D01*
X31724Y-33454D02*
X32174Y-33454D01*
X32174Y-33454D02*
X32590Y-33627D01*
X32590Y-33627D02*
X32908Y-33946D01*
X32908Y-33946D02*
X32929Y-33897D01*
X32929Y-33897D02*
X33496Y-33331D01*
X33496Y-33331D02*
X34236Y-33025D01*
X34236Y-33025D02*
X35037Y-33026D01*
X35037Y-33026D02*
X35777Y-33333D01*
X35777Y-33333D02*
X35948Y-33504D01*
X35948Y-33504D02*
X35948Y-08226D01*
X35948Y-08226D02*
X35774Y-08400D01*
X35774Y-08400D02*
X35034Y-08706D01*
X35034Y-08706D02*
X34233Y-08705D01*
X34233Y-08705D02*
X33493Y-08398D01*
X33493Y-08398D02*
X32927Y-07831D01*
X32927Y-07831D02*
X32621Y-07091D01*
X32621Y-07091D02*
X32622Y-06290D01*
X32622Y-06290D02*
X32929Y-05550D01*
X32929Y-05550D02*
X33089Y-05390D01*
X33089Y-05390D02*
X05488Y-05390D01*
X05488Y-05390D02*
X05488Y-29640D01*
X05488Y-29640D02*
X05986Y-29142D01*
X05986Y-29142D02*
X06146Y-29036D01*
X06146Y-29036D02*
X06335Y-28998D01*
X06335Y-28998D02*
X07275Y-28998D01*
X07275Y-28998D02*
X07306Y-28967D01*
X07306Y-28967D02*
X07305Y-28323D01*
X07305Y-28323D02*
X07333Y-28188D01*
X07333Y-28188D02*
X07333Y-28140D01*
X07333Y-28140D02*
X07416Y-27941D01*
X07416Y-27941D02*
X07568Y-27789D01*
X07568Y-27789D02*
X07767Y-27707D01*
X07767Y-27707D02*
X07982Y-27707D01*
X07982Y-27707D02*
X08046Y-27733D01*
X08046Y-27733D02*
X08045Y-26598D01*
X08045Y-26598D02*
X08084Y-26409D01*
X08084Y-26409D02*
X08190Y-26249D01*
X08190Y-26249D02*
X09061Y-25378D01*
X09061Y-25378D02*
X09221Y-25272D01*
X09221Y-25272D02*
X09410Y-25234D01*
X09410Y-25234D02*
X09534Y-25234D01*
X09534Y-25234D02*
X09559Y-25176D01*
X09559Y-25176D02*
X09683Y-25051D01*
X09683Y-25051D02*
X09846Y-24984D01*
X09846Y-24984D02*
X10822Y-24984D01*
X10822Y-24984D02*
X10985Y-25052D01*
X10985Y-25052D02*
X11022Y-25089D01*
X11022Y-25089D02*
X11061Y-25051D01*
X11061Y-25051D02*
X11224Y-24984D01*
X11224Y-24984D02*
X12200Y-24984D01*
X12200Y-24984D02*
X12363Y-25052D01*
X12363Y-25052D02*
X12400Y-25089D01*
X12400Y-25089D02*
X12439Y-25051D01*
X12439Y-25051D02*
X12602Y-24984D01*
X12602Y-24984D02*
X13578Y-24984D01*
X13578Y-24984D02*
X13741Y-25052D01*
X13741Y-25052D02*
X13778Y-25089D01*
X13778Y-25089D02*
X13817Y-25051D01*
X13817Y-25051D02*
X13980Y-24984D01*
X13980Y-24984D02*
X14956Y-24984D01*
X14956Y-24984D02*
X15119Y-25052D01*
X15119Y-25052D02*
X15156Y-25089D01*
X15156Y-25089D02*
X15195Y-25051D01*
X15195Y-25051D02*
X15358Y-24984D01*
X15358Y-24984D02*
X16334Y-24984D01*
X16334Y-24984D02*
X16497Y-25052D01*
X16497Y-25052D02*
X16534Y-25089D01*
X16534Y-25089D02*
X16573Y-25051D01*
X16573Y-25051D02*
X16736Y-24984D01*
X16736Y-24984D02*
X17712Y-24984D01*
X17712Y-24984D02*
X17875Y-25052D01*
X17875Y-25052D02*
X17962Y-25139D01*
X17962Y-25139D02*
X18050Y-25051D01*
X18050Y-25051D02*
X18213Y-24984D01*
X18213Y-24984D02*
X19189Y-24984D01*
X19189Y-24984D02*
X19352Y-25052D01*
X19352Y-25052D02*
X19477Y-25176D01*
X19477Y-25176D02*
X19544Y-25339D01*
X19544Y-25339D02*
X19544Y-25539D01*
X19544Y-25539D02*
X19571Y-25566D01*
X19571Y-25566D02*
X19570Y-18813D01*
X19570Y-18813D02*
X19609Y-18624D01*
X19609Y-18624D02*
X19715Y-18464D01*
X19715Y-18464D02*
X24827Y-13352D01*
X24827Y-13352D02*
X24827Y-12819D01*
X24827Y-12819D02*
X24895Y-12656D01*
X24895Y-12656D02*
X25019Y-12531D01*
X25019Y-12531D02*
X25182Y-12464D01*
X25182Y-12464D02*
X25958Y-12464D01*
X25958Y-12464D02*
X26121Y-12532D01*
X26121Y-12532D02*
X26220Y-12630D01*
X26220Y-12630D02*
X26319Y-12531D01*
X26319Y-12531D02*
X26482Y-12464D01*
X26482Y-12464D02*
X27258Y-12464D01*
X27258Y-12464D02*
X27421Y-12532D01*
X27421Y-12532D02*
X27546Y-12656D01*
X27546Y-12656D02*
X27610Y-12814D01*
X27610Y-12814D02*
X30157Y-12813D01*
X30157Y-12813D02*
X30346Y-12852D01*
X30346Y-12852D02*
X30506Y-12958D01*
X30506Y-12958D02*
X31095Y-13548D01*
X31095Y-13548D02*
X31212Y-13597D01*
X31212Y-13597D02*
X31364Y-13749D01*
X31364Y-13749D02*
X31446Y-13948D01*
X31446Y-13948D02*
X31446Y-14073D01*
X31446Y-14073D02*
X32755Y-14072D01*
X32755Y-14072D02*
X32944Y-14111D01*
X32944Y-14111D02*
X33104Y-14217D01*
X33104Y-14217D02*
X33393Y-14507D01*
X33393Y-14507D02*
X33462Y-14507D01*
X33462Y-14507D02*
X33516Y-14353D01*
X33516Y-14353D02*
X33606Y-14331D01*
X33606Y-14331D02*
X33781Y-14507D01*
X33781Y-14507D02*
X33923Y-14507D01*
X33923Y-14507D02*
X33677Y-14260D01*
X33677Y-14260D02*
X33699Y-14170D01*
X33699Y-14170D02*
X33827Y-14117D01*
X33827Y-14117D02*
X34025Y-14105D01*
X34025Y-14105D02*
X34197Y-14164D01*
X34197Y-14164D02*
X34349Y-14014D01*
X34349Y-14014D02*
X34607Y-13907D01*
X34607Y-13907D02*
X34887Y-13907D01*
X34887Y-13907D02*
X35145Y-14015D01*
X35145Y-14015D02*
X35342Y-14213D01*
X35342Y-14213D02*
X35449Y-14471D01*
X35449Y-14471D02*
X35449Y-14751D01*
X35449Y-14751D02*
X35342Y-15004D01*
X35342Y-15004D02*
X35449Y-15261D01*
X35449Y-15261D02*
X35449Y-15541D01*
X35449Y-15541D02*
X35344Y-15789D01*
X35344Y-15789D02*
X35449Y-16041D01*
X35449Y-16041D02*
X35449Y-16321D01*
X35449Y-16321D02*
X35342Y-16574D01*
X35342Y-16574D02*
X35449Y-16831D01*
X35449Y-16831D02*
X35449Y-17111D01*
X35449Y-17111D02*
X35342Y-17364D01*
X35342Y-17364D02*
X35449Y-17621D01*
X35449Y-17621D02*
X35449Y-17901D01*
X35449Y-17901D02*
X35342Y-18154D01*
X35342Y-18154D02*
X35449Y-18411D01*
X35449Y-18411D02*
X35449Y-18691D01*
X35449Y-18691D02*
X35344Y-18939D01*
X35344Y-18939D02*
X35449Y-19191D01*
X35449Y-19191D02*
X35449Y-19471D01*
X35449Y-19471D02*
X35342Y-19724D01*
X35342Y-19724D02*
X35449Y-19981D01*
X35449Y-19981D02*
X35449Y-20261D01*
X35449Y-20261D02*
X35342Y-20514D01*
X35342Y-20514D02*
X35449Y-20771D01*
X35449Y-20771D02*
X35449Y-21051D01*
X35449Y-21051D02*
X35342Y-21304D01*
X35342Y-21304D02*
X35449Y-21561D01*
X35449Y-21561D02*
X35449Y-21841D01*
X35449Y-21841D02*
X35344Y-22089D01*
X35344Y-22089D02*
X35449Y-22341D01*
X35449Y-22341D02*
X35449Y-22621D01*
X35449Y-22621D02*
X35341Y-22879D01*
X35341Y-22879D02*
X35191Y-23027D01*
X35191Y-23027D02*
X35239Y-23141D01*
X35239Y-23141D02*
X35251Y-23339D01*
X35251Y-23339D02*
X35186Y-23527D01*
X35186Y-23527D02*
X35096Y-23549D01*
X35096Y-23549D02*
X34817Y-23270D01*
X34817Y-23270D02*
X34746Y-23199D01*
X34746Y-23199D02*
X34675Y-23270D01*
X34675Y-23270D02*
X34746Y-23341D01*
X34746Y-23341D02*
X35025Y-23620D01*
X35025Y-23620D02*
X35013Y-23664D01*
X35013Y-23664D02*
X35025Y-23710D01*
X35025Y-23710D02*
X34746Y-23989D01*
X34746Y-23989D02*
X34675Y-24060D01*
X34675Y-24060D02*
X34746Y-24131D01*
X34746Y-24131D02*
X34817Y-24060D01*
X34817Y-24060D02*
X35096Y-23781D01*
X35096Y-23781D02*
X35186Y-23803D01*
X35186Y-23803D02*
X35239Y-23931D01*
X35239Y-23931D02*
X35251Y-24129D01*
X35251Y-24129D02*
X35191Y-24301D01*
X35191Y-24301D02*
X35342Y-24453D01*
X35342Y-24453D02*
X35449Y-24711D01*
X35449Y-24711D02*
X35449Y-24991D01*
X35449Y-24991D02*
X35344Y-25239D01*
X35344Y-25239D02*
X35449Y-25491D01*
X35449Y-25491D02*
X35449Y-25771D01*
X35449Y-25771D02*
X35342Y-26024D01*
X35342Y-26024D02*
X35449Y-26281D01*
X35449Y-26281D02*
X35449Y-26561D01*
X35449Y-26561D02*
X35342Y-26814D01*
X35342Y-26814D02*
X35449Y-27071D01*
X35449Y-27071D02*
X35449Y-27351D01*
X35449Y-27351D02*
X35342Y-27604D01*
X35342Y-27604D02*
X35449Y-27861D01*
X35449Y-27861D02*
X35449Y-28141D01*
X35449Y-28141D02*
X35344Y-28389D01*
X35344Y-28389D02*
X35449Y-28641D01*
X35449Y-28641D02*
X35449Y-28921D01*
X35449Y-28921D02*
X35342Y-29174D01*
X35342Y-29174D02*
X35449Y-29431D01*
X35449Y-29431D02*
X35449Y-29711D01*
X35449Y-29711D02*
X35341Y-29969D01*
X35341Y-29969D02*
X35143Y-30166D01*
X35143Y-30166D02*
X34885Y-30273D01*
X34885Y-30273D02*
X34605Y-30273D01*
X34605Y-30273D02*
X34351Y-30166D01*
X34351Y-30166D02*
X34095Y-30273D01*
X34095Y-30273D02*
X33815Y-30273D01*
X33815Y-30273D02*
X33557Y-30165D01*
X33557Y-30165D02*
X33360Y-29967D01*
X33360Y-29967D02*
X33253Y-29709D01*
X33253Y-29709D02*
X33253Y-29429D01*
X33253Y-29429D02*
X33359Y-29175D01*
X33359Y-29175D02*
X33253Y-28919D01*
X33253Y-28919D02*
X33253Y-28639D01*
X33253Y-28639D02*
X33357Y-28390D01*
X33357Y-28390D02*
X33253Y-28139D01*
X33253Y-28139D02*
X33253Y-27859D01*
X33253Y-27859D02*
X33359Y-27605D01*
X33359Y-27605D02*
X33253Y-27349D01*
X33253Y-27349D02*
X33253Y-27069D01*
X33253Y-27069D02*
X33359Y-26815D01*
X33359Y-26815D02*
X33253Y-26559D01*
X33253Y-26559D02*
X33253Y-26279D01*
X33253Y-26279D02*
X33359Y-26025D01*
X33359Y-26025D02*
X33253Y-25769D01*
X33253Y-25769D02*
X33253Y-25489D01*
X33253Y-25489D02*
X33255Y-25483D01*
X33255Y-25483D02*
X33046Y-25483D01*
X33046Y-25483D02*
X33043Y-25490D01*
X33043Y-25490D02*
X33086Y-25594D01*
X33086Y-25594D02*
X33086Y-26570D01*
X33086Y-26570D02*
X33018Y-26733D01*
X33018Y-26733D02*
X32925Y-26826D01*
X32925Y-26826D02*
X32924Y-27400D01*
X32924Y-27400D02*
X32881Y-27623D01*
X32881Y-27623D02*
X32755Y-27812D01*
X32755Y-27812D02*
X32752Y-27813D01*
X32752Y-27813D02*
X32695Y-27872D01*
X32695Y-27872D02*
X32506Y-27998D01*
X32506Y-27998D02*
X32283Y-28043D01*
X32283Y-28043D02*
X32060Y-27998D01*
X32060Y-27998D02*
X31871Y-27872D01*
X31871Y-27872D02*
X31745Y-27683D01*
X31745Y-27683D02*
X31700Y-27460D01*
X31700Y-27460D02*
X31745Y-27237D01*
X31745Y-27237D02*
X31761Y-27213D01*
X31761Y-27213D02*
X31761Y-26826D01*
X31761Y-26826D02*
X31667Y-26733D01*
X31667Y-26733D02*
X31600Y-26570D01*
X31600Y-26570D02*
X31600Y-25594D01*
X31600Y-25594D02*
X31642Y-25492D01*
X31642Y-25492D02*
X31600Y-25389D01*
X31600Y-25389D02*
X31600Y-24582D01*
X31600Y-24582D02*
X31592Y-24582D01*
X31592Y-24582D02*
X31593Y-24789D01*
X31593Y-24789D02*
X31531Y-24851D01*
X31531Y-24851D02*
X31093Y-24851D01*
X31093Y-24851D02*
X30993Y-24851D01*
X30993Y-24851D02*
X30555Y-24851D01*
X30555Y-24851D02*
X30533Y-24829D01*
X30533Y-24829D02*
X30246Y-25117D01*
X30246Y-25117D02*
X30246Y-26573D01*
X30246Y-26573D02*
X30375Y-26627D01*
X30375Y-26627D02*
X30500Y-26751D01*
X30500Y-26751D02*
X30567Y-26914D01*
X30567Y-26914D02*
X30567Y-27690D01*
X30567Y-27690D02*
X30499Y-27853D01*
X30499Y-27853D02*
X30400Y-27952D01*
X30400Y-27952D02*
X30500Y-28051D01*
X30500Y-28051D02*
X30567Y-28214D01*
X30567Y-28214D02*
X30567Y-28990D01*
X30567Y-28990D02*
X30507Y-29131D01*
X30507Y-29131D02*
X30519Y-29161D01*
X30519Y-29161D02*
X30688Y-29161D01*
X30688Y-29161D02*
X30799Y-29183D01*
X30799Y-29183D02*
X30856Y-29183D01*
X30856Y-29183D02*
X30931Y-29214D01*
X30931Y-29214D02*
X30931Y-26732D01*
X30931Y-26732D02*
X30694Y-26731D01*
X30694Y-26731D02*
X30602Y-26693D01*
X30602Y-26693D02*
X30532Y-26623D01*
X30532Y-26623D02*
X30494Y-26532D01*
X30494Y-26532D02*
X30493Y-26194D01*
X30493Y-26194D02*
X30555Y-26132D01*
X30555Y-26132D02*
X30555Y-26032D01*
X30555Y-26032D02*
X30493Y-25970D01*
X30493Y-25970D02*
X30494Y-25632D01*
X30494Y-25632D02*
X30532Y-25541D01*
X30532Y-25541D02*
X30581Y-25491D01*
X30581Y-25491D02*
X30532Y-25442D01*
X30532Y-25442D02*
X30494Y-25351D01*
X30494Y-25351D02*
X30493Y-25013D01*
X30493Y-25013D02*
X30555Y-24951D01*
X30555Y-24951D02*
X30993Y-24951D01*
X30993Y-24951D02*
X30993Y-25489D01*
X30993Y-25489D02*
X30990Y-25491D01*
X30990Y-25491D02*
X30993Y-25494D01*
X30993Y-25494D02*
X30993Y-26032D01*
X30993Y-26032D02*
X30555Y-26032D01*
X30555Y-26032D02*
X30555Y-26132D01*
X30555Y-26132D02*
X30993Y-26132D01*
X30993Y-26132D02*
X30993Y-26670D01*
X30993Y-26670D02*
X30931Y-26732D01*
X30931Y-26732D02*
X30931Y-29214D01*
X30931Y-29214D02*
X31055Y-29266D01*
X31055Y-29266D02*
X31155Y-29365D01*
X31155Y-29365D02*
X31155Y-26732D01*
X31155Y-26732D02*
X31093Y-26670D01*
X31093Y-26670D02*
X31093Y-26132D01*
X31093Y-26132D02*
X31093Y-26032D01*
X31093Y-26032D02*
X31093Y-25494D01*
X31093Y-25494D02*
X31095Y-25491D01*
X31095Y-25491D02*
X31093Y-25489D01*
X31093Y-25489D02*
X31093Y-24951D01*
X31093Y-24951D02*
X31531Y-24951D01*
X31531Y-24951D02*
X31593Y-25013D01*
X31593Y-25013D02*
X31592Y-25351D01*
X31592Y-25351D02*
X31554Y-25442D01*
X31554Y-25442D02*
X31504Y-25491D01*
X31504Y-25491D02*
X31554Y-25541D01*
X31554Y-25541D02*
X31592Y-25632D01*
X31592Y-25632D02*
X31593Y-25970D01*
X31593Y-25970D02*
X31531Y-26032D01*
X31531Y-26032D02*
X31093Y-26032D01*
X31093Y-26032D02*
X31093Y-26132D01*
X31093Y-26132D02*
X31531Y-26132D01*
X31531Y-26132D02*
X31593Y-26194D01*
X31593Y-26194D02*
X31592Y-26532D01*
X31592Y-26532D02*
X31554Y-26623D01*
X31554Y-26623D02*
X31484Y-26693D01*
X31484Y-26693D02*
X31392Y-26731D01*
X31392Y-26731D02*
X31155Y-26732D01*
X31155Y-26732D02*
X31155Y-29365D01*
X31155Y-29365D02*
X31207Y-29418D01*
X31207Y-29418D02*
X31289Y-29617D01*
X31289Y-29617D02*
X31289Y-29832D01*
X31289Y-29832D02*
X31206Y-30031D01*
X31206Y-30031D02*
X31054Y-30183D01*
X31054Y-30183D02*
X30855Y-30265D01*
X30855Y-30265D02*
X30640Y-30265D01*
X30640Y-30265D02*
X30502Y-30207D01*
X30502Y-30207D02*
X30499Y-30215D01*
X30499Y-30215D02*
X30400Y-30314D01*
X30400Y-30314D02*
X30500Y-30413D01*
X30500Y-30413D02*
X30567Y-30576D01*
X30567Y-30576D02*
X30567Y-31352D01*
X30567Y-31352D02*
X30499Y-31515D01*
X30499Y-31515D02*
X30375Y-31640D01*
X30375Y-31640D02*
X30212Y-31707D01*
X30212Y-31707D02*
X29236Y-31707D01*
X29236Y-31707D02*
X29073Y-31639D01*
X29073Y-31639D02*
X28979Y-31546D01*
X28979Y-31546D02*
X28893Y-31546D01*
X28893Y-31546D02*
X28800Y-31640D01*
X28800Y-31640D02*
X28637Y-31707D01*
X28637Y-31707D02*
X28121Y-31707D01*
X28121Y-31707D02*
X28364Y-31808D01*
X28364Y-31808D02*
X28567Y-32012D01*
X28567Y-32012D02*
X28677Y-32278D01*
X28677Y-32278D02*
X28677Y-32566D01*
X28677Y-32566D02*
X28627Y-32684D01*
X28627Y-32684D02*
X28637Y-32681D01*
X28637Y-32681D02*
X28925Y-32681D01*
X28925Y-32681D02*
X29191Y-32792D01*
X29191Y-32792D02*
X29291Y-32892D01*
X29291Y-32892D02*
X29393Y-32791D01*
X29393Y-32791D02*
X29659Y-32681D01*
X29659Y-32681D02*
X29945Y-32681D01*
X29945Y-32681D02*
X29905Y-32584D01*
X29905Y-32584D02*
X29905Y-32296D01*
X29905Y-32296D02*
X30016Y-32030D01*
X30016Y-32030D02*
X30220Y-31827D01*
X30220Y-31827D02*
X30486Y-31717D01*
X30486Y-31717D02*
X30774Y-31717D01*
X30774Y-31717D02*
X31040Y-31828D01*
X31040Y-31828D02*
X31243Y-32032D01*
X31243Y-32032D02*
X31353Y-32298D01*
X31353Y-32298D02*
X31353Y-32586D01*
X31353Y-32586D02*
X31242Y-32852D01*
X31242Y-32852D02*
X31038Y-33055D01*
X31038Y-33055D02*
X30989Y-33074D01*
X30989Y-33074D02*
X31010Y-33095D01*
X31010Y-33095D02*
X30993Y-33112D01*
X30993Y-33112D02*
X31085Y-33136D01*
X31085Y-33136D02*
X31142Y-33273D01*
X31142Y-33273D02*
X31153Y-33479D01*
X31153Y-33479D02*
X31085Y-33674D01*
X31085Y-33674D02*
X30993Y-33698D01*
X30993Y-33698D02*
X30700Y-33405D01*
X30700Y-33405D02*
X30629Y-33334D01*
X30629Y-33334D02*
X30817Y-33145D01*
X30817Y-33145D02*
X30816Y-33146D01*
X30816Y-33146D02*
X30629Y-33334D01*
X30629Y-33334D02*
X30558Y-33405D01*
X30558Y-33405D02*
X30629Y-33476D01*
X30629Y-33476D02*
X30922Y-33769D01*
X30922Y-33769D02*
X30898Y-33861D01*
X30898Y-33861D02*
X30761Y-33918D01*
X30761Y-33918D02*
X30555Y-33929D01*
X30555Y-33929D02*
X30367Y-33863D01*
X30367Y-33863D02*
X30211Y-34019D01*
X30211Y-34019D02*
X30069Y-34077D01*
X30069Y-34077D02*
X30251Y-34260D01*
X30251Y-34260D02*
X30423Y-34676D01*
X30423Y-34676D02*
X30423Y-35126D01*
X30423Y-35126D02*
X30250Y-35542D01*
X30250Y-35542D02*
X29931Y-35860D01*
X29931Y-35860D02*
X29515Y-36032D01*
X29515Y-36032D02*
X29065Y-36032D01*
X29065Y-36032D02*
X28649Y-35859D01*
X28649Y-35859D02*
X28331Y-35540D01*
X28331Y-35540D02*
X28159Y-35124D01*
X28159Y-35124D02*
X28159Y-34674D01*
X28159Y-34674D02*
X28332Y-34258D01*
X28332Y-34258D02*
X28512Y-34077D01*
X28512Y-34077D02*
X28369Y-34018D01*
X28369Y-34018D02*
X28366Y-34015D01*
X28366Y-34015D02*
X28362Y-34019D01*
X28362Y-34019D02*
X28096Y-34129D01*
X28096Y-34129D02*
X27808Y-34129D01*
X27808Y-34129D02*
X27616Y-34049D01*
X27616Y-34049D02*
X27746Y-34362D01*
X27746Y-34362D02*
X27746Y-34812D01*
X27746Y-34812D02*
X27573Y-35228D01*
X27573Y-35228D02*
X27254Y-35546D01*
X27254Y-35546D02*
X26838Y-35718D01*
X26838Y-35718D02*
X26388Y-35718D01*
X26388Y-35718D02*
X25972Y-35545D01*
X25972Y-35545D02*
X25954Y-35526D01*
X25954Y-35526D02*
X25954Y-36118D01*
X25954Y-36118D02*
X25886Y-36281D01*
X25886Y-36281D02*
X25825Y-36342D01*
X25825Y-36342D02*
X33090Y-36342D01*
X24330Y-36342D02*
X24269Y-36281D01*
X24269Y-36281D02*
X24202Y-36118D01*
X24202Y-36118D02*
X24202Y-35107D01*
X24202Y-35107D02*
X24118Y-35107D01*
X24118Y-35107D02*
X23872Y-35005D01*
X23872Y-35005D02*
X23683Y-34816D01*
X23683Y-34816D02*
X23581Y-34569D01*
X23581Y-34569D02*
X23581Y-34302D01*
X23581Y-34302D02*
X23683Y-34056D01*
X23683Y-34056D02*
X23872Y-33867D01*
X23872Y-33867D02*
X24059Y-33789D01*
X24059Y-33789D02*
X23968Y-33789D01*
X23968Y-33789D02*
X23968Y-33782D01*
X23968Y-33782D02*
X23950Y-33800D01*
X23950Y-33800D02*
X23941Y-33803D01*
X23941Y-33803D02*
X23906Y-33839D01*
X23906Y-33839D02*
X23869Y-33838D01*
X23869Y-33838D02*
X23869Y-33840D01*
X23869Y-33840D02*
X23745Y-33965D01*
X23745Y-33965D02*
X23582Y-34032D01*
X23582Y-34032D02*
X23065Y-34032D01*
X23065Y-34032D02*
X23089Y-34056D01*
X23089Y-34056D02*
X23191Y-34303D01*
X23191Y-34303D02*
X23191Y-34570D01*
X23191Y-34570D02*
X23089Y-34816D01*
X23089Y-34816D02*
X22900Y-35005D01*
X22900Y-35005D02*
X22653Y-35107D01*
X22653Y-35107D02*
X22570Y-35107D01*
X22570Y-35107D02*
X22570Y-36118D01*
X22570Y-36118D02*
X22502Y-36281D01*
X22502Y-36281D02*
X22441Y-36342D01*
X22441Y-36342D02*
X24330Y-36342D01*
X20946Y-36342D02*
X20885Y-36281D01*
X20885Y-36281D02*
X20818Y-36118D01*
X20818Y-36118D02*
X20818Y-35036D01*
X20818Y-35036D02*
X20886Y-34873D01*
X20886Y-34873D02*
X21010Y-34748D01*
X21010Y-34748D02*
X21173Y-34681D01*
X21173Y-34681D02*
X21895Y-34681D01*
X21895Y-34681D02*
X21849Y-34569D01*
X21849Y-34569D02*
X21849Y-34308D01*
X21849Y-34308D02*
X21173Y-34308D01*
X21173Y-34308D02*
X21010Y-34240D01*
X21010Y-34240D02*
X20885Y-34116D01*
X20885Y-34116D02*
X20818Y-33953D01*
X20818Y-33953D02*
X20818Y-32871D01*
X20818Y-32871D02*
X20886Y-32708D01*
X20886Y-32708D02*
X21010Y-32583D01*
X21010Y-32583D02*
X21173Y-32516D01*
X21173Y-32516D02*
X21688Y-32516D01*
X21688Y-32516D02*
X21662Y-32505D01*
X21662Y-32505D02*
X21510Y-32353D01*
X21510Y-32353D02*
X21428Y-32154D01*
X21428Y-32154D02*
X21428Y-31939D01*
X21428Y-31939D02*
X21511Y-31740D01*
X21511Y-31740D02*
X21663Y-31588D01*
X21663Y-31588D02*
X21706Y-31570D01*
X21706Y-31570D02*
X19981Y-31570D01*
X19981Y-31570D02*
X19981Y-31598D01*
X19981Y-31598D02*
X20026Y-31666D01*
X20026Y-31666D02*
X20070Y-31889D01*
X20070Y-31889D02*
X20071Y-33032D01*
X20071Y-33032D02*
X20026Y-33255D01*
X20026Y-33255D02*
X19900Y-33444D01*
X19900Y-33444D02*
X19897Y-33445D01*
X19897Y-33445D02*
X19179Y-34164D01*
X19179Y-34164D02*
X19179Y-34572D01*
X19179Y-34572D02*
X19111Y-34735D01*
X19111Y-34735D02*
X19012Y-34834D01*
X19012Y-34834D02*
X19112Y-34933D01*
X19112Y-34933D02*
X19135Y-34991D01*
X19135Y-34991D02*
X19649Y-34991D01*
X19649Y-34991D02*
X19662Y-34985D01*
X19662Y-34985D02*
X19710Y-34938D01*
X19710Y-34938D02*
X19710Y-34838D01*
X19710Y-34838D02*
X19648Y-34776D01*
X19648Y-34776D02*
X19649Y-34718D01*
X19649Y-34718D02*
X19687Y-34627D01*
X19687Y-34627D02*
X19757Y-34557D01*
X19757Y-34557D02*
X19849Y-34519D01*
X19849Y-34519D02*
X19956Y-34518D01*
X19956Y-34518D02*
X20018Y-34580D01*
X20018Y-34580D02*
X20018Y-34838D01*
X20018Y-34838D02*
X19710Y-34838D01*
X19710Y-34838D02*
X19710Y-34938D01*
X19710Y-34938D02*
X19778Y-34938D01*
X19778Y-34938D02*
X19810Y-34925D01*
X19810Y-34925D02*
X20118Y-34925D01*
X20118Y-34925D02*
X20118Y-34838D01*
X20118Y-34838D02*
X20118Y-34580D01*
X20118Y-34580D02*
X20180Y-34518D01*
X20180Y-34518D02*
X20287Y-34519D01*
X20287Y-34519D02*
X20379Y-34557D01*
X20379Y-34557D02*
X20449Y-34627D01*
X20449Y-34627D02*
X20487Y-34718D01*
X20487Y-34718D02*
X20488Y-34776D01*
X20488Y-34776D02*
X20426Y-34838D01*
X20426Y-34838D02*
X20118Y-34838D01*
X20118Y-34838D02*
X20118Y-34925D01*
X20118Y-34925D02*
X20326Y-34925D01*
X20326Y-34925D02*
X20357Y-34938D01*
X20357Y-34938D02*
X20426Y-34938D01*
X20426Y-34938D02*
X20475Y-34987D01*
X20475Y-34987D02*
X20489Y-34993D01*
X20489Y-34993D02*
X20614Y-35117D01*
X20614Y-35117D02*
X20681Y-35280D01*
X20681Y-35280D02*
X20681Y-35696D01*
X20681Y-35696D02*
X20613Y-35859D01*
X20613Y-35859D02*
X20489Y-35984D01*
X20489Y-35984D02*
X20326Y-36051D01*
X20326Y-36051D02*
X19810Y-36051D01*
X19810Y-36051D02*
X19647Y-35983D01*
X19647Y-35983D02*
X19640Y-35977D01*
X19640Y-35977D02*
X19135Y-35977D01*
X19135Y-35977D02*
X19111Y-36035D01*
X19111Y-36035D02*
X18987Y-36160D01*
X18987Y-36160D02*
X18824Y-36227D01*
X18824Y-36227D02*
X17848Y-36227D01*
X17848Y-36227D02*
X17685Y-36159D01*
X17685Y-36159D02*
X17596Y-36071D01*
X17596Y-36071D02*
X17511Y-36158D01*
X17511Y-36158D02*
X17348Y-36225D01*
X17348Y-36225D02*
X16372Y-36225D01*
X16372Y-36225D02*
X16270Y-36182D01*
X16270Y-36182D02*
X16167Y-36225D01*
X16167Y-36225D02*
X15191Y-36225D01*
X15191Y-36225D02*
X15089Y-36182D01*
X15089Y-36182D02*
X14986Y-36225D01*
X14986Y-36225D02*
X14010Y-36225D01*
X14010Y-36225D02*
X13907Y-36182D01*
X13907Y-36182D02*
X13809Y-36222D01*
X13809Y-36222D02*
X13809Y-36263D01*
X13809Y-36263D02*
X13828Y-36310D01*
X13828Y-36310D02*
X13828Y-36342D01*
X13828Y-36342D02*
X20946Y-36342D01*
X25954Y-33645D02*
X25974Y-33626D01*
X25974Y-33626D02*
X26390Y-33454D01*
X26390Y-33454D02*
X26840Y-33454D01*
X26840Y-33454D02*
X27256Y-33627D01*
X27256Y-33627D02*
X27265Y-33636D01*
X27265Y-33636D02*
X27229Y-33548D01*
X27229Y-33548D02*
X27229Y-33260D01*
X27229Y-33260D02*
X27340Y-32994D01*
X27340Y-32994D02*
X27421Y-32912D01*
X27421Y-32912D02*
X27339Y-32830D01*
X27339Y-32830D02*
X27229Y-32564D01*
X27229Y-32564D02*
X27229Y-32276D01*
X27229Y-32276D02*
X27340Y-32010D01*
X27340Y-32010D02*
X27544Y-31807D01*
X27544Y-31807D02*
X27785Y-31707D01*
X27785Y-31707D02*
X27661Y-31707D01*
X27661Y-31707D02*
X27498Y-31639D01*
X27498Y-31639D02*
X27404Y-31546D01*
X27404Y-31546D02*
X26049Y-31546D01*
X26049Y-31546D02*
X25806Y-31790D01*
X25806Y-31790D02*
X25617Y-31916D01*
X25617Y-31916D02*
X25394Y-31961D01*
X25394Y-31961D02*
X25171Y-31916D01*
X25171Y-31916D02*
X24982Y-31790D01*
X24982Y-31790D02*
X24856Y-31601D01*
X24856Y-31601D02*
X24811Y-31378D01*
X24811Y-31378D02*
X24856Y-31155D01*
X24856Y-31155D02*
X24982Y-30966D01*
X24982Y-30966D02*
X25396Y-30552D01*
X25396Y-30552D02*
X25585Y-30426D01*
X25585Y-30426D02*
X25808Y-30382D01*
X25808Y-30382D02*
X26506Y-30382D01*
X26506Y-30382D02*
X26431Y-30306D01*
X26431Y-30306D02*
X26349Y-30107D01*
X26349Y-30107D02*
X26349Y-29892D01*
X26349Y-29892D02*
X26432Y-29693D01*
X26432Y-29693D02*
X26584Y-29541D01*
X26584Y-29541D02*
X26674Y-29503D01*
X26674Y-29503D02*
X26869Y-29308D01*
X26869Y-29308D02*
X27034Y-29199D01*
X27034Y-29199D02*
X27226Y-29161D01*
X27226Y-29161D02*
X27353Y-29160D01*
X27353Y-29160D02*
X27365Y-29134D01*
X27365Y-29134D02*
X27306Y-28990D01*
X27306Y-28990D02*
X27306Y-28705D01*
X27306Y-28705D02*
X26136Y-29876D01*
X26136Y-29876D02*
X25976Y-29982D01*
X25976Y-29982D02*
X25787Y-30021D01*
X25787Y-30021D02*
X24223Y-30020D01*
X24223Y-30020D02*
X24224Y-30105D01*
X24224Y-30105D02*
X24162Y-30167D01*
X24162Y-30167D02*
X23574Y-30167D01*
X23574Y-30167D02*
X23474Y-30167D01*
X23474Y-30167D02*
X23474Y-30267D01*
X23474Y-30267D02*
X23474Y-30795D01*
X23474Y-30795D02*
X23412Y-30857D01*
X23412Y-30857D02*
X23317Y-30856D01*
X23317Y-30856D02*
X23318Y-31546D01*
X23318Y-31546D02*
X23279Y-31735D01*
X23279Y-31735D02*
X23227Y-31812D01*
X23227Y-31812D02*
X23297Y-31980D01*
X23297Y-31980D02*
X23297Y-32195D01*
X23297Y-32195D02*
X23278Y-32240D01*
X23278Y-32240D02*
X23278Y-32516D01*
X23278Y-32516D02*
X23582Y-32516D01*
X23582Y-32516D02*
X23636Y-32538D01*
X23636Y-32538D02*
X23636Y-30857D01*
X23636Y-30857D02*
X23574Y-30795D01*
X23574Y-30795D02*
X23574Y-30267D01*
X23574Y-30267D02*
X24162Y-30267D01*
X24162Y-30267D02*
X24224Y-30329D01*
X24224Y-30329D02*
X24223Y-30657D01*
X24223Y-30657D02*
X24185Y-30748D01*
X24185Y-30748D02*
X24115Y-30818D01*
X24115Y-30818D02*
X24023Y-30856D01*
X24023Y-30856D02*
X23636Y-30857D01*
X23636Y-30857D02*
X23636Y-32538D01*
X23636Y-32538D02*
X23745Y-32584D01*
X23745Y-32584D02*
X23870Y-32709D01*
X23870Y-32709D02*
X23906Y-32709D01*
X23906Y-32709D02*
X23941Y-32744D01*
X23941Y-32744D02*
X23950Y-32748D01*
X23950Y-32748D02*
X24020Y-32818D01*
X24020Y-32818D02*
X24058Y-32909D01*
X24058Y-32909D02*
X24059Y-33162D01*
X24059Y-33162D02*
X23997Y-33224D01*
X23997Y-33224D02*
X23968Y-33224D01*
X23968Y-33224D02*
X23968Y-33324D01*
X23968Y-33324D02*
X23997Y-33324D01*
X23997Y-33324D02*
X24068Y-33324D01*
X24068Y-33324D02*
X24068Y-33224D01*
X24068Y-33224D02*
X24068Y-32771D01*
X24068Y-32771D02*
X24130Y-32709D01*
X24130Y-32709D02*
X24175Y-32710D01*
X24175Y-32710D02*
X24255Y-32743D01*
X24255Y-32743D02*
X24270Y-32708D01*
X24270Y-32708D02*
X24394Y-32583D01*
X24394Y-32583D02*
X24557Y-32516D01*
X24557Y-32516D02*
X25599Y-32516D01*
X25599Y-32516D02*
X25762Y-32584D01*
X25762Y-32584D02*
X25887Y-32708D01*
X25887Y-32708D02*
X25954Y-32871D01*
X25954Y-32871D02*
X25954Y-33645D01*
X13987Y-31791D02*
X13987Y-31703D01*
X13987Y-31703D02*
X14070Y-31504D01*
X14070Y-31504D02*
X14222Y-31352D01*
X14222Y-31352D02*
X14322Y-31309D01*
X14322Y-31309D02*
X14322Y-30857D01*
X14322Y-30857D02*
X13935Y-30856D01*
X13935Y-30856D02*
X13843Y-30818D01*
X13843Y-30818D02*
X13773Y-30748D01*
X13773Y-30748D02*
X13735Y-30657D01*
X13735Y-30657D02*
X13734Y-30329D01*
X13734Y-30329D02*
X13796Y-30267D01*
X13796Y-30267D02*
X14384Y-30267D01*
X14384Y-30267D02*
X14384Y-30795D01*
X14384Y-30795D02*
X14322Y-30857D01*
X14322Y-30857D02*
X14322Y-31309D01*
X14322Y-31309D02*
X14336Y-31304D01*
X14336Y-31304D02*
X14651Y-30990D01*
X14651Y-30990D02*
X14651Y-30856D01*
X14651Y-30856D02*
X14546Y-30857D01*
X14546Y-30857D02*
X14484Y-30795D01*
X14484Y-30795D02*
X14484Y-30267D01*
X14484Y-30267D02*
X14484Y-30167D01*
X14484Y-30167D02*
X14384Y-30167D01*
X14384Y-30167D02*
X13796Y-30167D01*
X13796Y-30167D02*
X13734Y-30105D01*
X13734Y-30105D02*
X13735Y-29777D01*
X13735Y-29777D02*
X13773Y-29686D01*
X13773Y-29686D02*
X13843Y-29616D01*
X13843Y-29616D02*
X13935Y-29578D01*
X13935Y-29578D02*
X14214Y-29577D01*
X14214Y-29577D02*
X13378Y-28741D01*
X13378Y-28741D02*
X12989Y-28741D01*
X12989Y-28741D02*
X13108Y-28821D01*
X13108Y-28821D02*
X13235Y-29009D01*
X13235Y-29009D02*
X13279Y-29232D01*
X13279Y-29232D02*
X13235Y-29455D01*
X13235Y-29455D02*
X13108Y-29644D01*
X13108Y-29644D02*
X13007Y-29746D01*
X13007Y-29746D02*
X12818Y-29872D01*
X12818Y-29872D02*
X12595Y-29917D01*
X12595Y-29917D02*
X12228Y-29916D01*
X12228Y-29916D02*
X12200Y-29985D01*
X12200Y-29985D02*
X12076Y-30110D01*
X12076Y-30110D02*
X11913Y-30177D01*
X11913Y-30177D02*
X09937Y-30177D01*
X09937Y-30177D02*
X09774Y-30109D01*
X09774Y-30109D02*
X09649Y-29985D01*
X09649Y-29985D02*
X09582Y-29822D01*
X09582Y-29822D02*
X09582Y-28857D01*
X09582Y-28857D02*
X09534Y-28741D01*
X09534Y-28741D02*
X09278Y-28741D01*
X09278Y-28741D02*
X09162Y-28789D01*
X09162Y-28789D02*
X09032Y-28789D01*
X09032Y-28789D02*
X09032Y-28967D01*
X09032Y-28967D02*
X09085Y-29020D01*
X09085Y-29020D02*
X09152Y-29183D01*
X09152Y-29183D02*
X09152Y-29799D01*
X09152Y-29799D02*
X09084Y-29962D01*
X09084Y-29962D02*
X08960Y-30087D01*
X08960Y-30087D02*
X08797Y-30154D01*
X08797Y-30154D02*
X08782Y-30154D01*
X08782Y-30154D02*
X08782Y-30525D01*
X08782Y-30525D02*
X09057Y-30801D01*
X09057Y-30801D02*
X09584Y-30801D01*
X09584Y-30801D02*
X09650Y-30643D01*
X09650Y-30643D02*
X09774Y-30518D01*
X09774Y-30518D02*
X09937Y-30451D01*
X09937Y-30451D02*
X11913Y-30451D01*
X11913Y-30451D02*
X12076Y-30519D01*
X12076Y-30519D02*
X12201Y-30643D01*
X12201Y-30643D02*
X12268Y-30806D01*
X12268Y-30806D02*
X12268Y-31782D01*
X12268Y-31782D02*
X12264Y-31791D01*
X12264Y-31791D02*
X13987Y-31791D01*
M02*
