M48
;DRILL file {PCBnew (20090216-final)} date Tue 12 Oct 2010 10:36:44 PM COT
;FORMAT={2:3/ absolute / metric / suppress leading zeros}
R,T
VER,1
FMAT,2
METRIC,TZ
TCST,OFF
ICI,OFF
ATC,ON
T1C0.498
T2C0.500
T3C0.864
T4C0.899
T5C1.001
T6C2.299
T7C2.997
%
M47
G05
M71
T1
X138750Y59251
X138750Y78001
X142075Y78072
X142250Y54501
X143200Y70599
X143500Y60749
X144188Y70759
X144501Y54000
X145250Y63000
X146500Y41501
X150000Y57000
X158501Y52751
X162751Y52751
X190901Y52212
X208973Y73348
X208973Y81725
X215638Y80980
T2
X138999Y74501
X144800Y76599
X145499Y77500
X148100Y83500
X167599Y74800
X173700Y74600
X176200Y74399
X180401Y74000
X182801Y76401
X184800Y81399
X185001Y79400
X185999Y85601
X190401Y66901
X198900Y62100
X202499Y58499
X214800Y54501
T3
X217099Y51501
X217099Y53508
X217099Y55489
X217099Y57495
X217099Y59502
X217099Y61509
X217099Y63490
X217099Y65496
X217099Y67503
X217099Y69510
X217099Y71491
X217099Y73497
X217099Y75504
X217099Y77511
X217099Y79492
X217099Y81498
X217099Y83505
X217099Y85512
X217099Y87493
X217099Y89499
X219105Y51501
X219105Y53508
X219105Y55489
X219105Y57495
X219105Y59502
X219105Y61509
X219105Y63490
X219105Y65496
X219105Y67503
X219105Y69510
X219105Y71491
X219105Y73497
X219105Y75504
X219105Y77511
X219105Y79492
X219105Y81498
X219105Y83505
X219105Y85512
X219105Y87493
X219105Y89499
T4
X196601Y36749
X196601Y39197
X198702Y36749
X201298Y36749
X203398Y36749
X203398Y39248
T5
X154800Y33731
X159200Y33731
T6
X193251Y33749
X200000Y32951
X206799Y33749
T7
X136975Y31999
X136975Y104000
X218973Y31999
X218973Y104000
T0
M30
